<svg width="557" height="580" viewBox="0 0 557 580" fill="none" xmlns="http://www.w3.org/2000/svg">
<path d="M531.107 579.631C531.107 579.805 417.564 579.954 277.543 579.954C137.522 579.954 23.9534 579.805 23.9534 579.631C23.9534 579.458 137.472 579.309 277.543 579.309C417.613 579.309 531.107 579.458 531.107 579.631Z" fill="#263238"/>
<path d="M142.226 217.749C145.747 226.373 146.629 235.847 144.762 244.972C142.894 254.098 138.36 262.464 131.734 269.01C125.109 275.557 116.689 279.99 107.542 281.749C98.3951 283.507 88.932 282.511 80.3513 278.887C71.7706 275.264 64.4583 269.175 59.3404 261.393C54.2226 253.61 51.5294 244.484 51.602 235.169C51.6746 225.855 54.5097 216.772 59.7483 209.07C64.9868 201.368 72.3932 195.394 81.0294 191.905C92.5726 187.227 105.501 187.321 116.975 192.166C128.449 197.012 137.531 206.213 142.226 217.749Z" fill="#0169D8"/>
<path d="M131.899 221.958C134.578 228.529 135.247 235.747 133.822 242.698C132.396 249.65 128.941 256.022 123.892 261.009C118.844 265.996 112.429 269.373 105.461 270.712C98.4924 272.052 91.2831 271.294 84.7455 268.535C78.2078 265.776 72.6358 261.139 68.7346 255.211C64.8334 249.284 62.7784 242.332 62.8297 235.236C62.8811 228.14 65.0365 221.219 69.0231 215.348C73.0097 209.478 78.6482 204.922 85.2251 202.258C94.0268 198.681 103.889 198.748 112.642 202.442C121.394 206.136 128.321 213.156 131.899 221.958Z" fill="#0169D8"/>
<path d="M131.899 221.957C131.798 221.793 131.707 221.623 131.626 221.448L130.868 219.909L130.322 218.792C130.099 218.382 129.826 217.96 129.54 217.489C128.922 216.396 128.225 215.351 127.455 214.36C125.42 211.58 122.976 209.123 120.205 207.074C116.552 204.344 112.41 202.338 108.003 201.165C102.668 199.721 97.0681 199.551 91.6551 200.669C83.7787 202.342 76.68 206.581 71.4712 212.722C70.925 213.38 70.4409 214.087 69.9071 214.782C69.3845 215.47 68.9076 216.192 68.4796 216.942C67.5467 218.444 66.7172 220.008 65.997 221.622C65.3138 223.285 64.7497 224.994 64.3088 226.736C63.3681 230.305 63.0159 234.003 63.2661 237.685C63.7204 245.33 66.6679 252.616 71.6574 258.427C74.0498 261.24 76.8788 263.65 80.0363 265.565C81.5659 266.502 83.1586 267.331 84.803 268.047C86.4215 268.706 88.0799 269.261 89.7683 269.711C93.0682 270.595 96.4849 270.963 99.8975 270.803C106.243 270.566 112.412 268.647 117.772 265.242C122.019 262.523 125.643 258.937 128.405 254.718C131.167 250.499 133.005 245.743 133.798 240.763C134.37 237.365 134.42 233.899 133.947 230.485C133.812 229.229 133.584 227.984 133.264 226.761C133.14 226.227 133.053 225.731 132.929 225.296C132.805 224.862 132.643 224.465 132.532 224.055C132.308 223.372 132.135 222.814 132.01 222.429C131.937 222.249 131.883 222.062 131.849 221.87C131.941 222.04 132.016 222.219 132.072 222.404C132.221 222.801 132.42 223.323 132.668 224.005L133.103 225.185C133.239 225.632 133.351 226.128 133.488 226.662C133.831 227.882 134.08 229.127 134.232 230.386C134.769 233.824 134.769 237.325 134.232 240.763C133.462 245.826 131.625 250.667 128.843 254.966C126.061 259.265 122.397 262.924 118.095 265.701C112.69 269.202 106.454 271.206 100.022 271.511C98.2991 271.576 96.5742 271.531 94.8577 271.374C93.1129 271.171 91.3836 270.852 89.6814 270.418C87.9375 269.968 86.2249 269.404 84.5547 268.73C82.8784 268.014 81.2527 267.184 79.6888 266.248C76.4636 264.291 73.5721 261.831 71.1236 258.961C66.0263 253.031 63.0172 245.591 62.5585 237.784C62.3117 234.027 62.6721 230.255 63.6261 226.612C64.495 223.094 65.9287 219.741 67.8714 216.682C68.3 215.907 68.7898 215.168 69.3361 214.472C69.8699 213.777 70.3664 213.057 70.925 212.387C72.0377 211.064 73.2405 209.82 74.5249 208.663C79.3476 204.354 85.23 201.407 91.5682 200.122C96.5879 199.124 101.763 199.203 106.749 200.357C111.736 201.51 116.42 203.711 120.491 206.813C123.276 208.905 125.717 211.418 127.728 214.261C128.496 215.267 129.181 216.334 129.776 217.451C130.049 217.935 130.322 218.357 130.533 218.779C130.744 219.202 130.893 219.574 131.042 219.922C131.328 220.579 131.564 221.163 131.725 221.486C131.794 221.638 131.852 221.796 131.899 221.957Z" fill="#263238"/>
<g opacity="0.3">
<path d="M131.787 222.404C131.588 222.491 130.856 221.089 129.304 218.767C127.131 215.478 124.459 212.546 121.385 210.078C119.277 208.406 116.991 206.97 114.57 205.796C111.809 204.473 108.888 203.513 105.881 202.941C104.244 202.615 102.583 202.42 100.915 202.357C99.1971 202.273 97.4751 202.319 95.7638 202.494C93.9962 202.681 92.2452 203 90.5254 203.449C88.7635 203.931 87.0379 204.537 85.3615 205.262C83.6888 206.013 82.0747 206.889 80.5328 207.881C79.0403 208.845 77.6251 209.925 76.2999 211.108C75.0182 212.256 73.8271 213.501 72.7373 214.832C71.676 216.102 70.7132 217.451 69.8574 218.867C68.2618 221.484 67.0102 224.296 66.1335 227.233C65.372 229.814 64.8934 232.469 64.706 235.153C64.4628 239.078 64.8228 243.017 65.7735 246.834C66.4438 249.552 67.0148 251.042 66.7914 251.129C66.5679 251.216 65.7735 249.887 64.7556 247.144C63.37 243.275 62.7012 239.187 62.7819 235.078C62.8658 232.222 63.2824 229.385 64.0232 226.625C64.8486 223.446 66.1013 220.393 67.7472 217.551C68.6339 216.015 69.6382 214.55 70.7512 213.169C73.1171 210.223 75.9321 207.668 79.0929 205.597C80.7475 204.522 82.4822 203.576 84.2816 202.767C86.0929 201.983 87.96 201.336 89.8675 200.83C93.5115 199.885 97.2818 199.521 101.039 199.75C102.81 199.854 104.569 200.094 106.303 200.47C109.514 201.15 112.617 202.265 115.526 203.785C118.051 205.11 120.413 206.727 122.564 208.601C125.67 211.3 128.246 214.554 130.161 218.196C131.526 220.791 131.923 222.342 131.787 222.404Z" fill="black"/>
</g>
<g opacity="0.3">
<path d="M110.449 253.723L112.931 259.482L107.792 261.655L105.372 256.032C100.158 257.881 94.6095 258.34 90.8483 257.273L91.0221 249.825C94.8454 250.641 98.8151 250.448 102.542 249.266L98.9169 240.689C92.6234 241.707 85.4485 242.489 82.3452 235.14C80.0488 229.691 82.0349 223.348 89.7932 219.003L87.385 213.293L92.5241 211.121L94.895 216.731C98.6599 215.393 102.689 214.967 106.65 215.49L106.75 222.938C103.741 222.556 100.686 222.775 97.7624 223.583L101.486 232.273C107.693 231.193 114.818 230.46 117.884 237.697C120.057 243.072 118.108 249.341 110.449 253.723ZM95.7267 233.179L92.6482 225.88C90.1656 227.643 89.7311 229.604 90.4511 231.292C91.171 232.98 93.1571 233.415 95.7267 233.179ZM109.791 241.868C109.034 240.068 107.134 239.721 104.59 239.882L107.594 246.982C109.952 245.294 110.486 243.482 109.791 241.831V241.868Z" fill="white"/>
</g>
<path d="M253.238 123.21C254.785 132.391 253.575 141.824 249.76 150.317C245.944 158.81 239.696 165.98 231.804 170.92C223.913 175.86 214.734 178.348 205.428 178.07C196.122 177.792 187.107 174.76 179.525 169.357C171.943 163.954 166.134 156.423 162.833 147.718C159.532 139.013 158.887 129.524 160.981 120.452C163.074 111.38 167.811 103.133 174.593 96.7544C181.375 90.3757 189.896 86.152 199.079 84.6177C205.169 83.5935 211.402 83.7795 217.42 85.1649C223.439 86.5504 229.125 89.1082 234.155 92.6922C239.184 96.2761 243.459 100.816 246.733 106.053C250.007 111.289 252.218 117.119 253.238 123.21Z" fill="#0169D8"/>
<path d="M242.202 125.023C243.385 132.019 242.465 139.209 239.56 145.682C236.655 152.156 231.895 157.622 225.882 161.389C219.869 165.156 212.874 167.055 205.781 166.845C198.689 166.635 191.818 164.326 186.039 160.21C180.259 156.094 175.831 150.356 173.313 143.722C170.796 137.088 170.303 129.856 171.897 122.942C173.491 116.028 177.101 109.742 182.268 104.88C187.436 100.018 193.93 96.7982 200.929 95.6282C210.3 94.0548 219.912 96.2674 227.652 101.78C235.392 107.292 240.625 115.652 242.202 125.023Z" fill="#0169D8"/>
<path d="M242.203 125.023C242.127 124.842 242.069 124.656 242.029 124.464C241.929 124.055 241.805 123.508 241.632 122.801C241.545 122.441 241.445 122.031 241.346 121.56C241.247 121.088 241.036 120.641 240.874 120.12C240.497 118.92 240.041 117.747 239.509 116.607C238.127 113.448 236.273 110.518 234.01 107.918C230.721 104.102 226.664 101.024 222.103 98.8845C217.542 96.7454 212.581 95.5935 207.545 95.5043C201.196 95.3947 194.933 96.9756 189.397 100.085C187.93 100.913 186.52 101.838 185.176 102.853C184.494 103.374 183.873 103.958 183.203 104.516C182.54 105.071 181.918 105.673 181.341 106.316C180.114 107.583 178.974 108.931 177.927 110.351C176.911 111.829 175.99 113.372 175.171 114.968C173.482 118.25 172.333 121.784 171.77 125.433C170.562 132.999 171.87 140.752 175.494 147.503C177.215 150.771 179.454 153.739 182.123 156.292C184.658 158.824 187.594 160.921 190.812 162.498C192.345 163.292 193.934 163.973 195.566 164.534C197.17 165.06 198.808 165.474 200.469 165.775C208.592 167.271 216.982 165.902 224.208 161.902C231.433 157.902 237.048 151.519 240.092 143.841C241.375 140.668 242.179 137.321 242.476 133.911C242.607 132.674 242.652 131.43 242.612 130.187C242.612 129.641 242.612 129.132 242.612 128.672C242.612 128.213 242.525 127.803 242.488 127.431C242.414 126.724 242.364 126.19 242.327 125.743C242.305 125.549 242.305 125.353 242.327 125.159C242.371 125.348 242.404 125.538 242.426 125.73C242.426 126.14 242.563 126.711 242.662 127.419C242.662 127.791 242.761 128.213 242.823 128.66C242.885 129.107 242.823 129.628 242.823 130.174C242.889 131.441 242.864 132.71 242.749 133.973C242.515 137.443 241.744 140.856 240.465 144.09C238.63 148.863 235.798 153.191 232.16 156.785C228.521 160.379 224.158 163.156 219.362 164.931C211.633 167.722 203.193 167.853 195.38 165.304C193.717 164.729 192.095 164.04 190.526 163.243C188.923 162.43 187.376 161.509 185.896 160.487C184.415 159.405 183.009 158.223 181.688 156.95C178.97 154.337 176.686 151.308 174.923 147.975C171.258 141.072 169.95 133.16 171.199 125.445C171.782 121.719 172.959 118.11 174.687 114.757C175.524 113.13 176.465 111.558 177.505 110.053C178.514 108.57 179.626 107.16 180.832 105.832C181.425 105.176 182.064 104.562 182.743 103.995C183.426 103.424 184.059 102.828 184.754 102.307C186.128 101.27 187.572 100.329 189.074 99.489C194.715 96.3342 201.095 94.7402 207.557 94.8712C212.674 94.9874 217.708 96.1908 222.325 98.4016C226.941 100.612 231.034 103.78 234.333 107.694C236.594 110.342 238.432 113.323 239.782 116.532C240.281 117.688 240.696 118.879 241.023 120.095C241.185 120.616 241.346 121.1 241.47 121.547C241.594 121.994 241.644 122.416 241.718 122.789C241.855 123.496 241.967 124.03 242.054 124.464C242.114 124.647 242.164 124.834 242.203 125.023Z" fill="#263238"/>
<g opacity="0.3">
<path d="M241.979 125.432C241.768 125.432 241.358 123.955 240.34 121.336C238.93 117.664 236.958 114.235 234.494 111.169C232.803 109.08 230.888 107.182 228.784 105.509C226.367 103.635 223.723 102.075 220.914 100.867C219.404 100.198 217.843 99.6505 216.246 99.228C214.59 98.7715 212.901 98.4436 211.194 98.2473C209.427 98.0455 207.647 97.975 205.869 98.0363C204.044 98.1234 202.227 98.3391 200.432 98.6818C198.638 99.0489 196.875 99.551 195.156 100.184C193.486 100.799 191.867 101.547 190.315 102.418C188.817 103.254 187.385 104.204 186.033 105.261C184.709 106.265 183.464 107.369 182.309 108.563C178.29 112.715 175.346 117.786 173.731 123.334C172.633 127.115 172.126 131.043 172.229 134.978C172.291 137.783 172.49 139.347 172.229 139.385C171.969 139.422 171.509 137.92 171.112 135.052C170.597 130.968 170.837 126.823 171.82 122.825C173.283 116.83 176.277 111.317 180.509 106.825C181.711 105.496 183.023 104.271 184.431 103.163C185.878 102.002 187.414 100.956 189.024 100.035C190.683 99.0657 192.418 98.2354 194.213 97.5522C197.914 96.145 201.824 95.3647 205.782 95.2433C211.338 95.0645 216.86 96.1689 221.919 98.4708C227.528 101.024 232.384 104.978 236.021 109.953C238.456 113.267 240.265 116.999 241.358 120.963C242.091 123.806 242.14 125.407 241.979 125.432Z" fill="black"/>
</g>
<g opacity="0.3">
<path d="M220.678 139.534L226.711 144.636C223.223 149.365 217.736 152.084 210.896 152.419C200.966 152.903 192.848 147.664 189.856 139.323L183.525 139.621L183.302 134.916L188.788 134.643C188.714 134.146 188.689 133.637 188.664 133.141C188.633 132.632 188.633 132.123 188.664 131.614L183.19 131.9L182.967 127.183L189.297 126.885C191.482 118.282 199.067 112.299 208.985 111.827C215.837 111.505 221.559 113.702 225.469 118.034L219.958 123.695C218.673 122.303 217.097 121.212 215.341 120.499C213.586 119.787 211.695 119.471 209.804 119.573C207.543 119.597 205.333 120.252 203.425 121.465C201.517 122.678 199.986 124.401 199.004 126.438L213.193 125.768L213.416 130.472L197.825 131.217C197.825 131.726 197.825 132.235 197.825 132.731C197.835 133.238 197.877 133.744 197.949 134.246L213.54 133.501L213.764 138.218L199.575 138.888C200.746 140.824 202.434 142.394 204.45 143.421C206.466 144.447 208.729 144.89 210.983 144.698C212.882 144.617 214.739 144.111 216.417 143.217C218.095 142.323 219.551 141.065 220.678 139.534Z" fill="white"/>
</g>
<path d="M404.964 146.448C402.148 155.323 396.762 163.162 389.488 168.975C382.215 174.788 373.38 178.312 364.103 179.102C354.825 179.892 345.522 177.912 337.37 173.413C329.219 168.913 322.585 162.097 318.309 153.826C314.032 145.555 312.306 136.201 313.347 126.949C314.389 117.696 318.152 108.961 324.16 101.847C330.168 94.7344 338.152 89.5635 347.1 86.9892C356.048 84.4148 365.558 84.5528 374.428 87.3857C380.312 89.2566 385.77 92.2688 390.49 96.2501C395.21 100.231 399.099 105.104 401.935 110.589C404.771 116.074 406.498 122.064 407.018 128.217C407.538 134.37 406.84 140.565 404.964 146.448Z" fill="#0169D8"/>
<path d="M394.301 143.071C392.158 149.84 388.055 155.82 382.512 160.256C376.968 164.691 370.233 167.382 363.159 167.987C356.085 168.592 348.991 167.085 342.774 163.656C336.557 160.227 331.498 155.031 328.236 148.725C324.974 142.419 323.657 135.287 324.451 128.232C325.245 121.176 328.115 114.516 332.696 109.092C337.278 103.669 343.366 99.7269 350.189 97.7654C357.012 95.804 364.264 95.9112 371.027 98.0735C380.078 100.957 387.614 107.317 391.978 115.755C396.342 124.193 397.178 134.018 394.301 143.071Z" fill="#0169D8"/>
<path d="M394.301 143.071C394.322 142.878 394.359 142.687 394.413 142.5C394.512 142.091 394.637 141.544 394.81 140.849C394.897 140.477 394.997 140.08 395.108 139.608C395.22 139.136 395.257 138.652 395.344 138.106C395.567 136.876 395.7 135.631 395.741 134.382C395.959 130.942 395.649 127.488 394.823 124.141C392.918 116.102 388.278 108.975 381.698 103.98C375.117 98.9844 367.005 96.4314 358.75 96.7576C357.064 96.8152 355.384 96.9894 353.723 97.279C352.891 97.4404 352.059 97.6762 351.24 97.8624C350.395 98.0542 349.565 98.3073 348.757 98.6196C347.088 99.1839 345.458 99.8599 343.879 100.643C342.297 101.491 340.771 102.441 339.311 103.486C336.31 105.638 333.674 108.257 331.503 111.244C329.286 114.328 327.549 117.731 326.352 121.336C325.248 124.957 324.687 128.722 324.688 132.508C324.72 136.202 325.353 139.866 326.563 143.357C327.139 145.055 327.828 146.714 328.623 148.322C329.457 149.877 330.394 151.374 331.429 152.803C332.433 154.201 333.532 155.528 334.718 156.775C341.091 163.319 349.731 167.168 358.858 167.53C367.985 167.893 376.903 164.741 383.775 158.724C386.387 156.479 388.643 153.851 390.466 150.929C391.16 149.878 391.778 148.779 392.315 147.639C392.551 147.155 392.799 146.708 392.986 146.286C393.172 145.864 393.308 145.479 393.445 145.119C393.718 144.462 393.929 143.878 394.078 143.543C394.144 143.358 394.227 143.179 394.326 143.009C394.285 143.2 394.227 143.387 394.152 143.568L393.594 145.182L393.159 146.361C392.986 146.795 392.75 147.242 392.514 147.739C391.999 148.895 391.397 150.012 390.714 151.078C388.916 154.058 386.672 156.746 384.061 159.047C380.235 162.444 375.731 164.989 370.848 166.515C365.964 168.04 360.813 168.512 355.734 167.898C349.315 167.105 343.225 164.611 338.094 160.673C336.726 159.631 335.432 158.495 334.222 157.272C333.011 156 331.887 154.648 330.858 153.225C329.802 151.767 328.845 150.241 327.99 148.657C327.17 147.016 326.465 145.319 325.88 143.58C324.642 140.018 323.992 136.278 323.956 132.508C323.841 124.706 326.282 117.081 330.907 110.797C333.128 107.748 335.828 105.077 338.901 102.89C341.819 100.719 345.073 99.0421 348.534 97.9245C349.363 97.6118 350.213 97.3588 351.079 97.1673C351.935 96.9686 352.779 96.7328 353.636 96.5714C355.331 96.2824 357.044 96.1082 358.762 96.0501C365.223 95.8191 371.629 97.3145 377.32 100.382C381.816 102.829 385.74 106.202 388.835 110.278C391.929 114.355 394.122 119.042 395.27 124.029C396.065 127.419 396.337 130.91 396.077 134.382C396.013 135.633 395.856 136.878 395.605 138.106C395.505 138.652 395.431 139.161 395.332 139.608L394.997 140.849C394.798 141.544 394.637 142.091 394.525 142.488C394.473 142.69 394.398 142.886 394.301 143.071Z" fill="#263238"/>
<g opacity="0.3">
<path d="M393.917 143.307C393.706 143.307 394.041 141.706 394.339 138.913C394.752 135.001 394.564 131.049 393.78 127.195C393.231 124.568 392.398 122.008 391.297 119.561C389.335 115.26 386.528 111.397 383.043 108.203C380.457 105.84 377.527 103.886 374.353 102.406C372.691 101.637 370.973 100.994 369.214 100.482C367.451 99.9909 365.655 99.63 363.839 99.4017C360.362 99.0002 356.843 99.1174 353.4 99.7493C351.778 100.043 350.181 100.458 348.621 100.991C345.715 101.974 342.948 103.33 340.391 105.025C338.137 106.516 336.056 108.252 334.184 110.201C331.482 113.058 329.238 116.316 327.531 119.859C326.289 122.341 325.768 123.881 325.557 123.819C325.346 123.756 325.557 122.18 326.55 119.449C327.951 115.579 330.055 112.002 332.757 108.898C334.625 106.74 336.741 104.811 339.063 103.151C341.744 101.253 344.666 99.7209 347.752 98.5949C349.43 97.9809 351.152 97.4954 352.903 97.1425C356.607 96.3888 360.407 96.2254 364.162 96.6584C366.12 96.8994 368.058 97.2853 369.959 97.8128C371.857 98.3607 373.708 99.058 375.495 99.8983C377.225 100.715 378.885 101.669 380.461 102.753C381.995 103.794 383.44 104.961 384.78 106.241C386.076 107.449 387.276 108.757 388.368 110.152C392.192 114.985 394.706 120.722 395.667 126.81C396.318 130.87 396.217 135.014 395.369 139.037C394.761 141.905 394.066 143.357 393.917 143.307Z" fill="black"/>
</g>
<g opacity="0.3">
<path d="M370.232 144.697L365.701 148.421C364.895 148.695 364.237 148.421 361.084 146.088C360.314 145.529 359.47 144.846 358.527 144.263C359.438 142.186 360.14 140.024 360.624 137.808C360.723 137.276 360.777 136.736 360.786 136.194L366.235 137.659L368.321 129.926L358.539 127.294C358.23 126.323 358.01 125.326 357.881 124.315C357.824 123.148 358.016 121.982 358.444 120.895C358.872 119.808 359.527 118.824 360.364 118.009C361.915 116.681 364.15 116.395 366.98 117.165C367.859 117.336 368.693 117.685 369.432 118.191C370.171 118.697 370.798 119.349 371.275 120.107C372.926 122.974 371.908 127.009 371.896 127.058L371.622 128.064L379.331 130.211L379.617 129.181C379.691 128.895 381.578 122.006 378.251 116.172C377.261 114.481 375.936 113.01 374.356 111.851C372.776 110.692 370.976 109.868 369.065 109.432C362.176 107.582 357.707 109.754 355.175 111.914C353.361 113.552 351.94 115.578 351.018 117.841C350.096 120.104 349.696 122.546 349.85 124.985L346.908 124.191L344.872 131.899L352.32 133.898C352.619 134.662 352.775 135.474 352.779 136.294C352.444 137.805 351.966 139.28 351.352 140.7C349.101 140.221 346.758 140.461 344.651 141.385C342.544 142.309 340.78 143.872 339.609 145.852L339.075 146.758L345.964 150.805L346.511 149.911C347.243 148.67 348.695 147.652 351.476 149.253C353.164 150.255 354.793 151.353 356.354 152.543C358.287 154.17 360.499 155.432 362.884 156.267C364.249 156.647 365.687 156.687 367.072 156.384C368.456 156.082 369.746 155.444 370.828 154.529L375.371 150.867L370.232 144.697Z" fill="white"/>
</g>
<path d="M484.831 232.323C488.347 240.948 489.226 250.422 487.355 259.546C485.485 268.671 480.949 277.035 474.323 283.581C467.696 290.127 459.277 294.559 450.13 296.318C440.983 298.076 431.52 297.082 422.939 293.46C414.358 289.838 407.044 283.751 401.924 275.971C396.803 268.19 394.106 259.065 394.174 249.751C394.242 240.437 397.071 231.353 402.304 223.647C407.537 215.942 414.939 209.963 423.572 206.466C429.292 204.14 435.414 202.964 441.588 203.005C447.763 203.046 453.869 204.303 459.558 206.704C465.247 209.105 470.406 212.603 474.743 216.999C479.079 221.395 482.507 226.602 484.831 232.323Z" fill="#0169D8"/>
<path d="M474.441 236.518C477.116 243.088 477.783 250.304 476.357 257.254C474.931 264.203 471.475 270.573 466.428 275.558C461.381 280.543 454.968 283.919 448.002 285.259C441.036 286.599 433.828 285.843 427.292 283.086C420.755 280.33 415.183 275.696 411.28 269.772C407.378 263.848 405.32 256.9 405.367 249.806C405.413 242.712 407.563 235.791 411.544 229.92C415.525 224.048 421.158 219.488 427.73 216.818C432.091 215.043 436.758 214.145 441.466 214.175C446.173 214.204 450.829 215.161 455.167 216.99C459.505 218.82 463.44 221.486 466.747 224.837C470.054 228.187 472.669 232.157 474.441 236.518Z" fill="#0169D8"/>
<path d="M474.441 236.518C474.325 236.361 474.23 236.19 474.156 236.009L473.398 234.482L472.865 233.353C472.641 232.955 472.356 232.521 472.083 232.111C471.463 231.016 470.766 229.966 469.997 228.971C467.95 226.2 465.503 223.748 462.735 221.697C456.13 216.733 448.004 214.22 439.749 214.589C431.495 214.958 423.625 218.186 417.489 223.72C416.237 224.851 415.059 226.062 413.964 227.345C413.418 228.003 412.934 228.71 412.412 229.393C411.878 230.077 411.401 230.804 410.985 231.565C410.054 233.068 409.225 234.632 408.502 236.245C407.828 237.907 407.264 239.611 406.814 241.347C405.886 244.922 405.534 248.622 405.771 252.308C406.225 259.952 409.178 267.235 414.175 273.038C416.562 275.855 419.387 278.269 422.541 280.188C424.075 281.117 425.667 281.947 427.308 282.67C428.945 283.332 430.625 283.884 432.335 284.321C434.004 284.756 435.7 285.075 437.412 285.277C439.092 285.434 440.779 285.479 442.465 285.414C450.717 285.104 458.606 281.941 464.788 276.466C470.97 270.99 475.061 263.541 476.365 255.386C476.931 251.987 476.981 248.522 476.514 245.108C476.374 243.852 476.146 242.608 475.831 241.384C475.707 240.85 475.608 240.354 475.484 239.907C475.36 239.46 475.211 239.075 475.087 238.666C474.875 237.983 474.702 237.424 474.565 237.052C474.497 236.867 474.447 236.676 474.416 236.481C474.502 236.654 474.577 236.832 474.64 237.015L475.235 238.616C475.36 238.976 475.509 239.373 475.67 239.857C475.831 240.341 475.906 240.788 476.042 241.322C476.39 242.542 476.643 243.787 476.8 245.046C477.33 248.485 477.33 251.985 476.8 255.423C476.125 259.997 474.565 264.395 472.207 268.37C468.265 275.133 462.217 280.418 454.988 283.42C447.759 286.421 439.746 286.973 432.174 284.992C430.433 284.551 428.724 283.991 427.06 283.316C425.378 282.579 423.748 281.729 422.181 280.771C418.952 278.825 416.063 276.364 413.629 273.485C408.521 267.559 405.507 260.117 405.051 252.308C404.802 248.55 405.167 244.776 406.131 241.136C406.583 239.359 407.159 237.617 407.857 235.922C408.577 234.28 409.407 232.688 410.339 231.156C410.777 230.387 411.266 229.648 411.804 228.946C412.338 228.238 412.847 227.519 413.393 226.861C414.51 225.538 415.717 224.293 417.005 223.137C421.82 218.824 427.7 215.875 434.036 214.596C439.059 213.59 444.238 213.664 449.23 214.816C454.221 215.968 458.91 218.169 462.984 221.275C465.769 223.369 468.214 225.882 470.233 228.723C470.991 229.738 471.671 230.808 472.269 231.925C472.542 232.397 472.815 232.831 473.026 233.241L473.535 234.395C473.833 235.053 474.056 235.575 474.23 235.959C474.315 236.14 474.386 236.327 474.441 236.518Z" fill="#263238"/>
<g opacity="0.3">
<path d="M474.317 236.977C474.118 237.064 473.386 235.662 471.834 233.328C469.649 230.044 466.974 227.113 463.902 224.639C461.796 222.973 459.515 221.541 457.1 220.369C454.337 219.047 451.417 218.083 448.41 217.501C446.771 217.189 445.112 216.994 443.445 216.918C441.731 216.838 440.013 216.888 438.306 217.067C436.537 217.247 434.786 217.566 433.068 218.022C429.523 218.954 426.149 220.446 423.075 222.442C420.137 224.352 417.504 226.695 415.267 229.393C414.21 230.658 413.251 232.003 412.4 233.415C410.807 236.034 409.556 238.845 408.676 241.781C407.92 244.363 407.446 247.018 407.261 249.701C407.01 253.626 407.37 257.567 408.328 261.382C408.998 264.113 409.569 265.602 409.346 265.677C409.123 265.751 408.316 264.435 407.31 261.692C405.909 257.823 405.24 253.728 405.337 249.614C405.396 246.76 405.787 243.924 406.503 241.161C407.329 237.989 408.581 234.945 410.227 232.111C411.111 230.571 412.12 229.105 413.244 227.73C414.39 226.277 415.657 224.924 417.03 223.683C418.446 222.387 419.966 221.208 421.573 220.158C423.231 219.081 424.97 218.134 426.774 217.327C428.584 216.536 430.451 215.885 432.36 215.378C434.218 214.901 436.111 214.573 438.021 214.398C439.86 214.214 441.712 214.185 443.557 214.311C445.332 214.427 447.096 214.68 448.832 215.068C454.861 216.326 460.46 219.127 465.081 223.199C468.183 225.9 470.762 229.148 472.691 232.782C474.068 235.364 474.466 236.915 474.317 236.977Z" fill="black"/>
</g>
<g opacity="0.3">
<path d="M458.999 230.461H450.732L442.552 246.052H440.466L431.777 230.461L423.373 230.448L432.062 246.052H425.235V253.388H436.159L437.139 255.163H425.136V262.512H437.897V277.867H445.245V262.512H457.807V255.163H445.94L446.884 253.388H457.907V246.052H450.757L458.999 230.461Z" fill="white"/>
</g>
<path d="M406.366 531.24C406.366 531.24 382.024 503.224 372.85 475.207C363.677 447.191 368.034 450.381 368.034 450.381C368.034 450.381 380.447 477.603 389.844 490.748C399.241 503.894 416.023 523.184 416.023 523.184L406.366 531.24Z" fill="#455A64"/>
<path d="M411.22 454.762C411.052 454.48 410.793 454.265 410.485 454.151C410.177 454.038 409.839 454.034 409.529 454.141C409.219 454.247 408.955 454.457 408.781 454.735C408.607 455.013 408.535 455.343 408.576 455.669C410.065 465.512 413.28 488.601 413.144 503.584C412.982 523.047 413.144 530.57 413.144 530.57H423.273C423.273 530.57 421.473 490.339 419.189 478.074C417.588 469.472 414.186 459.926 411.22 454.762Z" fill="#455A64"/>
<path d="M416.744 527.293C420.993 517.673 423.804 507.48 425.085 497.042C425.917 489.879 424.427 480.197 422.218 467.25C421.377 462.526 420.962 457.736 420.976 452.938C420.975 452.401 421.154 451.879 421.484 451.455C421.813 451.031 422.275 450.729 422.796 450.598C423.317 450.467 423.866 450.513 424.358 450.73C424.849 450.947 425.254 451.322 425.507 451.796C426.749 453.98 430.274 461.441 431.168 466.108C433.65 478.869 436.406 485.249 434.283 497.34C432.161 509.43 424.353 528.087 424.353 528.087L416.744 527.293Z" fill="#455A64"/>
<path d="M425.867 528.112C425.867 528.112 452.605 470.676 454.418 462.148C456.23 453.62 462.573 433.995 463.305 435.1C464.038 436.205 465.167 446.582 460.351 458.449C455.535 470.316 435.003 529.85 435.003 529.85H425.867" fill="#455A64"/>
<path d="M413.814 525.542C413.554 525.39 413.305 525.22 413.069 525.034C412.597 524.674 411.828 524.165 410.996 523.445C408.498 521.454 406.103 519.337 403.821 517.102C396.289 509.694 389.765 501.325 384.419 492.213C379.089 483.107 374.658 473.503 371.187 463.539C369.846 459.728 368.866 456.6 368.22 454.44C367.897 453.36 367.674 452.503 367.513 451.957C367.418 451.67 367.352 451.375 367.314 451.076C367.438 451.349 367.542 451.631 367.624 451.92C367.823 452.54 368.096 453.36 368.444 454.402C369.139 456.55 370.181 459.653 371.572 463.439C375.14 473.343 379.607 482.899 384.916 491.99C390.251 501.031 396.693 509.371 404.094 516.816C406.962 519.659 409.407 521.781 411.145 523.271C411.989 524.016 412.684 524.512 413.144 524.934C413.385 525.116 413.609 525.32 413.814 525.542Z" fill="#263238"/>
<path d="M416.743 497.985C416.615 497.431 416.536 496.866 416.508 496.297C416.371 495.056 416.21 493.566 416.011 491.692C415.589 487.807 414.931 482.456 413.988 476.56C413.044 470.664 411.977 465.388 411.17 461.553C410.773 459.715 410.438 458.201 410.189 457.034C410.046 456.484 409.947 455.924 409.891 455.358C410.113 455.878 410.284 456.419 410.4 456.972C410.711 458.027 411.095 459.566 411.555 461.466C412.473 465.277 413.59 470.565 414.546 476.473C415.502 482.382 416.098 487.757 416.408 491.655C416.57 493.604 416.681 495.192 416.731 496.285C416.778 496.85 416.783 497.419 416.743 497.985Z" fill="#263238"/>
<path d="M423 451.374C423.135 451.604 423.243 451.85 423.322 452.106C423.521 452.652 423.794 453.347 424.117 454.241C424.44 455.135 424.886 456.302 425.271 457.655C425.656 459.008 426.177 460.534 426.513 462.26L427.183 464.966C427.406 465.897 427.568 466.89 427.766 467.92C428.201 469.956 428.474 472.166 428.797 474.487C429.368 479.538 429.584 484.624 429.442 489.706C429.22 494.788 428.643 499.848 427.717 504.85C427.22 507.146 426.798 509.331 426.215 511.329C425.929 512.335 425.706 513.315 425.408 514.246C425.11 515.177 424.837 516.046 424.564 516.89C424.055 518.591 423.422 520.068 422.938 521.384C422.453 522.7 421.969 523.867 421.547 524.711C421.125 525.555 420.84 526.262 420.591 526.784C420.487 527.027 420.366 527.263 420.231 527.491C420.29 527.23 420.377 526.976 420.492 526.734L421.336 524.624C421.733 523.718 422.18 522.6 422.578 521.272C422.975 519.944 423.633 518.467 424.117 516.766C424.377 515.922 424.651 515.041 424.924 514.122C425.197 513.204 425.42 512.223 425.693 511.218C426.252 509.219 426.661 507.034 427.133 504.75C428.03 499.775 428.589 494.744 428.809 489.693C428.954 484.637 428.755 479.578 428.213 474.549C427.903 472.24 427.655 470.031 427.245 468.007C427.046 466.989 426.897 465.996 426.686 465.053C426.475 464.109 426.264 463.216 426.066 462.359C425.706 460.621 425.222 459.107 424.824 457.754C424.427 456.401 424.092 455.271 423.769 454.315C423.446 453.36 423.248 452.689 423.074 452.143C423.033 451.889 423.008 451.631 423 451.374Z" fill="#263238"/>
<path d="M463.045 436.254C463.05 436.341 463.05 436.428 463.045 436.515L462.921 437.26C462.809 437.918 462.66 438.886 462.399 440.115C461.878 442.598 461.021 446.148 459.681 450.455C458.34 454.762 456.528 459.839 454.368 465.351C452.208 470.862 449.7 476.97 447.33 483.425C444.959 489.879 443.059 496.148 441.322 501.858C439.584 507.568 437.945 512.682 436.356 516.915C435.131 520.263 433.722 523.541 432.136 526.734C431.59 527.876 431.093 528.72 430.77 529.304L430.398 529.962C430.361 530.037 430.316 530.108 430.261 530.173C430.261 530.173 430.261 530.086 430.348 529.937L430.671 529.254C430.957 528.646 431.416 527.789 431.912 526.635C432.98 524.363 434.395 521.012 435.947 516.766C437.498 512.521 439.075 507.419 440.775 501.697C442.476 495.974 444.338 489.681 446.759 483.226C449.179 476.771 451.649 470.713 453.834 465.165C456.019 459.616 457.881 454.589 459.259 450.269C460.637 445.949 461.568 442.449 462.139 439.991C462.436 438.749 462.623 437.806 462.772 437.161C462.846 436.875 462.908 436.627 462.945 436.428C462.973 436.367 463.006 436.309 463.045 436.254Z" fill="#263238"/>
<path d="M380.621 423.568C380.249 423.243 379.782 423.046 379.289 423.007C378.796 422.968 378.303 423.09 377.885 423.353C377.466 423.617 377.144 424.009 376.966 424.47C376.788 424.931 376.764 425.438 376.897 425.914C377.811 428.885 378.931 431.789 380.249 434.604C383.973 442.411 394.722 470.428 399.775 485.82C404.827 501.213 411.94 529.912 411.94 529.912L422.739 528.162C422.739 528.162 412.809 480.992 403.213 463.998C395.405 450.294 387.659 430.544 380.621 423.568Z" fill="#455A64"/>
<path d="M402.667 495.391C402.888 495.787 403.071 496.202 403.213 496.632C403.536 497.477 403.97 498.718 404.454 500.257C405.447 503.336 406.664 507.631 407.88 512.41C409.097 517.189 410.127 521.533 410.835 524.686C411.158 526.176 411.431 527.43 411.642 528.41C411.769 528.864 411.844 529.33 411.865 529.801C411.677 529.369 411.531 528.92 411.431 528.46C411.17 527.479 410.835 526.238 410.438 524.736C409.618 521.484 408.538 517.288 407.334 512.497C406.13 507.705 404.951 503.422 404.07 500.319C403.635 498.867 403.275 497.638 402.99 496.595C402.846 496.204 402.738 495.801 402.667 495.391Z" fill="#263238"/>
<path d="M417.302 528.993C417.271 528.896 417.25 528.797 417.24 528.695L417.116 527.851C417.004 527.107 416.905 526.002 416.681 524.587C416.284 521.744 415.577 517.66 414.41 512.682C413.035 506.85 411.353 501.095 409.37 495.44C407.148 489.048 404.405 482.146 401.227 474.996C394.884 460.721 388.541 448.047 384.37 438.687C382.272 434.007 380.646 430.197 379.566 427.515C379.02 426.2 378.622 425.157 378.325 424.449C378.2 424.127 378.101 423.853 378.027 423.642C377.985 423.552 377.956 423.456 377.94 423.357C377.999 423.436 378.046 423.524 378.076 423.618C378.176 423.829 378.287 424.089 378.436 424.4L379.678 427.428C380.82 430.06 382.508 433.846 384.643 438.489C388.901 447.811 395.293 460.435 401.649 474.735C404.802 481.898 407.57 488.824 409.767 495.242C411.745 500.938 413.402 506.74 414.732 512.62C415.634 516.566 416.33 520.556 416.818 524.574C417.017 526.002 417.079 527.057 417.153 527.864C417.153 528.211 417.153 528.497 417.228 528.72C417.266 528.807 417.291 528.899 417.302 528.993Z" fill="#263238"/>
<path d="M422.677 528.112C422.497 527.521 422.372 526.914 422.305 526.3C422.094 525.059 421.808 523.358 421.473 521.335C420.728 517.164 419.586 511.404 417.96 505.135C416.334 498.867 414.522 493.281 413.119 489.271L411.431 484.53C411.197 483.961 411.006 483.376 410.86 482.779C411.163 483.317 411.425 483.877 411.642 484.455C412.101 485.547 412.759 487.149 413.504 489.135C415.441 494.326 417.098 499.618 418.469 504.987C419.862 510.356 420.985 515.791 421.833 521.273C422.131 523.383 422.367 525.084 422.491 526.238C422.597 526.858 422.659 527.484 422.677 528.112Z" fill="#263238"/>
<path d="M444.822 526.561H402.704V577.877H444.822V526.561Z" fill="#0169D8"/>
<g opacity="0.3">
<path d="M444.822 526.561H402.704V577.877H444.822V526.561Z" fill="black"/>
</g>
<path d="M431.379 526.561H394.015V577.877H431.379V526.561Z" fill="#0169D8"/>
<path d="M187.39 358.861L172.73 425.892L130.227 470.493L160.093 539.374L148.226 558.527C148.226 558.527 84.2731 487.3 86.0358 469.736C89.0646 439.137 153.924 374.973 168.509 362.92C173.412 358.861 187.39 358.861 187.39 358.861Z" fill="#FFBE9D"/>
<path d="M107.908 460.475C107.908 460.637 109.41 460.475 111.743 460.674C117.897 461.203 123.61 464.084 127.694 468.718C129.246 470.48 129.991 471.771 130.177 471.684C129.804 470.423 129.16 469.258 128.29 468.271C126.336 465.747 123.843 463.69 120.994 462.252C118.144 460.813 115.009 460.028 111.818 459.954C110.492 459.836 109.156 460.014 107.908 460.475Z" fill="#FDE0CC"/>
<path d="M185.677 369.238C185.677 369.238 173.04 406.59 172.68 427.58C172.506 437.412 176.9 493.854 176.9 523.522L155.972 578.947H329.608L310.591 516.819L326.157 404.504L303.292 377.642L185.677 369.238Z" fill="#63A0CF"/>
<path d="M271.166 213.514C278.031 206.898 293.746 208.996 297.234 213.874C300.117 212.74 303.326 212.758 306.196 213.925C309.067 215.092 311.378 217.319 312.651 220.143L329.198 224.922C332.028 225.741 334.983 226.623 337.056 228.708C339.129 230.794 339.923 234.456 337.949 236.64C343.771 238.564 345.509 247.527 340.842 251.536C341.365 252.23 341.741 253.023 341.946 253.867C342.152 254.711 342.183 255.588 342.038 256.445C341.893 257.301 341.574 258.119 341.102 258.848C340.629 259.577 340.013 260.202 339.29 260.685C343.57 266.563 346.815 273.129 348.885 280.099C349.742 283.004 350.375 286.231 349.134 288.999C347.892 291.767 344.032 293.48 341.686 291.482C342.433 292.702 342.813 294.113 342.78 295.543C342.747 296.974 342.303 298.366 341.499 299.55C344.342 299.811 344.901 304.255 342.815 306.191C340.73 308.128 337.54 308.14 334.697 307.892C331.854 307.644 328.801 307.284 326.355 308.749C326.357 309.097 326.43 309.442 326.568 309.762C326.707 310.082 326.909 310.371 327.162 310.611C331.78 314.906 332.723 321.782 328.726 326.748C328.354 327.207 328.006 327.617 327.708 327.989C325.909 330.211 321.7 332.085 319.081 333.24C312.428 336.169 308.654 335.276 301.405 335.847C303.056 340.601 290.742 350.072 278.08 339.136C251.007 344.536 231.667 345.988 204.123 344.25C200.188 344.002 195.508 343.158 193.993 339.521C190.754 340.166 187.414 338.453 185.205 335.996C183.144 333.392 181.548 330.453 180.488 327.306C177.156 326.1 174.28 323.892 172.255 320.984C170.23 318.077 169.155 314.613 169.179 311.07C166.996 309.103 165.247 306.703 164.041 304.023C162.836 301.343 162.202 298.442 162.178 295.504C155.699 293.021 152.62 284.232 156.17 278.274C158.125 270.242 161.401 262.59 165.865 255.632C161.421 254.391 160.118 248.185 162.253 244.076C164.388 239.967 168.658 237.534 172.705 235.312C169.279 235.982 166.622 231.588 167.653 228.224C168.683 224.86 171.873 222.75 174.989 221.149C179.545 218.81 184.367 217.03 189.351 215.848C191.349 210.014 199.368 203.77 205.091 201.498C228.179 192.375 244.043 190.724 271.204 213.502" fill="#263238"/>
<path d="M205.513 295.938C204.714 294.902 203.674 294.075 202.484 293.53H202.732C202.515 293.449 202.29 293.387 202.062 293.344C201.663 293.193 201.238 293.124 200.812 293.139C200.386 293.154 199.967 293.253 199.579 293.431C198.132 293.811 196.879 294.718 196.066 295.975C195.423 297.098 195.099 298.374 195.13 299.668C195.161 300.961 195.545 302.221 196.24 303.311C196.729 304.29 197.503 305.097 198.46 305.626C199.417 306.156 200.511 306.383 201.6 306.279C202.688 306.174 203.72 305.742 204.558 305.039C205.396 304.337 206.002 303.397 206.295 302.343C206.716 301.296 206.866 300.16 206.729 299.04C206.592 297.92 206.174 296.853 205.513 295.938Z" fill="#63A0CF"/>
<path d="M206.009 252.095C208.815 236.802 221.265 219.101 236.434 222.539L282.959 240.34C285.181 240.846 287.133 242.167 288.429 244.043C289.725 245.918 290.271 248.211 289.96 250.469L276.169 353.039C275.294 359.52 272.209 365.501 267.435 369.97C262.66 374.439 256.489 377.123 249.964 377.568C245.912 377.841 241.847 377.242 238.046 375.81C234.245 374.378 230.795 372.147 227.93 369.268C225.065 366.388 222.851 362.928 221.437 359.119C220.024 355.311 219.445 351.244 219.738 347.192C220.26 340.117 220.644 334.779 220.644 334.779C220.644 334.779 201.329 329.181 200.299 303.001C199.778 289.968 202.906 269.101 206.009 252.095Z" fill="#FFBE9D"/>
<path d="M216.039 272.713C215.925 273.574 216.152 274.445 216.671 275.141C217.191 275.837 217.962 276.302 218.82 276.437C219.233 276.516 219.658 276.512 220.07 276.425C220.482 276.338 220.873 276.17 221.219 275.931C221.565 275.692 221.861 275.387 222.088 275.032C222.316 274.678 222.471 274.282 222.544 273.868C222.665 273.006 222.44 272.131 221.92 271.434C221.399 270.736 220.624 270.273 219.763 270.144C219.349 270.063 218.924 270.066 218.511 270.152C218.099 270.238 217.708 270.406 217.361 270.645C217.014 270.885 216.718 271.191 216.491 271.546C216.264 271.901 216.111 272.298 216.039 272.713Z" fill="#263238"/>
<path d="M211.509 262.783C211.856 263.254 214.575 261.703 218.125 262.137C221.675 262.572 224.058 264.62 224.493 264.26C224.704 264.086 224.381 263.254 223.338 262.298C221.934 261.053 220.177 260.276 218.311 260.077C216.466 259.844 214.595 260.209 212.973 261.119C211.782 261.777 211.322 262.509 211.509 262.783Z" fill="#263238"/>
<path d="M250.436 275.878C250.319 276.742 250.546 277.616 251.069 278.313C251.592 279.01 252.368 279.473 253.229 279.602C253.642 279.685 254.067 279.683 254.48 279.599C254.892 279.514 255.284 279.348 255.631 279.109C255.978 278.871 256.274 278.566 256.501 278.211C256.728 277.857 256.882 277.46 256.953 277.045C257.071 276.186 256.847 275.314 256.329 274.618C255.812 273.922 255.042 273.456 254.185 273.321C253.771 273.24 253.345 273.243 252.931 273.328C252.518 273.413 252.125 273.579 251.777 273.817C251.428 274.055 251.13 274.359 250.9 274.713C250.67 275.067 250.512 275.463 250.436 275.878Z" fill="#263238"/>
<path d="M245.123 267.015C245.483 267.499 248.202 265.948 251.74 266.37C255.277 266.792 257.673 268.852 258.107 268.492C258.319 268.319 257.996 267.499 256.953 266.544C255.552 265.292 253.794 264.51 251.926 264.309C250.08 264.086 248.21 264.455 246.588 265.364C245.409 266.072 244.937 266.804 245.123 267.015Z" fill="#263238"/>
<path d="M228.092 293.096C228.092 292.897 225.982 292.264 222.457 291.383C221.563 291.172 220.731 290.899 220.657 290.266C220.686 289.319 221.006 288.404 221.575 287.646L225.064 281.067C229.954 271.695 233.591 263.937 233.219 263.751C232.847 263.565 228.576 271 223.698 280.372C222.457 282.694 221.377 284.891 220.309 287.001C219.608 288.026 219.291 289.266 219.416 290.501C219.508 290.836 219.676 291.146 219.906 291.406C220.136 291.666 220.423 291.871 220.744 292.003C221.228 292.203 221.738 292.337 222.258 292.401C225.796 293.021 228.018 293.294 228.092 293.096Z" fill="#263238"/>
<path d="M220.645 334.779C232.718 336.397 245.005 334.631 256.134 329.677C256.134 329.677 245.694 346.336 220.272 340.849L220.645 334.779Z" fill="#FDE0CC"/>
<path d="M227.584 301.599C228.522 300.524 229.706 299.693 231.036 299.176C232.365 298.659 233.8 298.473 235.218 298.632C236.143 298.752 237.024 299.096 237.786 299.635C238.548 300.174 239.166 300.89 239.587 301.723C240.048 302.683 240.205 303.76 240.039 304.812C239.873 305.864 239.391 306.84 238.657 307.612C237.923 308.384 236.972 308.914 235.93 309.132C234.888 309.351 233.804 309.247 232.822 308.835C230.923 307.959 229.263 306.64 227.981 304.987C227.558 304.576 227.232 304.075 227.025 303.523C226.92 303.223 226.897 302.9 226.958 302.588C227.019 302.276 227.162 301.986 227.373 301.748" fill="#FDE0CC"/>
<path d="M238.209 296.782C237.638 296.683 237.166 300.506 233.554 302.877C229.942 305.248 225.883 304.305 225.796 304.838C225.709 305.074 226.615 305.695 228.341 305.956C230.593 306.253 232.878 305.747 234.796 304.528C236.635 303.356 237.945 301.512 238.445 299.389C238.793 297.8 238.47 296.795 238.209 296.782Z" fill="#263238"/>
<path d="M244.229 253.547C244.465 254.553 248.065 254.516 252.162 255.509C256.258 256.502 259.498 257.991 260.143 257.234C260.441 256.849 259.969 255.869 258.716 254.751C257.041 253.391 255.078 252.431 252.977 251.945C250.875 251.459 248.69 251.459 246.588 251.946C244.974 252.405 244.105 253.063 244.229 253.547Z" fill="#263238"/>
<path d="M211.955 251.486C212.489 252.355 215.034 251.809 217.976 252.119C220.918 252.43 223.338 253.361 224.008 252.529C224.306 252.157 224.009 251.288 223.015 250.406C221.671 249.303 220.02 248.64 218.286 248.507C216.561 248.334 214.826 248.703 213.321 249.562C212.166 250.27 211.732 251.052 211.955 251.486Z" fill="#263238"/>
<path d="M193.522 263.639C193.915 259.562 195.714 255.748 198.611 252.852C200.237 251.337 202.248 250.245 203.725 248.582C206.903 244.982 206.891 239.657 208.455 235.126C209.498 232.201 211.223 229.567 213.488 227.443C215.752 225.319 218.491 223.765 221.476 222.911C226.442 221.533 231.916 222.166 236.633 220.093C240.108 218.554 242.839 215.662 246.464 214.334C253.415 211.752 260.963 215.774 267.045 220.019C267.939 225.158 264.413 229.292 261.037 233.264C259.321 235.233 257.198 236.808 254.815 237.879C252.433 238.951 249.846 239.493 247.234 239.47C243.187 239.47 238.544 238.155 235.516 240.823C232.487 243.492 233.033 249.041 230.376 252.331C226.516 257.023 218.683 254.552 213.221 257.234C209.013 259.307 207.015 264.011 204.607 268.083C202.198 272.154 198.4 276.3 193.758 275.729C193.218 271.721 193.139 267.665 193.522 263.639Z" fill="#263238"/>
<path d="M256.32 228.473C268.137 229.171 279.707 232.147 290.394 237.236C293.572 238.751 296.824 240.625 298.475 243.741C299.915 246.472 299.878 249.724 299.617 252.815C298.798 262.46 294.031 273.992 289.687 282.607L277.087 288.937C267.964 286.058 273.363 270.318 274.443 262.336C271.322 260.62 268.744 258.064 267.002 254.957C265.259 251.85 264.423 248.317 264.587 244.759C262.077 242.837 260.031 240.375 258.6 237.556C257.17 234.738 256.39 231.633 256.32 228.473Z" fill="#263238"/>
<path d="M277.522 285.536C278.304 280.037 285.156 279.466 289.699 282.656C292.182 284.406 293.92 287.621 293.15 293.481C291.114 309.059 275.896 303.796 275.933 303.337C275.97 302.877 276.628 291.966 277.522 285.536Z" fill="#FFBE9D"/>
<path d="M281.469 298.061C281.544 298.061 281.717 298.297 282.152 298.558C282.759 298.925 283.486 299.036 284.175 298.868C285.901 298.483 287.626 296.05 288.073 293.257C288.283 291.927 288.199 290.566 287.825 289.273C287.743 288.766 287.538 288.288 287.229 287.879C286.919 287.47 286.515 287.143 286.05 286.926C285.75 286.803 285.417 286.789 285.108 286.886C284.8 286.984 284.535 287.187 284.361 287.46C284.088 287.857 284.15 288.193 284.064 288.205C283.977 288.217 283.766 287.895 283.977 287.274C284.112 286.901 284.37 286.586 284.709 286.38C285.18 286.113 285.737 286.041 286.261 286.182C286.878 286.394 287.43 286.761 287.865 287.248C288.3 287.735 288.602 288.325 288.743 288.962C289.229 290.399 289.357 291.933 289.116 293.431C288.607 296.559 286.633 299.278 284.275 299.638C283.831 299.709 283.378 299.68 282.948 299.551C282.518 299.422 282.122 299.197 281.792 298.893C281.469 298.446 281.407 298.086 281.469 298.061Z" fill="#FDE0CC"/>
<path d="M289.947 302.207C289.145 301.173 288.106 300.347 286.919 299.799H287.167C286.948 299.72 286.724 299.657 286.496 299.613C286.089 299.454 285.653 299.38 285.215 299.394C284.778 299.409 284.348 299.513 283.952 299.699C282.504 300.08 281.251 300.987 280.439 302.244C279.796 303.366 279.472 304.643 279.502 305.937C279.533 307.23 279.917 308.49 280.613 309.58C281.102 310.559 281.875 311.366 282.832 311.895C283.789 312.425 284.884 312.652 285.972 312.547C287.061 312.443 288.092 312.011 288.93 311.308C289.768 310.606 290.374 309.666 290.667 308.612C291.094 307.57 291.252 306.437 291.126 305.318C291 304.198 290.595 303.129 289.947 302.207Z" fill="#63A0CF"/>
<path d="M282.711 304.764V304.975C282.73 305.19 282.785 305.399 282.872 305.596C283.226 306.354 283.825 306.97 284.573 307.346C285.754 307.969 287.052 308.34 288.383 308.439C289.209 308.518 290.04 308.518 290.866 308.439C291.825 308.377 292.768 308.163 293.659 307.805L293.485 307.706C293.604 309.046 294.067 310.332 294.83 311.44C295.593 312.548 296.63 313.439 297.84 314.028C299.049 314.617 300.39 314.882 301.733 314.799C303.076 314.716 304.374 314.286 305.501 313.553L305.241 313.491C305.664 314.234 306.365 314.778 307.189 315.005C308.02 315.253 308.904 315.253 309.734 315.005C310.6 314.757 311.36 314.229 311.894 313.503C312.426 312.771 312.767 311.918 312.887 311.02C313.087 309.14 312.617 307.25 311.559 305.683C310.465 304.093 309.181 302.642 307.736 301.363V301.723C308.415 301.359 309.011 300.858 309.485 300.251C309.96 299.644 310.303 298.945 310.491 298.198C310.908 296.672 310.869 295.059 310.38 293.555C309.821 292.04 308.978 290.646 307.897 289.446C306.81 288.242 305.649 287.106 304.421 286.045V286.368C305.026 285.801 305.505 285.114 305.828 284.351C306.151 283.587 306.31 282.765 306.296 281.936C306.307 280.237 305.81 278.572 304.868 277.157C303.043 274.451 300.226 272.813 297.631 271.273L297.743 271.559C298.268 269.959 298.398 268.256 298.121 266.595C297.843 264.934 297.167 263.365 296.151 262.022C295.134 260.68 293.807 259.604 292.284 258.887C290.76 258.169 289.085 257.832 287.403 257.904L287.626 258.19C287.977 256.864 288.019 255.476 287.75 254.131C287.481 252.786 286.908 251.521 286.075 250.432C285.344 249.389 284.397 248.516 283.298 247.874C282.199 247.231 280.974 246.833 279.707 246.708L279.88 246.919C279.945 245.586 279.704 244.256 279.177 243.03C278.65 241.803 277.851 240.714 276.839 239.843C275.981 239.049 274.971 238.437 273.871 238.042C272.77 237.647 271.601 237.479 270.434 237.547L270.595 237.721C270.615 236.292 270.283 234.881 269.627 233.612C269.082 232.485 268.352 231.457 267.467 230.571C266.09 229.119 264.269 228.167 262.291 227.864L261.695 227.778H261.149C260.814 227.758 260.478 227.758 260.143 227.778C259.631 227.842 259.125 227.946 258.629 228.088L257.723 228.398L257.425 228.51C257.532 228.502 257.636 228.477 257.735 228.435L258.641 228.175C259.139 228.048 259.645 227.957 260.156 227.902C260.487 227.882 260.818 227.882 261.149 227.902H261.683L262.266 227.989C264.172 228.326 265.915 229.276 267.231 230.695C268.089 231.573 268.794 232.588 269.317 233.699C269.937 234.925 270.252 236.284 270.235 237.658V237.832H270.409C271.532 237.77 272.656 237.937 273.713 238.323C274.769 238.709 275.736 239.307 276.554 240.079C277.516 240.917 278.276 241.962 278.777 243.136C279.278 244.31 279.507 245.582 279.446 246.857V247.055H279.632C280.84 247.183 282.007 247.569 283.052 248.188C284.098 248.807 284.997 249.645 285.69 250.643C286.493 251.687 287.044 252.902 287.3 254.194C287.556 255.486 287.511 256.819 287.167 258.091L287.08 258.389H287.39C289.005 258.305 290.615 258.618 292.082 259.299C293.548 259.979 294.826 261.008 295.805 262.295C296.783 263.582 297.433 265.088 297.697 266.683C297.962 268.278 297.832 269.913 297.321 271.447L297.259 271.621L297.42 271.72C300.015 273.26 302.758 274.873 304.496 277.468C305.385 278.802 305.856 280.37 305.849 281.974C305.866 282.735 305.722 283.49 305.427 284.192C305.131 284.894 304.692 285.525 304.136 286.045L303.925 286.219L304.136 286.393C306.532 288.54 308.952 290.787 309.933 293.704C310.393 295.119 310.428 296.639 310.032 298.074C309.869 298.759 309.563 299.403 309.136 299.963C308.708 300.523 308.168 300.987 307.549 301.326L307.264 301.462L307.487 301.686C308.896 302.935 310.147 304.353 311.211 305.906C312.21 307.395 312.649 309.189 312.453 310.971C312.399 311.804 312.099 312.603 311.59 313.266C311.082 313.929 310.389 314.426 309.598 314.695C308.88 314.972 308.09 315 307.354 314.775C306.618 314.55 305.979 314.085 305.538 313.453L305.452 313.28L305.278 313.379C304.101 314.137 302.736 314.555 301.336 314.586C299.936 314.616 298.555 314.259 297.346 313.553C296.342 312.938 295.492 312.101 294.862 311.107C294.231 310.113 293.837 308.988 293.709 307.818V307.644L293.547 307.706C292.681 308.06 291.763 308.274 290.829 308.339C290.003 308.42 289.172 308.42 288.346 308.339C287.05 308.255 285.784 307.913 284.622 307.334C283.887 306.977 283.289 306.388 282.922 305.658C282.711 305.062 282.711 304.764 282.711 304.764Z" fill="#63A0CF"/>
<path d="M343.535 292.388C343.786 292.111 344.007 291.807 344.193 291.482C344.745 290.554 345.104 289.524 345.248 288.453C345.495 286.742 345.172 284.998 344.33 283.488C343.76 282.478 342.985 281.599 342.055 280.906C341.125 280.214 340.061 279.723 338.93 279.466L339.042 279.665C339.76 277.045 339.458 274.251 338.197 271.844C337.519 270.493 336.553 269.307 335.367 268.369C334.073 267.459 332.692 266.677 331.246 266.035C330.53 265.677 329.869 265.217 329.285 264.67C328.721 264.094 328.297 263.398 328.043 262.634C327.46 261.095 327.373 259.295 326.604 257.669C325.789 255.954 324.481 254.522 322.846 253.557C321.211 252.593 319.325 252.14 317.43 252.256L317.678 252.529C318.085 250.649 318.054 248.7 317.589 246.834C317.124 244.967 316.237 243.232 314.996 241.762C313.755 240.291 312.193 239.126 310.431 238.354C308.669 237.583 306.753 237.226 304.831 237.311L305.079 237.596C305.457 235.526 305.234 233.39 304.438 231.442C303.642 229.494 302.305 227.814 300.585 226.6C298.865 225.387 296.834 224.69 294.732 224.593C292.629 224.496 290.543 225.002 288.718 226.052H288.967C287.518 224.449 285.739 223.179 283.753 222.328C281.993 221.526 280.136 220.955 278.229 220.627C275.147 220.074 271.99 220.074 268.907 220.627C266.926 220.944 265.01 221.581 263.234 222.514C262.767 222.757 262.318 223.035 261.894 223.346C261.596 223.545 261.459 223.656 261.459 223.656C261.459 223.656 262.08 223.247 263.296 222.614C265.081 221.738 266.99 221.144 268.957 220.851C272.012 220.359 275.13 220.409 278.167 221C280.042 221.333 281.866 221.909 283.592 222.713C285.534 223.571 287.267 224.842 288.669 226.437L288.781 226.561L288.917 226.474C290.671 225.473 292.675 224.994 294.692 225.092C296.71 225.19 298.657 225.862 300.306 227.029C301.955 228.195 303.237 229.808 304.001 231.678C304.765 233.548 304.98 235.596 304.62 237.584V237.869H304.918C306.771 237.78 308.621 238.118 310.323 238.857C312.026 239.597 313.535 240.718 314.735 242.133C315.935 243.549 316.793 245.222 317.243 247.023C317.693 248.823 317.723 250.703 317.331 252.517L317.256 252.827H317.579C319.373 252.729 321.156 253.164 322.703 254.079C324.25 254.994 325.49 256.347 326.268 257.966C327.001 259.543 327.1 261.318 327.721 262.932C328.01 263.754 328.486 264.497 329.111 265.104C329.726 265.68 330.419 266.165 331.172 266.544C332.604 267.165 333.972 267.926 335.256 268.816C336.398 269.711 337.33 270.847 337.986 272.142C339.221 274.466 339.535 277.169 338.868 279.714V279.876H339.029C340.125 280.113 341.16 280.577 342.066 281.237C342.973 281.898 343.731 282.74 344.292 283.711C345.132 285.182 345.472 286.885 345.261 288.565C345.133 289.623 344.804 290.647 344.292 291.581C343.746 292.078 343.535 292.376 343.535 292.388Z" fill="#63A0CF"/>
<path d="M193.621 285.722C193.733 285.538 193.806 285.333 193.833 285.119C193.861 284.905 193.844 284.688 193.782 284.481C193.629 283.964 193.348 283.494 192.963 283.116C192.423 282.626 191.79 282.25 191.101 282.011C190.255 281.714 189.456 281.296 188.73 280.77C187.935 280.085 187.382 279.162 187.154 278.138C186.882 276.953 186.835 275.728 187.017 274.526C187.166 273.284 187.476 271.882 187.576 270.417C187.824 267.463 186.781 264.359 186.26 261.033C185.973 259.317 186.028 257.563 186.421 255.869C186.616 254.984 187 254.153 187.546 253.431C188.093 252.709 188.789 252.113 189.587 251.685C191.388 250.965 193.273 250.473 195.197 250.221C196.222 250.021 197.204 249.648 198.102 249.116C199.007 248.537 199.75 247.738 200.262 246.795C201.167 244.862 201.866 242.84 202.347 240.762C202.638 239.739 203.077 238.765 203.651 237.87C204.248 236.993 205.122 236.341 206.133 236.02C207.572 235.742 209.04 235.646 210.503 235.734C211.264 235.736 212.02 235.606 212.737 235.35C213.455 235.075 214.089 234.617 214.574 234.021C215.394 232.823 216.042 231.515 216.498 230.136C216.99 228.862 217.748 227.707 218.72 226.747C219.643 225.827 220.745 225.108 221.958 224.633C223.171 224.159 224.469 223.941 225.771 223.992C228.21 224.111 230.514 225.143 232.226 226.884L232.425 227.082L232.561 226.834C233.596 224.972 235.017 223.354 236.731 222.089C238.444 220.823 240.408 219.94 242.492 219.498C244.225 219.132 246.012 219.107 247.755 219.424C249.237 219.671 250.663 220.184 251.963 220.938C254.28 222.309 256.039 224.454 256.928 226.996C256.989 227.125 257.043 227.257 257.09 227.393L257.152 227.529C257.152 227.529 257.152 227.529 257.152 227.38C257.152 227.231 257.065 227.145 257.015 226.971C256.853 226.434 256.65 225.912 256.407 225.407C255.477 223.463 253.997 221.836 252.149 220.727C250.829 219.944 249.378 219.406 247.867 219.138C246.092 218.791 244.266 218.791 242.492 219.138C240.365 219.585 238.358 220.481 236.605 221.765C234.852 223.049 233.393 224.693 232.325 226.586H232.648C230.867 224.756 228.458 223.669 225.908 223.545C224.546 223.49 223.187 223.717 221.916 224.21C220.646 224.703 219.49 225.453 218.522 226.412C217.504 227.414 216.709 228.62 216.188 229.95C215.747 231.273 215.12 232.527 214.326 233.674C213.865 234.2 213.29 234.613 212.644 234.882C211.999 235.151 211.3 235.268 210.602 235.226C209.098 235.13 207.587 235.23 206.109 235.523C205.004 235.88 204.051 236.597 203.402 237.559C202.797 238.49 202.337 239.507 202.037 240.576C201.561 242.623 200.875 244.615 199.989 246.522C199.517 247.403 198.83 248.15 197.99 248.694C197.136 249.192 196.205 249.544 195.235 249.737C193.271 250.001 191.349 250.509 189.512 251.251C188.635 251.7 187.881 252.356 187.315 253.163C186.778 253.942 186.387 254.813 186.161 255.732C185.747 257.478 185.696 259.291 186.012 261.057C186.558 264.434 187.601 267.487 187.377 270.367C187.29 271.795 186.992 273.148 186.856 274.451C186.672 275.692 186.731 276.957 187.03 278.175C187.284 279.247 187.876 280.209 188.718 280.919C189.48 281.452 190.316 281.87 191.2 282.16C191.88 282.372 192.507 282.727 193.037 283.203C193.411 283.541 193.693 283.968 193.857 284.444C193.938 284.885 193.854 285.34 193.621 285.722Z" fill="#63A0CF"/>
<path d="M165.033 259.282L165.207 259.009L165.704 258.165L167.566 254.888C168.385 253.473 169.303 251.685 170.594 249.761C171.947 247.522 173.905 245.71 176.242 244.535C177.558 243.939 179.048 243.592 180.562 243.046C181.35 242.778 182.101 242.411 182.797 241.953C183.523 241.462 184.12 240.802 184.534 240.029C185.391 238.453 185.552 236.616 186.272 234.989C186.601 234.158 187.178 233.447 187.923 232.954C188.733 232.486 189.613 232.155 190.53 231.973C191.503 231.779 192.455 231.492 193.373 231.116C194.338 230.691 195.142 229.969 195.669 229.056C196.749 227.231 196.91 225.084 197.444 223.098C197.667 222.089 198.089 221.135 198.686 220.292C199.334 219.489 200.268 218.968 201.292 218.84C203.378 218.567 205.538 219.448 207.846 219.249C209.009 219.135 210.105 218.652 210.975 217.872C211.786 217.132 212.507 216.298 213.122 215.389C213.708 214.495 214.346 213.637 215.034 212.819C215.688 212.011 216.544 211.389 217.516 211.019C219.44 210.3 221.526 210.908 223.413 211.504C225.292 212.239 227.307 212.56 229.321 212.447C231.205 212.117 233.014 211.449 234.659 210.473C236.179 209.576 237.784 208.832 239.45 208.251C242.519 207.46 245.753 207.589 248.748 208.624C251.23 209.457 253.492 210.84 255.364 212.67C256.758 214.074 257.93 215.681 258.84 217.437C259.391 218.561 259.852 219.728 260.218 220.925L260.516 221.856C260.537 221.965 260.575 222.069 260.627 222.167C260.619 222.056 260.594 221.947 260.553 221.844C260.553 221.608 260.416 221.285 260.305 220.888C259.98 219.671 259.544 218.487 259.001 217.35C258.117 215.558 256.956 213.917 255.563 212.484C253.674 210.604 251.381 209.177 248.86 208.313C245.799 207.229 242.487 207.074 239.339 207.867C237.644 208.452 236.01 209.2 234.46 210.101C232.857 211.04 231.101 211.687 229.272 212.013C227.317 212.117 225.364 211.791 223.549 211.057C222.568 210.734 221.564 210.485 220.545 210.312C219.476 210.13 218.378 210.224 217.355 210.585C216.326 210.993 215.416 211.655 214.711 212.509C213.991 213.328 213.395 214.235 212.762 215.116C212.176 216.022 211.484 216.855 210.702 217.598C209.901 218.306 208.897 218.74 207.834 218.84C205.687 219.038 203.527 218.157 201.255 218.443C200.112 218.585 199.07 219.169 198.35 220.069C197.709 220.956 197.257 221.966 197.022 223.035C196.488 225.084 196.302 227.194 195.309 228.894C194.821 229.721 194.088 230.376 193.211 230.769C192.318 231.139 191.391 231.422 190.443 231.613C189.485 231.805 188.566 232.158 187.725 232.656C186.907 233.193 186.275 233.969 185.912 234.878C185.168 236.603 185.019 238.428 184.212 239.905C183.374 241.292 182.044 242.311 180.488 242.76C179.011 243.306 177.496 243.666 176.143 244.287C173.767 245.509 171.783 247.376 170.421 249.674C169.179 251.635 168.248 253.398 167.454 254.863L165.666 258.177L165.22 259.046C165.149 259.118 165.087 259.197 165.033 259.282Z" fill="#63A0CF"/>
<path d="M182.871 244.163L182.586 244.101C182.298 244.067 182.007 244.11 181.742 244.225C181.252 244.488 180.834 244.868 180.527 245.332C180.219 245.795 180.031 246.327 179.979 246.881C179.924 247.672 179.982 248.466 180.153 249.24C180.353 250.139 180.42 251.064 180.351 251.983C180.169 253.016 179.719 253.983 179.048 254.788C178.365 255.682 177.521 256.551 176.826 257.631C176.418 258.186 176.144 258.827 176.025 259.506C175.907 260.184 175.947 260.881 176.143 261.541C176.54 262.907 177.385 264.098 177.807 265.489C178.112 266.955 177.846 268.482 177.062 269.759C176.354 271.137 175.374 272.465 174.666 274.004C174.285 274.782 174.053 275.624 173.983 276.487C173.929 277.382 174.064 278.279 174.381 279.118C175.124 280.755 176.013 282.321 177.037 283.798C178.075 285.274 178.519 287.087 178.278 288.875C177.729 290.672 176.966 292.398 176.007 294.014C175.569 294.9 175.299 295.86 175.212 296.844C175.175 297.828 175.357 298.807 175.746 299.712C176.578 301.382 177.603 302.948 178.8 304.379C179.911 305.741 180.731 307.317 181.208 309.009C181.51 310.69 181.925 312.349 182.449 313.975C182.766 314.769 183.258 315.482 183.889 316.06C184.522 316.597 185.245 317.017 186.024 317.301C186.743 317.575 187.448 317.885 188.134 318.232C188.769 318.607 189.349 319.066 189.86 319.598C190.782 320.67 191.558 321.86 192.169 323.135C192.802 324.377 193.41 325.544 194.068 326.624C195.261 328.613 197.069 330.16 199.219 331.03C200.825 331.696 202.56 331.993 204.296 331.899C205.384 331.835 206.456 331.605 207.474 331.216C207.83 331.078 208.174 330.912 208.504 330.72C207.168 331.3 205.739 331.636 204.284 331.713C202.58 331.777 200.884 331.459 199.319 330.782C197.24 329.911 195.498 328.392 194.353 326.45C193.696 325.382 193.112 324.191 192.504 322.962C191.881 321.651 191.088 320.428 190.145 319.325C189.612 318.762 189.002 318.277 188.333 317.885C187.64 317.514 186.922 317.191 186.186 316.916C185.454 316.651 184.773 316.26 184.175 315.762C183.592 315.222 183.142 314.555 182.859 313.813C182.333 312.188 181.918 310.529 181.617 308.848C181.135 307.094 180.289 305.462 179.135 304.056C177.963 302.651 176.959 301.114 176.143 299.476C175.778 298.64 175.612 297.731 175.659 296.82C175.737 295.895 175.99 294.994 176.404 294.163C177.386 292.514 178.162 290.751 178.713 288.912C178.886 287.956 178.826 286.973 178.539 286.045C178.246 285.173 177.85 284.34 177.36 283.562C176.352 282.108 175.475 280.567 174.741 278.957C174.43 278.168 174.299 277.32 174.356 276.474C174.417 275.655 174.631 274.855 174.989 274.116C175.672 272.626 176.64 271.298 177.36 269.87C178.192 268.502 178.463 266.866 178.117 265.302C177.695 263.825 176.801 262.646 176.416 261.367C176.232 260.757 176.191 260.113 176.297 259.484C176.402 258.855 176.651 258.26 177.025 257.743C177.695 256.7 178.527 255.819 179.209 254.9C179.904 254.043 180.366 253.021 180.55 251.933C180.599 250.991 180.516 250.047 180.302 249.128C180.121 248.377 180.05 247.603 180.091 246.832C180.132 246.301 180.3 245.789 180.581 245.337C180.862 244.886 181.247 244.508 181.704 244.237C182.078 244.1 182.483 244.074 182.871 244.163Z" fill="#63A0CF"/>
<path d="M343.175 291.842C343.588 291.888 344.004 291.888 344.417 291.842C345.621 291.696 346.781 291.294 347.818 290.663C349.501 289.679 350.788 288.138 351.455 286.306C351.886 285.086 352.044 283.787 351.917 282.5C351.791 281.213 351.383 279.97 350.722 278.858C349.88 277.618 348.915 276.466 347.843 275.419C346.669 274.327 345.76 272.981 345.186 271.484C344.763 269.811 344.98 268.04 345.794 266.519C346.514 264.88 347.557 263.316 348.277 261.554C349.058 259.558 349.413 257.421 349.32 255.28C349.227 253.139 348.687 251.041 347.736 249.121C346.785 247.201 345.442 245.501 343.796 244.13C342.149 242.758 340.233 241.746 338.173 241.159L338.297 241.544C339.088 240.578 339.637 239.437 339.898 238.217C340.139 236.987 340.139 235.723 339.898 234.493C339.671 233.242 339.225 232.04 338.582 230.943C337.907 229.84 337.07 228.844 336.1 227.988C333.214 225.593 329.816 223.894 326.169 223.023C322.75 222.111 319.218 221.692 315.68 221.782L315.916 222.018C315.976 220.532 315.737 219.05 315.213 217.659C314.689 216.268 313.891 214.997 312.867 213.92C311.842 212.843 310.611 211.983 309.248 211.391C307.885 210.799 306.416 210.487 304.93 210.473C303.146 210.54 301.382 210.866 299.692 211.442C298.882 211.668 298.049 211.797 297.209 211.826C296.411 211.827 295.62 211.68 294.875 211.392C293.452 210.786 292.11 210.007 290.878 209.071C289.702 208.213 288.421 207.508 287.067 206.973C285.807 206.508 284.486 206.232 283.145 206.154C280.865 205.992 278.583 206.419 276.516 207.395C274.991 208.144 273.618 209.171 272.47 210.424C271.752 211.203 271.131 212.065 270.62 212.993C270.446 213.31 270.293 213.637 270.161 213.974C270.161 213.974 270.335 213.651 270.694 213.03C271.231 212.137 271.864 211.304 272.581 210.548C273.738 209.339 275.105 208.351 276.616 207.631C278.645 206.663 280.89 206.236 283.133 206.389C284.44 206.481 285.728 206.761 286.956 207.221C288.281 207.754 289.533 208.454 290.68 209.306C291.931 210.263 293.294 211.063 294.739 211.69C295.528 212.007 296.372 212.163 297.222 212.149C298.082 212.131 298.937 212.005 299.766 211.777C301.42 211.214 303.147 210.896 304.893 210.833C306.723 210.865 308.515 211.356 310.106 212.261C311.792 213.239 313.179 214.659 314.117 216.368C315.055 218.076 315.51 220.008 315.432 221.956V222.204H315.68C319.172 222.12 322.659 222.538 326.033 223.445C329.622 224.279 332.97 225.931 335.814 228.274C336.736 229.096 337.531 230.049 338.173 231.104C338.783 232.156 339.204 233.307 339.414 234.505C339.637 235.678 339.637 236.883 339.414 238.055C339.17 239.199 338.655 240.268 337.912 241.171L337.676 241.457L338.024 241.556C340.029 242.118 341.894 243.095 343.498 244.422C345.103 245.75 346.411 247.399 347.339 249.264C348.266 251.128 348.792 253.167 348.884 255.247C348.975 257.328 348.628 259.404 347.867 261.343C347.197 263.105 346.167 264.682 345.385 266.308C344.55 267.895 344.334 269.734 344.776 271.472C345.371 273.018 346.314 274.407 347.532 275.531C348.602 276.555 349.563 277.686 350.4 278.907C351.05 279.984 351.456 281.19 351.589 282.44C351.722 283.691 351.579 284.955 351.169 286.144C350.532 287.939 349.296 289.461 347.669 290.452C346.656 291.088 345.524 291.51 344.342 291.693C343.535 291.842 343.163 291.817 343.175 291.842Z" fill="#263238"/>
<path d="M178.154 232.991C178.193 232.896 178.214 232.795 178.216 232.693L178.365 231.812C178.502 231.017 178.688 229.9 178.936 228.46C179.184 227.02 179.532 225.233 180.078 223.222C180.677 220.929 181.54 218.713 182.648 216.618C183.994 214.092 185.865 211.883 188.134 210.138C189.407 209.19 190.823 208.452 192.33 207.953C193.966 207.519 195.623 207.171 197.295 206.911C199.096 206.637 200.827 206.022 202.397 205.098C203.972 204.038 205.411 202.787 206.68 201.374C207.995 199.997 209.262 198.544 210.714 197.241C212.163 195.906 213.847 194.849 215.679 194.125C219.357 192.815 223.266 192.279 227.161 192.549C230.8 192.69 234.422 193.105 237.998 193.79C244.094 194.884 249.967 196.981 255.377 199.997C258.995 202.053 262.264 204.672 265.059 207.755C265.543 208.313 265.99 208.785 266.3 209.232C266.611 209.679 266.921 210.064 267.169 210.374L267.703 211.082L267.902 211.305C267.858 211.215 267.809 211.128 267.753 211.044L267.244 210.324L266.412 209.145C266.064 208.686 265.63 208.202 265.171 207.631C262.399 204.48 259.133 201.801 255.501 199.699C250.104 196.619 244.23 194.462 238.122 193.318C234.522 192.626 230.875 192.211 227.211 192.077C223.253 191.785 219.278 192.326 215.543 193.666C213.659 194.414 211.929 195.504 210.441 196.881C208.964 198.197 207.698 199.674 206.382 201.039C205.149 202.41 203.747 203.62 202.211 204.639C200.688 205.552 199.001 206.159 197.246 206.427C195.571 206.684 193.913 207.04 192.28 207.494C190.733 208.013 189.279 208.776 187.973 209.753C185.671 211.546 183.779 213.81 182.424 216.394C181.338 218.52 180.505 220.766 179.942 223.085C179.42 225.121 179.11 226.908 178.874 228.373C178.638 229.838 178.489 230.968 178.402 231.737C178.402 232.11 178.328 232.395 178.303 232.619C178.232 232.733 178.182 232.859 178.154 232.991Z" fill="#263238"/>
<path d="M174.716 371.919C174.716 371.919 178.44 357.88 179.681 357.88L218.956 347.95C218.956 347.95 232.4 362.759 248.252 361.095C264.103 359.432 277.001 346.46 277.001 346.46L320.782 356.912C323.947 357.545 329.744 359.556 335.268 367.463C341.475 376.276 373.948 422.193 373.948 422.193L323.538 446.337L172.63 422.454L174.716 371.919Z" fill="#63A0CF"/>
<path d="M179.681 357.88C179.681 357.88 166.299 359.245 149.889 376.611C141.374 385.673 117.739 410.499 117.739 410.499L162.427 452.295L179.681 425.681L179.321 379.926L179.681 357.88Z" fill="#63A0CF"/>
<path d="M375.015 371.547C375.909 370.827 371.986 356.502 371.986 356.502C371.986 356.502 382.376 340.427 382.649 335.238C382.922 330.05 378.553 319.424 378.553 319.424L348.761 312.162C348.761 312.162 339.191 329.007 337.291 334.978C335.392 340.948 340.568 361.169 340.568 361.169L345.608 371.547C345.608 371.547 360.827 382.955 375.015 371.547Z" fill="#FFBE9D"/>
<path d="M382.587 338.342C383.753 336.31 384.802 334.213 385.728 332.061C387.602 327.816 389.923 323.657 385.728 321.286C385.064 320.874 384.324 320.6 383.551 320.483C382.778 320.365 381.99 320.406 381.234 320.603C381.234 320.603 381.88 317.041 379.633 315.7C378.972 315.31 378.231 315.073 377.466 315.009C376.701 314.944 375.931 315.053 375.214 315.328C375.214 315.328 375.934 310.288 372.731 308.153C371.499 307.392 370.088 306.97 368.64 306.931C367.192 306.892 365.76 307.236 364.489 307.93C364.489 307.93 367.046 285.871 367.269 284.704C368.088 280.422 366.413 276.623 361.919 277.679C360.268 278.063 359.35 279.714 357.426 286.902C355.501 294.089 352.386 306.341 352.386 306.341C352.386 306.341 347.16 315.03 344.69 319.648C342.219 324.265 337.341 334.978 336.931 337.796C335.876 345.095 340.382 354.752 340.382 354.752L372.023 356.502C372.023 356.502 381.383 340.427 382.587 338.342Z" fill="#FFBE9D"/>
<path d="M380.613 321.559C379.701 322.576 378.871 323.663 378.131 324.811L375.648 328.424C375.128 329.135 374.671 329.891 374.283 330.683C373.84 331.57 373.708 332.58 373.91 333.55C374.016 334.065 374.257 334.542 374.608 334.933C374.959 335.323 375.408 335.613 375.909 335.772C376.866 336.004 377.874 335.885 378.751 335.437C379.493 335.093 380.2 334.677 380.862 334.196C381.482 333.774 382.103 333.364 382.562 332.954C383.593 332.197 384.387 331.552 384.933 331.08C385.479 330.608 385.74 330.335 385.715 330.298C385.69 330.261 384.4 331.179 382.289 332.607C381.106 333.456 379.861 334.215 378.565 334.878C377.822 335.244 376.976 335.341 376.17 335.152C375.776 335.023 375.425 334.79 375.154 334.477C374.883 334.164 374.702 333.784 374.63 333.376C374.457 332.536 374.571 331.662 374.953 330.894C375.306 330.133 375.721 329.402 376.194 328.709L378.578 324.985C379.349 323.901 380.03 322.755 380.613 321.559Z" fill="#FDE0CC"/>
<path d="M354.707 324.178C354.987 322.602 354.872 320.982 354.372 319.461C354.081 317.873 353.403 316.381 352.398 315.117C352.224 315.191 353.106 317.115 353.726 319.61C354.347 322.105 354.459 324.178 354.707 324.178Z" fill="#FDE0CC"/>
<path d="M342.108 330.633C345.071 327.919 348.742 326.098 352.696 325.382C356.672 324.654 360.732 324.508 364.749 324.948C367.977 325.221 371.651 326.016 373.116 328.746C374.581 331.477 372.806 335.189 369.951 336.815C367.096 338.441 363.57 338.491 360.256 338.205C356.942 337.92 353.59 337.336 350.325 337.821" fill="#FFBE9D"/>
<path d="M350.313 337.82C350.313 337.82 351.207 337.746 352.795 337.758C354.384 337.771 356.706 338.031 359.573 338.367C361.15 338.557 362.74 338.623 364.327 338.565C366.173 338.521 367.99 338.099 369.665 337.324C371.497 336.43 372.915 334.866 373.625 332.954C373.992 331.953 374.069 330.869 373.848 329.826C373.575 328.737 372.962 327.763 372.098 327.046C370.319 325.746 368.212 324.968 366.015 324.799C364.021 324.574 362.015 324.462 360.008 324.464C356.597 324.405 353.198 324.891 349.94 325.904C347.769 326.594 345.726 327.638 343.895 328.995C343.412 329.381 342.952 329.795 342.517 330.236C342.219 330.534 342.083 330.695 342.095 330.72C342.108 330.745 342.753 330.137 344.057 329.243C345.912 327.99 347.946 327.024 350.089 326.375C353.316 325.452 356.666 325.033 360.02 325.134C362.003 325.145 363.984 325.27 365.953 325.507C368.018 325.662 370 326.388 371.676 327.604C372.443 328.246 372.987 329.116 373.228 330.087C373.424 331.018 373.355 331.986 373.029 332.88C372.384 334.651 371.081 336.104 369.392 336.939C367.801 337.692 366.074 338.114 364.315 338.18C362.758 338.252 361.199 338.214 359.648 338.069C357.383 337.784 355.103 337.643 352.82 337.647C352.197 337.664 351.575 337.718 350.958 337.808C350.744 337.779 350.526 337.783 350.313 337.82Z" fill="#FDE0CC"/>
<path d="M380.378 321.907C377.1 326.807 374.072 331.87 371.304 337.075C370.619 338.646 369.52 340.002 368.126 340.998C366.885 341.706 363.943 340.427 362.614 339.993L371.763 320.243" fill="#FFBE9D"/>
<path d="M371.763 320.243C371.437 320.704 371.162 321.2 370.944 321.72C370.422 322.788 369.702 324.203 368.92 325.854C367.232 329.367 364.898 334.295 362.316 339.868L362.168 340.179L362.503 340.29C363.496 340.626 364.551 341.048 365.693 341.321C366.153 341.431 366.623 341.498 367.096 341.519C367.346 341.532 367.597 341.507 367.84 341.445C368.09 341.38 368.325 341.271 368.535 341.122C369.265 340.624 369.889 339.987 370.373 339.248C371.316 337.845 371.974 336.442 372.719 335.139C374.159 332.507 375.474 330.174 376.616 328.2C377.759 326.226 378.714 324.687 379.385 323.607C379.766 323.071 380.098 322.502 380.378 321.907C379.919 322.391 379.504 322.914 379.136 323.471C378.404 324.513 377.374 326.053 376.182 327.989C374.99 329.925 373.625 332.259 372.16 334.866C371.403 336.107 370.708 337.597 369.814 338.913C369.366 339.575 368.798 340.148 368.138 340.601C367.781 340.776 367.392 340.876 366.995 340.895C366.598 340.914 366.202 340.852 365.829 340.713C364.749 340.452 363.719 340.042 362.701 339.695L362.887 340.117C365.457 334.543 367.716 329.59 369.293 326.015C370.05 324.315 370.658 322.9 371.142 321.807C371.398 321.306 371.606 320.783 371.763 320.243Z" fill="#FDE0CC"/>
<path d="M374.221 314.372C371.275 321.373 368.337 328.37 365.407 335.363C364.868 336.893 364.065 338.317 363.036 339.571C362.495 340.209 361.81 340.708 361.037 341.028C360.264 341.347 359.426 341.478 358.592 341.408C357.487 341.167 356.496 340.556 355.785 339.676C355.074 338.795 354.685 337.698 354.682 336.567C354.751 334.348 355.315 332.172 356.333 330.199C358.965 323.834 361.078 317.266 362.652 310.561" fill="#FFBE9D"/>
<path d="M362.652 310.561C362.546 310.76 362.471 310.973 362.428 311.194L361.907 313.056C361.448 314.657 360.79 316.991 359.859 319.834C358.928 322.676 357.724 326.04 356.209 329.764C355.271 331.653 354.646 333.683 354.36 335.772C354.27 336.922 354.502 338.074 355.03 339.099C355.567 340.23 356.511 341.117 357.674 341.582C358.282 341.788 358.925 341.869 359.565 341.82C360.205 341.771 360.829 341.593 361.398 341.296C362.45 340.755 363.343 339.951 363.992 338.962C365.049 337.146 365.942 335.239 366.661 333.265C368.163 329.541 369.529 326.301 370.683 323.496C371.837 320.69 372.682 318.53 373.339 316.904L374.035 315.092C374.131 314.887 374.198 314.67 374.233 314.446C374.099 314.629 373.99 314.83 373.91 315.042L373.104 316.805L370.249 323.334C369.007 326.127 367.654 329.417 366.09 333.041C365.347 334.934 364.446 336.761 363.396 338.503C362.806 339.399 361.993 340.126 361.038 340.613C360.558 340.87 360.03 341.024 359.487 341.067C358.945 341.11 358.399 341.04 357.885 340.862C356.876 340.456 356.054 339.691 355.576 338.714C355.099 337.78 354.888 336.732 354.968 335.685C355.25 333.664 355.849 331.699 356.743 329.864C358.233 326.14 359.387 322.788 360.268 319.933C361.15 317.078 361.745 314.719 362.118 313.081C362.304 312.262 362.441 311.629 362.528 311.194C362.595 310.989 362.637 310.776 362.652 310.561Z" fill="#FDE0CC"/>
<path d="M373.513 363.59C373.513 363.59 393.709 420.095 394.504 422.913L353.95 436.183L340.295 359.854L373.513 363.59Z" fill="#FFBE9D"/>
<path d="M353.851 354.814C354.493 354.881 355.143 354.8 355.75 354.578C357.234 354.147 358.607 353.398 359.772 352.381C360.914 351.392 361.818 350.157 362.416 348.769C362.712 348.226 362.853 347.612 362.825 346.994C361.983 348.855 360.795 350.54 359.325 351.959C357.682 353.225 355.829 354.192 353.851 354.814Z" fill="#FDE0CC"/>
<path d="M394.504 422.913C394.504 422.913 401.133 439.385 400.71 450.532C400.288 461.68 394.504 482.807 378.218 482.683C366.475 482.621 354.72 477.966 342.145 463.566C335.169 455.572 326.355 445.108 326.355 445.108L363.595 427.307L394.504 422.913Z" fill="#FFBE9D"/>
<path d="M362.403 466.508C362.33 466.215 362.222 465.931 362.081 465.664L361.05 463.293C360.579 462.288 360.206 460.959 359.66 459.47C359.114 457.98 358.63 456.23 358.059 454.306C355.824 446.61 353.404 435.785 351.107 423.769C348.811 411.753 347.036 400.805 345.757 392.885C345.137 388.975 344.628 385.785 344.255 383.501C344.082 382.446 343.945 381.602 343.833 380.956C343.801 380.653 343.738 380.354 343.647 380.062C343.624 380.364 343.624 380.667 343.647 380.969L343.945 383.538C344.23 385.76 344.665 388.988 345.186 392.96C346.353 400.892 348.079 411.853 350.363 423.894C352.647 435.934 355.166 446.746 357.5 454.43C358.108 456.354 358.605 458.154 359.201 459.581C359.797 461.009 360.194 462.387 360.703 463.392L361.857 465.714C362.018 465.992 362.201 466.258 362.403 466.508Z" fill="#FDE0CC"/>
<path d="M329.608 393.667C329.476 393.963 329.372 394.271 329.297 394.586C329.111 395.256 328.85 396.15 328.54 397.255C327.919 399.601 327.088 402.99 326.157 407.185C324.282 415.614 322.023 427.32 319.801 440.316C317.579 453.313 315.903 465.143 314.898 473.695C314.401 477.978 314.066 481.454 313.88 483.862C313.806 485.029 313.756 485.947 313.719 486.642C313.697 486.965 313.697 487.288 313.719 487.611C313.799 487.298 313.849 486.977 313.868 486.655C313.942 485.96 314.029 485.041 314.153 483.887C314.414 481.491 314.824 478.028 315.395 473.745C316.512 465.192 318.299 453.412 320.484 440.416C322.669 427.419 324.878 415.726 326.691 407.272C327.572 403.052 328.329 399.651 328.875 397.342C329.136 396.225 329.347 395.318 329.508 394.648C329.56 394.323 329.593 393.996 329.608 393.667Z" fill="#263238"/>
<path d="M174.815 458.998C174.842 458.759 174.842 458.517 174.815 458.278C174.815 457.732 174.716 457.037 174.654 456.217C174.492 454.343 174.269 451.773 174.008 448.633C173.25 440.314 172.947 431.96 173.102 423.608C173.245 419.014 173.635 414.431 174.269 409.879C174.616 407.793 174.902 405.795 175.324 403.958C175.535 403.039 175.696 402.145 175.907 401.301C176.118 400.457 176.342 399.65 176.54 398.819C176.913 397.255 177.397 395.889 177.782 394.673C178.167 393.456 178.527 392.426 178.849 391.582C179.172 390.738 179.371 390.154 179.544 389.645C179.645 389.424 179.716 389.19 179.755 388.95C179.616 389.148 179.507 389.365 179.433 389.596L178.613 391.495C178.253 392.327 177.844 393.344 177.447 394.561C177.049 395.777 176.516 397.13 176.118 398.695C175.895 399.477 175.671 400.283 175.436 401.177C175.2 402.071 175.026 402.927 174.815 403.846C174.356 405.696 174.058 407.694 173.685 409.792C173.013 414.362 172.598 418.966 172.444 423.583C172.275 431.964 172.64 440.348 173.536 448.683C173.859 451.873 174.157 454.455 174.393 456.242C174.505 457.074 174.604 457.757 174.678 458.29C174.687 458.532 174.733 458.77 174.815 458.998Z" fill="#263238"/>
<path d="M192.839 522.876C192.839 522.876 194.912 517.415 190.356 516.98C187.878 516.804 185.392 516.755 182.908 516.831C180.937 516.866 179.026 517.517 177.444 518.692C175.861 519.868 174.686 521.509 174.082 523.385L172.233 529.294L165.964 535.563H159.05L148.238 558.564C148.238 558.564 157.536 566.41 162.948 563.852C168.36 561.295 169.154 561.717 169.154 561.717C169.154 561.717 190.555 574.255 192.069 573.609C193.584 572.964 196.166 570.655 192.069 567.117C187.973 563.579 173.698 553.723 173.698 553.723L200.932 563.852C200.932 563.852 205.463 562.797 202.869 559.334C200.274 555.871 177.372 545.208 177.372 545.208L179.097 543.346C179.097 543.346 201.143 551.563 202.683 550.483C204.222 549.403 207.735 547.231 203.7 544.426C199.666 541.62 179.768 533.626 179.768 533.626L182.797 526.489L185.887 524.974C185.887 524.974 192.206 524.85 192.839 522.876Z" fill="#FFBE9D"/>
<path d="M152.136 543.917C152.434 543.991 153.055 541.335 155.252 538.952C157.449 536.568 160.006 535.724 159.907 535.426C159.808 535.128 156.878 535.575 154.47 538.232C152.062 540.888 151.851 543.942 152.136 543.917Z" fill="#FDE0CC"/>
<path d="M169.937 537.387C170.185 537.574 171.737 535.389 174.654 534.371C177.571 533.353 180.153 534.073 180.215 533.763C180.277 533.452 179.669 533.266 178.589 533.043C177.156 532.772 175.677 532.884 174.302 533.368C172.926 533.852 171.703 534.69 170.756 535.798C170.048 536.655 169.825 537.313 169.937 537.387Z" fill="#FDE0CC"/>
<path d="M169.639 545.655C169.812 545.903 171.538 544.885 173.871 544.997C176.205 545.108 177.869 546.238 178.055 545.952C178.241 545.667 176.664 544.016 173.909 543.929C171.153 543.842 169.415 545.468 169.639 545.655Z" fill="#FDE0CC"/>
<path d="M165.803 553.338C165.89 553.636 167.95 553.177 170.445 553.549C172.941 553.922 174.79 554.89 174.964 554.629C175.138 554.369 173.363 552.879 170.594 552.494C167.826 552.109 165.691 553.09 165.803 553.338Z" fill="#FDE0CC"/>
<path d="M222.221 429.417C222.311 429.655 222.423 429.884 222.556 430.1L223.599 431.999C224.517 433.65 225.933 435.996 227.745 438.852C229.557 441.707 231.816 445.058 234.448 448.646C237.08 452.233 240.133 456.093 243.497 460.016C246.861 463.939 250.25 467.464 253.428 470.654C256.606 473.844 259.56 476.538 262.117 478.735C264.674 480.932 266.784 482.695 268.324 483.849L270.049 485.165C270.241 485.332 270.454 485.474 270.682 485.587C270.519 485.394 270.336 485.22 270.136 485.066L268.485 483.651C267.045 482.409 264.972 480.647 262.477 478.4C249.362 466.658 237.806 453.284 228.092 438.603C226.243 435.785 224.778 433.489 223.798 431.875L222.643 430.038C222.53 429.814 222.388 429.605 222.221 429.417Z" fill="#263238"/>
<path d="M230.699 441.198C230.873 441.217 231.047 441.217 231.221 441.198C231.728 441.206 232.235 441.168 232.735 441.086C234.671 440.714 236.474 439.836 237.961 438.541C240.331 436.507 242.028 433.802 242.827 430.783C243.759 426.787 243.923 422.65 243.311 418.593C243.175 417.463 243.038 416.321 242.889 415.142C242.764 413.927 242.544 412.723 242.231 411.542C241.896 410.275 241.232 409.119 240.307 408.191C239.83 407.692 239.249 407.304 238.606 407.053C237.962 406.802 237.272 406.695 236.583 406.738C235.869 406.841 235.189 407.11 234.598 407.524C234.007 407.938 233.522 408.485 233.182 409.122C232.483 410.376 232.036 411.755 231.866 413.181C231.631 416.118 231.786 419.073 232.325 421.969C233.473 428.2 236.18 434.038 240.195 438.938C242.313 441.52 244.778 443.797 247.519 445.703C248.911 446.716 250.425 447.551 252.025 448.186C253.666 448.864 255.447 449.128 257.214 448.956C259.008 448.726 260.664 447.874 261.894 446.548C263.059 445.254 263.95 443.738 264.513 442.091C265.076 440.498 265.492 438.857 265.754 437.188C266.032 435.544 266.222 433.887 266.325 432.223C266.529 429.015 266.4 425.796 265.94 422.615C265.705 421.051 265.407 419.524 265.034 418.022C264.648 416.512 263.964 415.094 263.023 413.851C262.545 413.225 261.935 412.713 261.236 412.349C260.523 411.991 259.719 411.852 258.927 411.952C258.173 412.101 257.465 412.425 256.861 412.9C256.257 413.375 255.774 413.986 255.451 414.683C254.863 416.008 254.615 417.459 254.731 418.903C254.829 420.26 254.999 421.611 255.24 422.95C256.164 427.836 257.959 432.516 260.541 436.766C264.27 442.933 269.524 448.038 275.796 451.587C276.767 452.151 277.77 452.657 278.8 453.102C279.542 453.463 280.305 453.778 281.084 454.045L282.512 454.542C282.672 454.608 282.838 454.658 283.009 454.691C282.858 454.606 282.7 454.535 282.537 454.48L281.134 453.921C280.366 453.635 279.616 453.304 278.887 452.928C277.872 452.463 276.882 451.945 275.921 451.376C269.749 447.755 264.595 442.631 260.938 436.48C258.413 432.275 256.664 427.65 255.774 422.826C255.538 421.507 255.373 420.177 255.277 418.841C255.178 417.489 255.412 416.134 255.96 414.894C256.242 414.283 256.664 413.747 257.193 413.33C257.721 412.914 258.341 412.629 259.001 412.498C259.69 412.434 260.384 412.558 261.008 412.855C261.633 413.152 262.166 413.612 262.552 414.186C264.376 416.483 264.836 419.623 265.32 422.665C265.775 425.804 265.9 428.983 265.692 432.148C265.587 433.775 265.396 435.395 265.121 437.002C264.856 438.63 264.44 440.23 263.88 441.781C263.349 443.346 262.504 444.787 261.397 446.014C260.275 447.233 258.758 448.016 257.115 448.223C255.454 448.383 253.78 448.136 252.236 447.503C250.685 446.891 249.217 446.087 247.867 445.108C245.165 443.246 242.741 441.01 240.667 438.467C236.708 433.655 234.031 427.92 232.884 421.796C232.347 418.962 232.189 416.069 232.412 413.193C232.568 411.841 232.989 410.533 233.654 409.345C233.946 408.779 234.369 408.291 234.887 407.92C235.405 407.549 236.003 407.306 236.633 407.21C237.244 407.165 237.858 407.252 238.432 407.466C239.006 407.681 239.528 408.017 239.96 408.452C240.848 409.362 241.467 410.5 241.747 411.741C242.06 412.897 242.284 414.076 242.417 415.266C242.566 416.433 242.715 417.588 242.852 418.705C243.479 422.707 243.353 426.79 242.479 430.746C241.719 433.712 240.089 436.383 237.8 438.417C236.354 439.707 234.602 440.604 232.71 441.024C231.407 441.222 230.699 441.148 230.699 441.198Z" fill="white"/>
<path d="M205.252 445.132C205.274 445.452 205.346 445.766 205.463 446.063C205.78 446.926 206.309 447.695 207.002 448.298C208.106 449.267 209.488 449.862 210.95 449.998C212.901 450.127 214.829 449.515 216.35 448.285C218.202 446.833 219.559 444.843 220.235 442.588C220.97 440.033 221.256 437.37 221.079 434.718C220.893 428.638 219.403 422.669 216.71 417.215C216.293 416.465 215.685 415.84 214.947 415.403C214.558 415.188 214.124 415.068 213.68 415.05C213.236 415.033 212.794 415.12 212.39 415.303C211.642 415.708 211.045 416.344 210.689 417.116C210.331 417.828 210.096 418.596 209.994 419.387C209.769 422.362 210.28 425.347 211.484 428.077C213.501 432.628 216.698 436.558 220.744 439.459C223.439 441.415 226.315 443.106 229.334 444.512C230.389 445.033 231.208 445.405 231.816 445.654C232.099 445.793 232.394 445.905 232.698 445.989C232.436 445.816 232.163 445.662 231.878 445.53L229.483 444.288C226.515 442.79 223.682 441.038 221.017 439.05C217.089 436.146 213.991 432.264 212.03 427.791C210.898 425.172 210.413 422.32 210.615 419.474C210.718 418.753 210.936 418.053 211.26 417.401C211.552 416.758 212.044 416.227 212.663 415.887C212.976 415.747 213.317 415.682 213.66 415.697C214.003 415.712 214.337 415.807 214.637 415.974C215.269 416.36 215.79 416.903 216.151 417.55C217.548 420.308 218.602 423.226 219.292 426.239C219.98 429.035 220.395 431.891 220.533 434.767C220.727 437.357 220.471 439.961 219.776 442.463C219.146 444.625 217.873 446.543 216.126 447.963C214.698 449.149 212.879 449.76 211.024 449.676C209.629 449.568 208.302 449.031 207.226 448.136C206.537 447.579 205.992 446.863 205.637 446.051C205.339 445.455 205.302 445.12 205.252 445.132Z" fill="white"/>
<g opacity="0.3">
<path d="M224.517 433.303C229.825 448.613 240.086 461.717 253.676 470.542C253.676 470.542 236.372 453.822 224.517 433.303Z" fill="black"/>
</g>
<g opacity="0.3">
<path d="M178.837 391.185V391.694C173.251 404.293 173.015 423.285 172.953 437.511C170.065 429.887 168.389 421.857 167.988 413.715C167.926 406.304 172.531 395.07 178.837 391.185Z" fill="black"/>
</g>
</svg>
