<svg width="557" height="562" viewBox="0 0 557 562" fill="none" xmlns="http://www.w3.org/2000/svg">
<path d="M531.107 561.631C531.107 561.805 417.564 561.954 277.543 561.954C137.522 561.954 23.9534 561.805 23.9534 561.631C23.9534 561.458 137.472 561.309 277.543 561.309C417.613 561.309 531.107 561.458 531.107 561.631Z" fill="#263238"/>
<path d="M142.226 199.749C145.747 208.373 146.629 217.847 144.762 226.972C142.894 236.098 138.36 244.463 131.734 251.01C125.109 257.557 116.689 261.99 107.542 263.748C98.3951 265.507 88.932 264.511 80.3513 260.887C71.7706 257.263 64.4583 251.175 59.3404 243.392C54.2226 235.61 51.5294 226.483 51.602 217.169C51.6746 207.855 54.5097 198.772 59.7483 191.07C64.9868 183.368 72.3932 177.394 81.0294 173.905C92.5726 169.226 105.501 169.32 116.975 174.166C128.449 179.012 137.531 188.213 142.226 199.749Z" fill="#F97316"/>
<path d="M131.899 203.957C134.578 210.528 135.247 217.746 133.821 224.698C132.396 231.649 128.941 238.022 123.892 243.008C118.844 247.995 112.429 251.372 105.461 252.712C98.4924 254.052 91.2831 253.294 84.7454 250.534C78.2078 247.775 72.6357 243.138 68.7345 237.211C64.8333 231.283 62.7783 224.331 62.8297 217.236C62.8811 210.14 65.0364 203.218 69.023 197.348C73.0096 191.478 78.6482 186.922 85.2251 184.257C94.0268 180.681 103.889 180.747 112.642 184.442C121.394 188.136 128.321 195.156 131.899 203.957Z" fill="#F97316"/>
<path d="M131.899 203.957C131.798 203.793 131.707 203.623 131.626 203.448L130.868 201.909L130.322 200.792C130.099 200.382 129.826 199.96 129.54 199.489C128.922 198.396 128.225 197.351 127.455 196.36C125.42 193.58 122.976 191.123 120.205 189.074C116.552 186.344 112.41 184.338 108.003 183.165C102.668 181.721 97.0681 181.551 91.6551 182.669C83.7787 184.342 76.68 188.581 71.4712 194.722C70.925 195.38 70.4409 196.087 69.9071 196.782C69.3844 197.47 68.9076 198.192 68.4796 198.942C67.5466 200.444 66.7172 202.008 65.997 203.622C65.3138 205.285 64.7497 206.994 64.3088 208.736C63.368 212.305 63.0158 216.003 63.2661 219.685C63.7204 227.33 66.6679 234.616 71.6574 240.427C74.0497 243.24 76.8788 245.65 80.0363 247.565C81.5658 248.502 83.1585 249.331 84.803 250.047C86.4215 250.706 88.0799 251.261 89.7682 251.711C93.0682 252.595 96.4849 252.963 99.8974 252.803C106.243 252.566 112.412 250.647 117.772 247.242C122.019 244.523 125.643 240.937 128.405 236.718C131.167 232.499 133.005 227.743 133.798 222.763C134.37 219.365 134.42 215.899 133.947 212.485C133.812 211.229 133.584 209.984 133.264 208.761C133.14 208.227 133.053 207.731 132.929 207.296C132.805 206.862 132.643 206.465 132.532 206.055C132.308 205.372 132.135 204.814 132.01 204.429C131.937 204.249 131.883 204.062 131.849 203.87C131.941 204.04 132.016 204.219 132.072 204.404C132.221 204.801 132.42 205.323 132.668 206.005L133.103 207.185C133.239 207.632 133.351 208.128 133.488 208.662C133.831 209.882 134.08 211.127 134.232 212.386C134.769 215.824 134.769 219.325 134.232 222.763C133.462 227.826 131.625 232.667 128.843 236.966C126.061 241.265 122.397 244.924 118.095 247.701C112.69 251.202 106.454 253.206 100.022 253.511C98.2991 253.576 96.5742 253.531 94.8577 253.374C93.1129 253.171 91.3836 252.852 89.6814 252.418C87.9374 251.968 86.2249 251.404 84.5547 250.73C82.8784 250.014 81.2527 249.184 79.6887 248.248C76.4636 246.291 73.5721 243.831 71.1236 240.961C66.0263 235.031 63.0171 227.591 62.5585 219.784C62.3116 216.027 62.6721 212.255 63.626 208.612C64.495 205.094 65.9287 201.741 67.8714 198.682C68.3 197.907 68.7898 197.168 69.3361 196.472C69.8699 195.777 70.3664 195.057 70.925 194.387C72.0376 193.064 73.2404 191.82 74.5248 190.663C79.3476 186.354 85.23 183.407 91.5682 182.122C96.5879 181.124 101.763 181.203 106.749 182.357C111.736 183.51 116.42 185.711 120.491 188.813C123.276 190.905 125.717 193.418 127.728 196.261C128.496 197.267 129.181 198.334 129.776 199.451C130.049 199.935 130.322 200.357 130.533 200.779C130.744 201.202 130.893 201.574 131.042 201.922C131.328 202.579 131.563 203.163 131.725 203.486C131.794 203.638 131.852 203.796 131.899 203.957Z" fill="#263238"/>
<g opacity="0.3">
<path d="M131.787 204.404C131.588 204.491 130.856 203.088 129.304 200.767C127.131 197.477 124.459 194.546 121.385 192.078C119.277 190.405 116.991 188.969 114.57 187.795C111.809 186.472 108.888 185.513 105.881 184.94C104.244 184.614 102.583 184.419 100.915 184.357C99.1972 184.272 97.4751 184.318 95.7638 184.493C93.9962 184.68 92.2452 185 90.5254 185.449C88.7635 185.93 87.0379 186.536 85.3616 187.261C83.6888 188.013 82.0747 188.888 80.5328 189.881C79.0403 190.845 77.6251 191.924 76.2999 193.108C75.0182 194.256 73.8271 195.501 72.7373 196.832C71.676 198.101 70.7132 199.45 69.8575 200.866C68.2619 203.483 67.0102 206.295 66.1335 209.233C65.372 211.813 64.8934 214.469 64.706 217.152C64.4628 221.078 64.8229 225.017 65.7735 228.833C66.4438 231.552 67.0148 233.041 66.7914 233.128C66.568 233.215 65.7735 231.887 64.7556 229.143C63.3701 225.275 62.7012 221.186 62.7819 217.078C62.8658 214.221 63.2824 211.384 64.0233 208.624C64.8486 205.445 66.1013 202.393 67.7472 199.55C68.6339 198.014 69.6382 196.549 70.7512 195.169C73.1171 192.222 75.9322 189.667 79.0929 187.596C80.7476 186.522 82.4822 185.576 84.2816 184.766C86.0929 183.983 87.9601 183.336 89.8675 182.83C93.5115 181.884 97.2818 181.52 101.039 181.75C102.81 181.853 104.57 182.094 106.303 182.47C109.514 183.149 112.617 184.264 115.526 185.784C118.051 187.11 120.413 188.726 122.564 190.6C125.67 193.3 128.246 196.554 130.161 200.196C131.526 202.79 131.923 204.342 131.787 204.404Z" fill="black"/>
</g>
<g opacity="0.3">
<path d="M110.449 235.722L112.931 241.482L107.792 243.654L105.372 238.031C100.158 239.881 94.6095 240.34 90.8483 239.273L91.022 231.825C94.8453 232.641 98.8151 232.448 102.541 231.266L98.9168 222.689C92.6233 223.706 85.4485 224.489 82.3452 217.14C80.0488 211.691 82.0349 205.347 89.7931 201.003L87.385 195.293L92.524 193.12L94.895 198.731C98.6599 197.393 102.689 196.967 106.65 197.49L106.75 204.938C103.741 204.556 100.686 204.775 97.7624 205.583L101.486 214.272C107.693 213.192 114.818 212.46 117.884 219.697C120.057 225.072 118.108 231.341 110.449 235.722ZM95.7266 215.179L92.6482 207.88C90.1655 209.642 89.7311 211.604 90.451 213.292C91.171 214.98 93.1571 215.414 95.7266 215.179ZM109.791 223.868C109.034 222.068 107.134 221.72 104.59 221.882L107.594 228.982C109.952 227.294 110.486 225.482 109.791 223.831V223.868Z" fill="white"/>
</g>
<path d="M253.238 105.21C254.785 114.391 253.575 123.824 249.76 132.317C245.944 140.809 239.696 147.979 231.804 152.92C223.913 157.86 214.734 160.348 205.428 160.07C196.122 159.792 187.107 156.759 179.525 151.356C171.943 145.954 166.134 138.423 162.833 129.718C159.532 121.012 158.887 111.523 160.981 102.452C163.074 93.3798 167.811 85.1328 174.593 78.7541C181.375 72.3755 189.896 68.1518 199.079 66.6175C205.169 65.5933 211.402 65.7792 217.42 67.1647C223.439 68.5501 229.125 71.1079 234.155 74.6919C239.184 78.2759 243.459 82.8158 246.733 88.0523C250.007 93.2887 252.218 99.1191 253.238 105.21Z" fill="#F97316"/>
<path d="M242.202 107.022C243.385 114.019 242.465 121.208 239.56 127.682C236.655 134.155 231.895 139.622 225.882 143.389C219.869 147.156 212.874 149.055 205.781 148.845C198.689 148.635 191.818 146.326 186.039 142.21C180.259 138.094 175.831 132.355 173.313 125.722C170.796 119.088 170.303 111.856 171.897 104.942C173.491 98.0278 177.101 91.7419 182.268 86.8799C187.436 82.0178 193.93 78.798 200.929 77.6279C210.3 76.0545 219.912 78.2672 227.652 83.7794C235.392 89.2916 240.625 97.652 242.202 107.022Z" fill="#F97316"/>
<path d="M242.203 107.022C242.127 106.842 242.069 106.655 242.029 106.464C241.929 106.054 241.805 105.508 241.632 104.8C241.545 104.44 241.445 104.031 241.346 103.559C241.247 103.087 241.036 102.641 240.874 102.119C240.497 100.92 240.041 99.746 239.509 98.6063C238.127 95.4476 236.273 92.5177 234.01 89.917C230.721 86.1013 226.664 83.0232 222.103 80.8841C217.542 78.7449 212.581 77.5931 207.545 77.5038C201.196 77.3943 194.933 78.9751 189.397 82.0843C187.93 82.9123 186.52 83.8371 185.176 84.8524C184.494 85.3738 183.873 85.9572 183.203 86.5158C182.54 87.0707 181.918 87.6722 181.341 88.3157C180.114 89.5829 178.974 90.9307 177.927 92.35C176.911 93.8288 175.99 95.3712 175.171 96.9677C173.482 100.25 172.333 103.784 171.77 107.432C170.562 114.998 171.87 122.752 175.494 129.503C177.215 132.771 179.454 135.738 182.123 138.291C184.658 140.824 187.594 142.921 190.812 144.498C192.345 145.292 193.934 145.972 195.566 146.534C197.17 147.059 198.808 147.474 200.469 147.775C208.592 149.27 216.982 147.901 224.208 143.901C231.433 139.901 237.048 133.518 240.092 125.841C241.375 122.667 242.179 119.32 242.476 115.91C242.607 114.674 242.652 113.429 242.612 112.186C242.612 111.64 242.612 111.131 242.612 110.672C242.612 110.213 242.525 109.803 242.488 109.431C242.414 108.723 242.364 108.189 242.327 107.742C242.305 107.549 242.305 107.353 242.327 107.159C242.371 107.347 242.404 107.538 242.426 107.73C242.426 108.14 242.563 108.711 242.662 109.418C242.662 109.791 242.761 110.213 242.823 110.659C242.885 111.106 242.823 111.628 242.823 112.174C242.889 113.44 242.864 114.71 242.749 115.972C242.515 119.442 241.744 122.855 240.465 126.089C238.63 130.863 235.798 135.191 232.16 138.784C228.521 142.378 224.158 145.155 219.362 146.931C211.633 149.722 203.193 149.853 195.38 147.303C193.717 146.728 192.095 146.04 190.526 145.243C188.923 144.429 187.376 143.509 185.896 142.487C184.415 141.404 183.009 140.223 181.688 138.949C178.97 136.337 176.686 133.307 174.923 129.974C171.258 123.071 169.95 115.16 171.199 107.444C171.782 103.718 172.959 100.109 174.687 96.7567C175.524 95.1294 176.465 93.558 177.505 92.0521C178.514 90.5695 179.626 89.1592 180.832 87.8316C181.425 87.1756 182.064 86.5617 182.743 85.9945C183.426 85.4234 184.059 84.8276 184.754 84.3063C186.128 83.2698 187.572 82.3284 189.074 81.4885C194.715 78.3337 201.095 76.7398 207.557 76.8708C212.674 76.9869 217.708 78.1903 222.325 80.4011C226.941 82.612 231.034 85.7795 234.333 89.6936C236.594 92.3411 238.432 95.3224 239.782 98.5318C240.281 99.6879 240.696 100.879 241.023 102.094C241.185 102.616 241.346 103.1 241.47 103.547C241.594 103.994 241.644 104.416 241.718 104.788C241.855 105.496 241.967 106.029 242.054 106.464C242.114 106.647 242.164 106.833 242.203 107.022Z" fill="#263238"/>
<g opacity="0.3">
<path d="M241.979 107.432C241.768 107.432 241.358 105.955 240.34 103.336C238.93 99.6642 236.958 96.2345 234.494 93.1692C232.803 91.0796 230.888 89.1814 228.784 87.5088C226.367 85.6346 223.723 84.0746 220.914 82.8663C219.404 82.1982 217.843 81.6503 216.246 81.2277C214.59 80.7713 212.901 80.4434 211.194 80.2471C209.427 80.0452 207.647 79.9747 205.869 80.036C204.044 80.1231 202.227 80.3388 200.432 80.6815C198.638 81.0487 196.875 81.5508 195.156 82.1835C193.486 82.7993 191.867 83.5464 190.315 84.4179C188.817 85.2536 187.385 86.204 186.033 87.2605C184.709 88.2647 183.464 89.3685 182.309 90.5624C178.29 94.7152 175.346 99.7857 173.731 105.334C172.633 109.115 172.126 113.042 172.229 116.978C172.291 119.783 172.49 121.347 172.229 121.384C171.969 121.422 171.509 119.92 171.112 117.052C170.597 112.968 170.837 108.823 171.82 104.825C173.283 98.8299 176.277 93.3168 180.509 88.8246C181.711 87.4958 183.023 86.2709 184.431 85.1627C185.878 84.0018 187.414 82.9559 189.024 82.0346C190.683 81.0655 192.418 80.2351 194.213 79.5519C197.914 78.1447 201.824 77.3644 205.782 77.2431C211.338 77.0643 216.86 78.1687 221.919 80.4705C227.528 83.0233 232.384 86.9777 236.021 91.9527C238.456 95.2672 240.265 98.9986 241.358 102.963C242.091 105.806 242.14 107.407 241.979 107.432Z" fill="black"/>
</g>
<g opacity="0.3">
<path d="M220.678 121.534L226.711 126.635C223.223 131.365 217.736 134.083 210.896 134.418C200.966 134.903 192.848 129.664 189.856 121.322L183.525 121.62L183.302 116.916L188.788 116.643C188.714 116.146 188.689 115.637 188.664 115.141C188.633 114.632 188.633 114.122 188.664 113.614L183.19 113.899L182.967 109.182L189.297 108.884C191.482 100.282 199.067 94.2989 208.985 93.8272C215.837 93.5045 221.559 95.7016 225.469 100.034L219.958 105.694C218.673 104.303 217.097 103.212 215.341 102.499C213.586 101.787 211.695 101.471 209.804 101.573C207.543 101.597 205.333 102.252 203.425 103.465C201.517 104.678 199.986 106.4 199.004 108.438L213.193 107.767L213.416 112.472L197.825 113.217C197.825 113.726 197.825 114.235 197.825 114.731C197.835 115.238 197.877 115.744 197.949 116.245L213.54 115.501L213.764 120.218L199.575 120.888C200.746 122.824 202.434 124.394 204.45 125.421C206.466 126.447 208.729 126.889 210.983 126.697C212.882 126.616 214.739 126.11 216.417 125.217C218.095 124.323 219.551 123.064 220.678 121.534Z" fill="white"/>
</g>
<path d="M404.964 128.448C402.148 137.323 396.762 145.162 389.488 150.975C382.215 156.788 373.38 160.312 364.103 161.102C354.825 161.892 345.522 159.912 337.37 155.413C329.219 150.913 322.585 144.097 318.309 135.826C314.032 127.555 312.306 118.201 313.347 108.949C314.389 99.6962 318.152 90.9606 324.16 83.8475C330.168 76.7344 338.152 71.5635 347.1 68.9892C356.048 66.4148 365.558 66.5528 374.428 69.3857C380.312 71.2566 385.77 74.2688 390.49 78.2501C395.21 82.2314 399.099 87.1039 401.935 92.5889C404.771 98.0739 406.498 104.064 407.018 110.217C407.538 116.37 406.84 122.565 404.964 128.448Z" fill="#F97316"/>
<path d="M394.301 125.071C392.158 131.84 388.055 137.82 382.512 142.255C376.968 146.691 370.233 149.381 363.159 149.987C356.085 150.592 348.991 149.085 342.774 145.656C336.557 142.227 331.498 137.03 328.236 130.724C324.974 124.418 323.657 117.286 324.451 110.231C325.245 103.176 328.115 96.5154 332.696 91.092C337.278 85.6686 343.366 81.7267 350.189 79.7652C357.012 77.8037 364.264 77.911 371.027 80.0733C380.078 82.9572 387.614 89.3169 391.978 97.7546C396.342 106.192 397.178 116.018 394.301 125.071Z" fill="#F97316"/>
<path d="M394.301 125.071C394.322 124.878 394.359 124.687 394.413 124.5C394.512 124.091 394.637 123.544 394.81 122.849C394.897 122.477 394.997 122.08 395.108 121.608C395.22 121.136 395.257 120.652 395.344 120.106C395.567 118.876 395.7 117.631 395.741 116.382C395.959 112.942 395.649 109.488 394.823 106.141C392.918 98.1021 388.278 90.975 381.698 85.9797C375.117 80.9844 367.005 78.4314 358.75 78.7576C357.064 78.8152 355.384 78.9894 353.723 79.279C352.891 79.4404 352.059 79.6762 351.24 79.8624C350.395 80.0542 349.565 80.3073 348.757 80.6196C347.088 81.1839 345.458 81.8599 343.879 82.643C342.297 83.4912 340.771 84.4407 339.311 85.4856C336.31 87.6378 333.674 90.2571 331.503 93.2438C329.286 96.3283 327.549 99.7309 326.352 103.336C325.248 106.957 324.687 110.722 324.688 114.508C324.72 118.202 325.353 121.866 326.563 125.357C327.139 127.055 327.828 128.714 328.623 130.322C329.457 131.877 330.394 133.374 331.429 134.803C332.433 136.201 333.532 137.528 334.718 138.775C341.091 145.319 349.731 149.168 358.858 149.531C367.985 149.893 376.903 146.741 383.775 140.724C386.387 138.479 388.643 135.851 390.466 132.929C391.16 131.878 391.778 130.779 392.315 129.639C392.551 129.155 392.799 128.708 392.986 128.286C393.172 127.864 393.308 127.479 393.445 127.119C393.718 126.462 393.929 125.878 394.078 125.543C394.144 125.358 394.227 125.179 394.326 125.009C394.285 125.2 394.227 125.387 394.152 125.568L393.594 127.182L393.159 128.361C392.986 128.795 392.75 129.242 392.514 129.739C391.999 130.895 391.397 132.012 390.714 133.078C388.916 136.058 386.672 138.746 384.061 141.047C380.235 144.444 375.731 146.989 370.848 148.515C365.964 150.04 360.813 150.512 355.734 149.898C349.315 149.105 343.225 146.611 338.094 142.673C336.726 141.631 335.432 140.495 334.222 139.272C333.011 138 331.887 136.648 330.858 135.225C329.802 133.767 328.845 132.241 327.99 130.657C327.17 129.016 326.465 127.319 325.88 125.58C324.642 122.018 323.992 118.278 323.956 114.508C323.841 106.706 326.282 99.081 330.907 92.797C333.128 89.7475 335.828 87.0773 338.901 84.8897C341.819 82.7195 345.073 81.0421 348.534 79.9245C349.363 79.6118 350.213 79.3588 351.079 79.1673C351.935 78.9686 352.779 78.7328 353.636 78.5714C355.331 78.2824 357.044 78.1082 358.762 78.0501C365.223 77.8191 371.629 79.3145 377.32 82.3823C381.816 84.8286 385.74 88.2015 388.835 92.2781C391.929 96.3546 394.122 101.042 395.27 106.029C396.065 109.419 396.337 112.91 396.077 116.382C396.013 117.633 395.856 118.878 395.605 120.106C395.505 120.652 395.431 121.161 395.332 121.608L394.997 122.849C394.798 123.544 394.637 124.091 394.525 124.488C394.473 124.69 394.398 124.886 394.301 125.071Z" fill="#263238"/>
<g opacity="0.3">
<path d="M393.917 125.307C393.706 125.307 394.041 123.706 394.339 120.913C394.752 117.001 394.564 113.049 393.78 109.195C393.231 106.568 392.398 104.008 391.297 101.561C389.335 97.2593 386.528 93.3967 383.043 90.2025C380.457 87.8401 377.527 85.8854 374.353 84.4055C372.691 83.6372 370.973 82.994 369.214 82.4814C367.451 81.9907 365.655 81.6297 363.839 81.4015C360.362 81 356.843 81.1171 353.4 81.7491C351.778 82.0427 350.181 82.4576 348.621 82.9904C345.715 83.974 342.948 85.3301 340.391 87.0247C338.137 88.5158 336.056 90.2518 334.184 92.201C331.482 95.0581 329.238 98.3157 327.531 101.858C326.289 104.341 325.768 105.88 325.557 105.818C325.346 105.756 325.557 104.18 326.55 101.449C327.951 97.5791 330.055 94.0018 332.757 90.8976C334.625 88.7398 336.741 86.8106 339.063 85.1503C341.744 83.2527 344.666 81.7206 347.752 80.5946C349.43 79.9806 351.152 79.4951 352.903 79.1423C356.607 78.3886 360.407 78.2252 364.162 78.6582C366.12 78.8992 368.058 79.285 369.959 79.8126C371.857 80.3605 373.708 81.0578 375.495 81.898C377.225 82.7145 378.885 83.6692 380.461 84.7531C381.995 85.7937 383.44 86.9604 384.78 88.2412C386.076 89.4492 387.276 90.7566 388.368 92.1513C392.192 96.9844 394.706 102.722 395.667 108.81C396.318 112.869 396.217 117.014 395.369 121.037C394.761 123.904 394.066 125.357 393.917 125.307Z" fill="black"/>
</g>
<g opacity="0.3">
<path d="M370.232 126.697L365.701 130.421C364.895 130.695 364.237 130.421 361.084 128.088C360.314 127.529 359.47 126.846 358.527 126.263C359.438 124.186 360.14 122.024 360.624 119.808C360.723 119.276 360.777 118.736 360.786 118.194L366.235 119.659L368.321 111.926L358.539 109.294C358.23 108.323 358.01 107.326 357.881 106.315C357.824 105.148 358.016 103.982 358.444 102.895C358.872 101.808 359.527 100.824 360.364 100.009C361.915 98.6809 364.15 98.3954 366.98 99.165C367.859 99.336 368.693 99.6853 369.432 100.191C370.171 100.697 370.798 101.349 371.275 102.107C372.926 104.974 371.908 109.009 371.896 109.058L371.622 110.064L379.331 112.211L379.617 111.181C379.691 110.895 381.578 104.006 378.251 98.1719C377.261 96.4808 375.936 95.0103 374.356 93.851C372.776 92.6918 370.976 91.8684 369.065 91.4316C362.176 89.582 357.707 91.7543 355.175 93.9142C353.361 95.5517 351.94 97.5776 351.018 99.8408C350.096 102.104 349.696 104.546 349.85 106.985L346.908 106.191L344.872 113.899L352.32 115.898C352.619 116.662 352.775 117.474 352.779 118.294C352.444 119.805 351.966 121.28 351.352 122.7C349.101 122.221 346.758 122.461 344.651 123.385C342.544 124.309 340.78 125.872 339.609 127.852L339.075 128.758L345.964 132.805L346.511 131.911C347.243 130.67 348.695 129.652 351.476 131.253C353.164 132.255 354.793 133.353 356.354 134.543C358.287 136.17 360.499 137.432 362.884 138.267C364.249 138.647 365.687 138.687 367.072 138.384C368.456 138.082 369.746 137.444 370.828 136.529L375.371 132.867L370.232 126.697Z" fill="white"/>
</g>
<path d="M484.831 214.322C488.347 222.947 489.226 232.421 487.355 241.546C485.485 250.671 480.949 259.035 474.323 265.581C467.696 272.126 459.277 276.559 450.13 278.317C440.983 280.076 431.52 279.081 422.939 275.459C414.358 271.837 407.044 265.751 401.924 257.97C396.803 250.19 394.106 241.065 394.174 231.751C394.242 222.437 397.071 213.352 402.304 205.647C407.537 197.942 414.939 191.962 423.572 188.465C429.292 186.14 435.414 184.964 441.588 185.004C447.763 185.045 453.869 186.302 459.558 188.703C465.247 191.104 470.406 194.603 474.743 198.999C479.079 203.394 482.507 208.601 484.831 214.322Z" fill="#F97316"/>
<path d="M474.441 218.518C477.116 225.088 477.783 232.304 476.357 239.253C474.931 246.202 471.475 252.573 466.428 257.558C461.381 262.543 454.968 265.919 448.002 267.259C441.036 268.599 433.828 267.843 427.292 265.086C420.755 262.329 415.183 257.696 411.28 251.772C407.378 245.848 405.32 238.9 405.367 231.806C405.413 224.712 407.563 217.791 411.544 211.919C415.525 206.047 421.158 201.488 427.73 198.818C432.091 197.043 436.758 196.145 441.466 196.174C446.173 196.204 450.829 197.161 455.167 198.99C459.505 200.819 463.44 203.486 466.747 206.836C470.054 210.187 472.669 214.156 474.441 218.518Z" fill="#F97316"/>
<path d="M474.441 218.518C474.325 218.36 474.23 218.19 474.156 218.009L473.398 216.482L472.865 215.352C472.641 214.955 472.356 214.521 472.083 214.111C471.463 213.016 470.766 211.966 469.997 210.971C467.95 208.199 465.503 205.748 462.735 203.696C456.13 198.733 448.004 196.22 439.749 196.589C431.495 196.958 423.625 200.186 417.489 205.72C416.237 206.851 415.059 208.061 413.964 209.344C413.418 210.002 412.934 210.71 412.412 211.393C411.878 212.077 411.401 212.803 410.985 213.565C410.054 215.068 409.225 216.631 408.502 218.245C407.828 219.907 407.264 221.611 406.814 223.347C405.886 226.922 405.534 230.622 405.771 234.307C406.225 241.952 409.178 249.235 414.175 255.037C416.562 257.854 419.387 260.268 422.541 262.188C424.075 263.117 425.667 263.946 427.308 264.67C428.945 265.332 430.625 265.883 432.335 266.321C434.004 266.755 435.7 267.075 437.412 267.277C439.092 267.434 440.779 267.479 442.465 267.413C450.717 267.103 458.606 263.941 464.788 258.466C470.97 252.99 475.061 245.54 476.365 237.386C476.931 233.987 476.981 230.522 476.514 227.108C476.374 225.852 476.146 224.608 475.831 223.384C475.707 222.85 475.608 222.354 475.484 221.907C475.36 221.46 475.211 221.075 475.087 220.665C474.875 219.983 474.702 219.424 474.565 219.052C474.497 218.867 474.447 218.675 474.416 218.481C474.502 218.653 474.577 218.832 474.64 219.014L475.235 220.616C475.36 220.976 475.509 221.373 475.67 221.857C475.831 222.341 475.906 222.788 476.042 223.322C476.39 224.542 476.643 225.787 476.8 227.046C477.33 230.485 477.33 233.984 476.8 237.423C476.126 241.997 474.565 246.394 472.207 250.37C468.265 257.132 462.217 262.418 454.988 265.419C447.759 268.421 439.746 268.973 432.174 266.991C430.433 266.551 428.724 265.991 427.06 265.316C425.378 264.579 423.748 263.729 422.181 262.771C418.952 260.825 416.063 258.363 413.629 255.484C408.521 249.559 405.507 242.117 405.051 234.307C404.802 230.55 405.167 226.776 406.131 223.136C406.583 221.359 407.159 219.617 407.857 217.922C408.577 216.28 409.407 214.687 410.339 213.155C410.777 212.386 411.266 211.648 411.804 210.946C412.338 210.238 412.847 209.518 413.393 208.86C414.51 207.537 415.717 206.293 417.005 205.136C421.82 200.823 427.7 197.875 434.036 196.596C439.059 195.589 444.238 195.664 449.23 196.816C454.221 197.967 458.91 200.169 462.984 203.274C465.769 205.369 468.214 207.881 470.233 210.722C470.991 211.737 471.671 212.808 472.269 213.925C472.542 214.397 472.815 214.831 473.026 215.241L473.535 216.395C473.833 217.053 474.056 217.574 474.23 217.959C474.315 218.139 474.386 218.326 474.441 218.518Z" fill="#263238"/>
<g opacity="0.3">
<path d="M474.317 218.977C474.118 219.064 473.386 217.661 471.834 215.328C469.649 212.043 466.974 209.113 463.902 206.638C461.796 204.973 459.515 203.541 457.1 202.368C454.337 201.047 451.417 200.083 448.41 199.501C446.771 199.188 445.112 198.993 443.445 198.917C441.731 198.838 440.013 198.887 438.306 199.066C436.537 199.246 434.786 199.566 433.068 200.022C429.523 200.954 426.149 202.446 423.075 204.441C420.137 206.352 417.504 208.695 415.267 211.393C414.21 212.658 413.251 214.003 412.4 215.415C410.807 218.034 409.556 220.845 408.676 223.781C407.92 226.362 407.446 229.018 407.261 231.701C407.01 235.626 407.37 239.567 408.328 243.382C408.998 246.112 409.569 247.602 409.346 247.676C409.123 247.751 408.316 246.435 407.31 243.692C405.909 239.823 405.24 235.727 405.337 231.614C405.396 228.76 405.787 225.923 406.503 223.16C407.329 219.989 408.581 216.945 410.227 214.111C411.111 212.57 412.12 211.105 413.244 209.729C414.39 208.277 415.657 206.923 417.03 205.683C418.446 204.386 419.966 203.207 421.573 202.157C423.231 201.08 424.97 200.134 426.774 199.327C428.584 198.536 430.451 197.884 432.36 197.378C434.218 196.901 436.111 196.573 438.021 196.398C439.86 196.214 441.712 196.185 443.557 196.311C445.332 196.427 447.096 196.68 448.832 197.068C454.861 198.325 460.46 201.127 465.081 205.199C468.183 207.9 470.762 211.148 472.691 214.782C474.068 217.363 474.466 218.915 474.317 218.977Z" fill="black"/>
</g>
<g opacity="0.3">
<path d="M458.999 212.46H450.732L442.552 228.051H440.466L431.777 212.46L423.373 212.448L432.062 228.051H425.235V235.387H436.159L437.139 237.162H425.136V244.511H437.897V259.866H445.245V244.511H457.807V237.162H445.94L446.884 235.387H457.907V228.051H450.757L458.999 212.46Z" fill="white"/>
</g>
<path d="M93.1322 514.995C93.1322 514.995 68.79 486.978 59.6166 458.962C50.4432 430.945 54.8003 434.135 54.8003 434.135C54.8003 434.135 67.2135 461.357 76.6103 474.503C86.0071 487.648 102.79 506.939 102.79 506.939L93.1322 514.995Z" fill="#455A64"/>
<path d="M97.9858 438.517C97.8184 438.235 97.5589 438.019 97.251 437.906C96.9432 437.793 96.6057 437.789 96.2954 437.895C95.9851 438.002 95.7209 438.212 95.5472 438.49C95.3735 438.768 95.301 439.098 95.3418 439.423C96.8314 449.267 100.046 472.355 99.9098 487.338C99.7485 506.802 99.9098 514.324 99.9098 514.324H110.039C110.039 514.324 108.239 474.093 105.955 461.829C104.354 453.227 100.953 443.681 97.9858 438.517Z" fill="#455A64"/>
<path d="M103.51 511.047C107.759 501.427 110.57 491.235 111.851 480.796C112.683 473.634 111.194 463.952 108.984 451.005C108.143 446.28 107.728 441.49 107.743 436.692C107.742 436.155 107.92 435.633 108.25 435.209C108.58 434.785 109.041 434.484 109.562 434.352C110.083 434.221 110.633 434.268 111.124 434.485C111.615 434.702 112.02 435.077 112.273 435.55C113.515 437.735 117.04 445.195 117.934 449.863C120.417 462.623 123.172 469.004 121.05 481.094C118.927 493.185 111.119 511.842 111.119 511.842L103.51 511.047Z" fill="#455A64"/>
<path d="M112.633 511.866C112.633 511.866 139.371 454.431 141.184 445.903C142.996 437.375 149.339 417.75 150.072 418.854C150.804 419.959 151.934 430.337 147.117 442.204C142.301 454.071 121.77 513.604 121.77 513.604H112.633" fill="#455A64"/>
<path d="M100.58 509.297C100.321 509.144 100.072 508.974 99.8353 508.788C99.3636 508.428 98.594 507.919 97.7623 507.199C95.2637 505.209 92.869 503.092 90.5875 500.856C83.0551 493.448 76.5316 485.08 71.1857 475.967C65.8554 466.861 61.4237 457.258 57.9532 447.293C56.6126 443.482 55.6319 440.354 54.9864 438.194C54.6637 437.114 54.4402 436.258 54.2789 435.711C54.1845 435.425 54.118 435.13 54.0803 434.83C54.2047 435.103 54.3084 435.385 54.3906 435.674C54.5892 436.295 54.8623 437.114 55.2099 438.157C55.905 440.304 56.9477 443.408 58.338 447.194C61.9067 457.097 66.3734 466.654 71.6822 475.744C77.0168 484.785 83.4594 493.125 90.8606 500.57C93.728 503.413 96.1734 505.536 97.9113 507.025C98.7554 507.77 99.4505 508.267 99.9098 508.689C100.151 508.871 100.376 509.074 100.58 509.297Z" fill="#263238"/>
<path d="M103.51 481.74C103.381 481.185 103.302 480.62 103.274 480.052C103.137 478.81 102.976 477.321 102.777 475.446C102.355 471.561 101.697 466.211 100.754 460.315C99.8105 454.418 98.743 449.143 97.9362 445.307C97.5389 443.47 97.2038 441.955 96.9555 440.789C96.8126 440.239 96.713 439.678 96.6576 439.113C96.8793 439.633 97.0498 440.173 97.1665 440.727C97.4769 441.782 97.8617 443.321 98.321 445.22C99.2395 449.031 100.357 454.319 101.313 460.228C102.268 466.136 102.864 471.511 103.175 475.409C103.336 477.358 103.448 478.947 103.497 480.039C103.545 480.605 103.549 481.173 103.51 481.74Z" fill="#263238"/>
<path d="M109.766 435.128C109.901 435.359 110.009 435.605 110.089 435.861C110.287 436.407 110.56 437.102 110.883 437.996C111.206 438.889 111.653 440.056 112.037 441.409C112.422 442.762 112.944 444.289 113.279 446.015L113.949 448.721C114.173 449.652 114.334 450.645 114.533 451.675C114.967 453.711 115.24 455.92 115.563 458.242C116.135 463.293 116.35 468.378 116.208 473.46C115.986 478.542 115.409 483.602 114.483 488.604C113.986 490.901 113.564 493.085 112.981 495.084C112.695 496.089 112.472 497.07 112.174 498.001C111.876 498.932 111.603 499.801 111.33 500.645C110.821 502.346 110.188 503.823 109.704 505.139C109.22 506.454 108.736 507.621 108.314 508.465C107.891 509.309 107.606 510.017 107.358 510.538C107.253 510.782 107.133 511.018 106.998 511.246C107.056 510.985 107.144 510.731 107.258 510.489L108.102 508.378C108.5 507.472 108.947 506.355 109.344 505.027C109.741 503.699 110.399 502.222 110.883 500.521C111.144 499.677 111.417 498.795 111.69 497.877C111.963 496.958 112.186 495.978 112.46 494.972C113.018 492.974 113.428 490.789 113.899 488.505C114.796 483.529 115.356 478.499 115.575 473.448C115.721 468.392 115.522 463.332 114.979 458.304C114.669 455.995 114.421 453.785 114.011 451.762C113.813 450.744 113.664 449.751 113.453 448.808C113.242 447.864 113.031 446.97 112.832 446.114C112.472 444.376 111.988 442.862 111.591 441.509C111.193 440.156 110.858 439.026 110.535 438.07C110.213 437.114 110.014 436.444 109.84 435.898C109.799 435.643 109.774 435.386 109.766 435.128Z" fill="#263238"/>
<path d="M149.811 420.009C149.816 420.096 149.816 420.183 149.811 420.269L149.687 421.014C149.575 421.672 149.426 422.64 149.165 423.869C148.644 426.352 147.788 429.902 146.447 434.209C145.106 438.517 143.294 443.594 141.134 449.105C138.974 454.617 136.467 460.724 134.096 467.179C131.725 473.634 129.826 479.903 128.088 485.613C126.35 491.323 124.711 496.437 123.123 500.67C121.897 504.018 120.488 507.296 118.902 510.489C118.356 511.631 117.859 512.475 117.537 513.058L117.164 513.716C117.128 513.792 117.082 513.863 117.028 513.927C117.028 513.927 117.028 513.84 117.115 513.691L117.437 513.008C117.723 512.4 118.182 511.544 118.679 510.389C119.746 508.118 121.161 504.766 122.713 500.521C124.265 496.275 125.841 491.174 127.542 485.451C129.242 479.729 131.104 473.435 133.525 466.98C135.945 460.525 138.416 454.468 140.6 448.919C142.785 443.37 144.647 438.343 146.025 434.023C147.403 429.704 148.334 426.203 148.905 423.745C149.203 422.504 149.389 421.56 149.538 420.915C149.612 420.629 149.674 420.381 149.712 420.183C149.739 420.121 149.772 420.063 149.811 420.009Z" fill="#263238"/>
<path d="M67.3873 407.323C67.0151 406.997 66.5478 406.8 66.0548 406.761C65.5618 406.723 65.0694 406.844 64.651 407.108C64.2326 407.371 63.9105 407.763 63.7325 408.224C63.5546 408.686 63.5303 409.192 63.6633 409.669C64.5771 412.639 65.697 415.543 67.0149 418.358C70.7389 426.166 81.4887 454.182 86.5409 469.575C91.5931 484.967 98.7058 513.666 98.7058 513.666L109.505 511.916C109.505 511.916 99.5747 464.746 89.9793 447.752C82.1714 434.048 74.4256 414.299 67.3873 407.323Z" fill="#455A64"/>
<path d="M89.4331 479.145C89.6542 479.541 89.8371 479.956 89.9793 480.387C90.302 481.231 90.7365 482.472 91.2206 484.011C92.2137 487.09 93.4302 491.385 94.6466 496.164C95.8631 500.943 96.8934 505.287 97.601 508.44C97.9237 509.93 98.1968 511.184 98.4078 512.164C98.5348 512.618 98.6098 513.084 98.6313 513.555C98.443 513.123 98.2975 512.674 98.1968 512.214C97.9361 511.233 97.601 509.992 97.2038 508.49C96.3845 505.238 95.3046 501.042 94.1005 496.251C92.8964 491.459 91.7171 487.177 90.8358 484.073C90.4013 482.621 90.0414 481.392 89.7559 480.349C89.6125 479.958 89.5045 479.555 89.4331 479.145Z" fill="#263238"/>
<path d="M104.068 512.748C104.037 512.651 104.016 512.551 104.006 512.45L103.882 511.606C103.77 510.861 103.671 509.756 103.448 508.341C103.05 505.499 102.343 501.415 101.176 496.437C99.8016 490.605 98.1193 484.849 96.1362 479.195C93.9143 472.802 91.1709 465.901 87.9932 458.751C81.65 444.475 75.3069 431.801 71.136 422.442C69.0382 417.762 67.4121 413.951 66.3321 411.27C65.7859 409.954 65.3887 408.911 65.0908 408.204C64.9667 407.881 64.8674 407.608 64.7929 407.397C64.7513 407.306 64.7221 407.21 64.706 407.112C64.7656 407.19 64.8117 407.278 64.8425 407.372C64.9418 407.583 65.0536 407.844 65.2025 408.154L66.4438 411.183C67.5858 413.815 69.274 417.601 71.4091 422.243C75.6668 431.566 82.0596 444.19 88.4152 458.49C91.5682 465.652 94.3363 472.579 96.5334 478.996C98.5109 484.692 100.169 490.494 101.499 496.375C102.4 500.321 103.096 504.311 103.584 508.329C103.783 509.756 103.845 510.811 103.919 511.618C103.919 511.966 103.919 512.251 103.994 512.475C104.032 512.562 104.057 512.654 104.068 512.748Z" fill="#263238"/>
<path d="M109.443 511.866C109.263 511.275 109.138 510.669 109.071 510.054C108.86 508.813 108.574 507.112 108.239 505.089C107.494 500.918 106.352 495.158 104.726 488.89C103.1 482.621 101.288 477.035 99.8851 473.026L98.1969 468.284C97.9632 467.715 97.7724 467.13 97.6259 466.533C97.9295 467.071 98.1909 467.631 98.4079 468.209C98.8672 469.302 99.5251 470.903 100.27 472.889C102.207 478.08 103.865 483.372 105.235 488.741C106.628 494.11 107.751 499.545 108.599 505.027C108.897 507.137 109.133 508.838 109.257 509.992C109.364 510.612 109.426 511.238 109.443 511.866Z" fill="#263238"/>
<path d="M131.588 510.315H89.4704V561.631H131.588V510.315Z" fill="#F97316"/>
<g opacity="0.3">
<path d="M131.588 510.315H89.4704V561.631H131.588V510.315Z" fill="black"/>
</g>
<path d="M118.145 510.315H80.7811V561.631H118.145V510.315Z" fill="#F97316"/>
<path d="M333.129 341.558L347.789 408.589L390.292 453.19L360.426 522.07L372.293 541.224C372.293 541.224 436.245 469.997 434.483 452.432C431.454 421.834 366.595 357.67 352.009 345.617C347.106 341.558 333.129 341.558 333.129 341.558Z" fill="#FFBE9D"/>
<path d="M412.611 443.172C412.611 443.333 411.109 443.172 408.775 443.371C402.621 443.9 396.908 446.781 392.824 451.414C391.273 453.177 390.528 454.468 390.342 454.381C390.715 453.12 391.359 451.955 392.228 450.967C394.183 448.443 396.675 446.387 399.525 444.948C402.375 443.51 405.509 442.725 408.701 442.651C410.027 442.533 411.362 442.711 412.611 443.172Z" fill="#FDE0CC"/>
<path d="M334.842 351.935C334.842 351.935 347.479 389.286 347.839 410.277C348.012 420.108 343.618 476.551 343.618 506.219L364.547 561.644H190.911L209.928 499.516L194.362 387.201L217.227 360.339L334.842 351.935Z" fill="#FA8433"/>
<path d="M249.352 196.211C242.488 189.595 226.773 191.693 223.285 196.571C220.401 195.437 217.192 195.455 214.322 196.622C211.452 197.789 209.141 200.015 207.867 202.84L191.321 207.619C188.49 208.438 185.536 209.32 183.463 211.405C181.39 213.49 180.596 217.152 182.569 219.337C176.748 221.261 175.01 230.223 179.677 234.233C179.154 234.927 178.778 235.72 178.572 236.564C178.366 237.408 178.335 238.285 178.481 239.142C178.626 239.998 178.945 240.816 179.417 241.545C179.89 242.274 180.506 242.899 181.229 243.381C176.949 249.26 173.704 255.825 171.633 262.796C170.777 265.7 170.144 268.928 171.385 271.696C172.626 274.464 176.487 276.177 178.833 274.179C178.085 275.399 177.705 276.809 177.738 278.24C177.771 279.671 178.216 281.062 179.019 282.247C176.177 282.508 175.618 286.952 177.703 288.888C179.789 290.825 182.979 290.837 185.822 290.589C188.664 290.341 191.718 289.981 194.163 291.445C194.161 291.794 194.089 292.139 193.95 292.459C193.812 292.779 193.61 293.068 193.356 293.307C188.739 297.602 187.795 304.479 191.792 309.444C192.165 309.904 192.512 310.313 192.81 310.686C194.61 312.908 198.818 314.782 201.437 315.937C208.091 318.866 211.864 317.972 219.114 318.543C217.463 323.298 229.777 332.769 242.438 321.833C269.511 327.233 288.851 328.685 316.396 326.947C320.331 326.699 325.011 325.855 326.525 322.218C329.765 322.863 333.104 321.15 335.314 318.692C337.374 316.089 338.97 313.149 340.031 310.003C343.363 308.797 346.239 306.589 348.264 303.681C350.289 300.773 351.363 297.31 351.339 293.767C353.522 291.8 355.272 289.4 356.477 286.72C357.683 284.04 358.317 281.139 358.34 278.2C364.82 275.718 367.898 266.929 364.348 260.971C362.394 252.939 359.118 245.287 354.654 238.329C359.097 237.088 360.401 230.881 358.266 226.773C356.131 222.664 351.861 220.231 347.814 218.009C351.24 218.679 353.896 214.285 352.866 210.921C351.836 207.557 348.646 205.447 345.53 203.845C340.973 201.506 336.151 199.727 331.168 198.545C329.169 192.711 321.15 186.467 315.428 184.195C292.339 175.072 276.475 173.421 249.315 196.199" fill="#263238"/>
<path d="M315.006 278.635C315.805 277.599 316.845 276.772 318.035 276.227H317.786C318.004 276.146 318.228 276.084 318.457 276.041C318.856 275.89 319.28 275.821 319.707 275.836C320.133 275.851 320.552 275.95 320.939 276.128C322.387 276.508 323.64 277.415 324.452 278.672C325.095 279.795 325.419 281.071 325.389 282.365C325.358 283.658 324.974 284.918 324.278 286.008C323.789 286.987 323.016 287.794 322.059 288.323C321.102 288.853 320.007 289.08 318.919 288.976C317.83 288.871 316.799 288.439 315.961 287.736C315.123 287.034 314.517 286.094 314.224 285.04C313.802 283.994 313.653 282.857 313.79 281.737C313.927 280.617 314.345 279.55 315.006 278.635Z" fill="#FA8433"/>
<path d="M314.509 234.792C311.704 219.499 299.254 201.797 284.085 205.236L237.56 223.036C235.337 223.543 233.385 224.864 232.089 226.739C230.793 228.614 230.247 230.907 230.559 233.166L244.35 335.736C245.224 342.217 248.309 348.198 253.084 352.667C257.858 357.136 264.029 359.82 270.554 360.264C274.607 360.538 278.671 359.938 282.473 358.507C286.274 357.075 289.724 354.844 292.589 351.964C295.454 349.085 297.668 345.624 299.081 341.816C300.494 338.008 301.074 333.941 300.78 329.889C300.259 322.814 299.874 317.476 299.874 317.476C299.874 317.476 319.189 311.878 320.219 285.698C320.741 272.664 317.613 251.798 314.509 234.792Z" fill="#FFBE9D"/>
<path d="M304.479 255.41C304.594 256.271 304.367 257.142 303.847 257.838C303.328 258.534 302.557 258.999 301.699 259.134C301.285 259.213 300.86 259.208 300.448 259.121C300.037 259.035 299.646 258.867 299.3 258.628C298.953 258.389 298.658 258.083 298.43 257.729C298.203 257.375 298.048 256.979 297.975 256.564C297.854 255.702 298.078 254.828 298.599 254.13C299.12 253.433 299.895 252.969 300.755 252.84C301.169 252.76 301.595 252.763 302.007 252.849C302.42 252.935 302.811 253.103 303.158 253.342C303.505 253.581 303.8 253.888 304.027 254.243C304.254 254.598 304.408 254.994 304.479 255.41Z" fill="#263238"/>
<path d="M309.01 245.479C308.662 245.951 305.944 244.399 302.394 244.834C298.844 245.268 296.46 247.317 296.026 246.957C295.815 246.783 296.138 245.951 297.18 244.995C298.584 243.75 300.342 242.973 302.208 242.773C304.053 242.541 305.923 242.906 307.545 243.816C308.737 244.474 309.196 245.206 309.01 245.479Z" fill="#263238"/>
<path d="M270.082 258.575C270.2 259.439 269.972 260.313 269.45 261.01C268.927 261.707 268.151 262.17 267.289 262.299C266.877 262.382 266.451 262.38 266.039 262.296C265.626 262.211 265.235 262.045 264.888 261.806C264.541 261.568 264.245 261.263 264.018 260.908C263.791 260.554 263.637 260.157 263.565 259.742C263.448 258.883 263.672 258.011 264.189 257.315C264.707 256.619 265.477 256.153 266.334 256.018C266.748 255.937 267.174 255.94 267.588 256.025C268.001 256.11 268.393 256.276 268.742 256.514C269.091 256.752 269.389 257.056 269.619 257.41C269.849 257.764 270.006 258.16 270.082 258.575Z" fill="#263238"/>
<path d="M275.395 249.712C275.035 250.196 272.317 248.645 268.779 249.067C265.241 249.489 262.846 251.549 262.411 251.189C262.2 251.016 262.523 250.196 263.566 249.241C264.967 247.989 266.725 247.207 268.593 247.006C270.439 246.783 272.308 247.152 273.931 248.061C275.11 248.769 275.582 249.501 275.395 249.712Z" fill="#263238"/>
<path d="M292.426 275.792C292.426 275.594 294.536 274.961 298.062 274.079C298.956 273.868 299.787 273.595 299.862 272.962C299.833 272.015 299.512 271.1 298.943 270.343L295.455 263.764C290.564 254.392 286.927 246.634 287.3 246.448C287.672 246.261 291.942 253.697 296.82 263.069C298.062 265.39 299.142 267.587 300.209 269.697C300.911 270.722 301.227 271.962 301.103 273.198C301.01 273.533 300.843 273.842 300.613 274.102C300.382 274.363 300.096 274.567 299.775 274.7C299.29 274.9 298.781 275.033 298.26 275.097C294.723 275.718 292.501 275.991 292.426 275.792Z" fill="#263238"/>
<path d="M299.874 317.476C287.8 319.094 275.514 317.327 264.385 312.374C264.385 312.374 274.824 329.033 300.246 323.546L299.874 317.476Z" fill="#FDE0CC"/>
<path d="M292.935 284.295C291.997 283.221 290.813 282.389 289.483 281.873C288.153 281.356 286.718 281.169 285.301 281.329C284.376 281.449 283.494 281.793 282.733 282.332C281.971 282.87 281.353 283.587 280.931 284.419C280.471 285.38 280.313 286.457 280.479 287.509C280.645 288.561 281.127 289.537 281.861 290.309C282.595 291.08 283.546 291.611 284.588 291.829C285.631 292.048 286.715 291.944 287.697 291.532C289.595 290.656 291.256 289.336 292.538 287.684C292.961 287.272 293.287 286.772 293.494 286.219C293.599 285.919 293.622 285.597 293.561 285.285C293.5 284.973 293.357 284.683 293.146 284.444" fill="#FDE0CC"/>
<path d="M282.309 279.479C282.88 279.38 283.352 283.203 286.964 285.574C290.577 287.945 294.636 287.002 294.723 287.535C294.81 287.771 293.903 288.392 292.178 288.653C289.925 288.95 287.64 288.444 285.723 287.225C283.883 286.053 282.574 284.209 282.074 282.086C281.726 280.497 282.049 279.492 282.309 279.479Z" fill="#263238"/>
<path d="M276.289 236.244C276.053 237.249 272.453 237.212 268.357 238.205C264.261 239.198 261.021 240.688 260.375 239.931C260.077 239.546 260.549 238.565 261.803 237.448C263.477 236.088 265.44 235.128 267.542 234.641C269.644 234.155 271.829 234.156 273.931 234.643C275.544 235.102 276.413 235.76 276.289 236.244Z" fill="#263238"/>
<path d="M308.563 234.183C308.03 235.052 305.485 234.506 302.543 234.816C299.601 235.127 297.18 236.058 296.51 235.226C296.212 234.854 296.51 233.985 297.503 233.103C298.848 232 300.499 231.337 302.233 231.204C303.957 231.031 305.693 231.4 307.198 232.259C308.352 232.967 308.787 233.749 308.563 234.183Z" fill="#263238"/>
<path d="M326.997 246.336C326.604 242.259 324.804 238.445 321.908 235.549C320.281 234.034 318.271 232.942 316.793 231.279C313.616 227.679 313.628 222.354 312.064 217.823C311.021 214.898 309.296 212.264 307.031 210.14C304.766 208.016 302.028 206.462 299.042 205.608C294.077 204.23 288.603 204.863 283.886 202.79C280.41 201.251 277.679 198.359 274.055 197.031C267.103 194.449 259.556 198.471 253.474 202.716C252.58 207.855 256.105 211.989 259.482 215.961C261.198 217.93 263.321 219.505 265.703 220.576C268.086 221.648 270.673 222.19 273.285 222.167C277.332 222.167 281.974 220.852 285.003 223.52C288.032 226.189 287.486 231.738 290.142 235.028C294.003 239.72 301.835 237.249 307.297 239.931C311.505 242.004 313.504 246.708 315.912 250.78C318.32 254.851 322.119 258.997 326.761 258.426C327.301 254.418 327.38 250.362 326.997 246.336Z" fill="#263238"/>
<path d="M264.199 211.169C252.382 211.868 240.812 214.843 230.124 219.933C226.947 221.447 223.694 223.322 222.043 226.437C220.603 229.168 220.641 232.421 220.901 235.511C221.721 245.157 226.487 256.688 230.832 265.303L243.431 271.634C252.555 268.754 247.155 253.014 246.075 245.032C249.197 243.317 251.775 240.76 253.517 237.653C255.259 234.547 256.096 231.014 255.931 227.455C258.441 225.533 260.487 223.072 261.918 220.253C263.349 217.434 264.128 214.33 264.199 211.169Z" fill="#263238"/>
<path d="M242.997 268.233C242.215 262.734 235.363 262.163 230.819 265.353C228.337 267.103 226.599 270.318 227.369 276.177C229.404 291.756 244.623 286.493 244.586 286.033C244.548 285.574 243.891 274.663 242.997 268.233Z" fill="#FFBE9D"/>
<path d="M239.049 280.758C238.975 280.758 238.801 280.993 238.367 281.254C237.76 281.621 237.032 281.733 236.343 281.565C234.618 281.18 232.892 278.747 232.446 275.954C232.235 274.623 232.32 273.263 232.694 271.969C232.776 271.463 232.98 270.984 233.29 270.575C233.599 270.166 234.004 269.839 234.469 269.623C234.768 269.499 235.101 269.485 235.41 269.583C235.719 269.68 235.983 269.884 236.157 270.157C236.43 270.554 236.368 270.889 236.455 270.902C236.542 270.914 236.753 270.591 236.542 269.971C236.407 269.598 236.149 269.282 235.81 269.077C235.339 268.809 234.781 268.738 234.258 268.878C233.641 269.09 233.088 269.457 232.653 269.944C232.219 270.431 231.916 271.021 231.775 271.659C231.29 273.096 231.162 274.63 231.403 276.128C231.912 279.256 233.886 281.974 236.244 282.334C236.687 282.406 237.141 282.376 237.571 282.247C238.001 282.118 238.396 281.893 238.727 281.589C239.049 281.142 239.112 280.782 239.049 280.758Z" fill="#FDE0CC"/>
<path d="M230.571 284.904C231.373 283.87 232.412 283.044 233.6 282.496H233.352C233.57 282.416 233.794 282.354 234.022 282.309C234.43 282.151 234.866 282.076 235.303 282.091C235.741 282.106 236.171 282.21 236.567 282.396C238.014 282.776 239.267 283.684 240.08 284.941C240.723 286.063 241.047 287.34 241.016 288.633C240.986 289.926 240.602 291.187 239.906 292.277C239.417 293.255 238.643 294.062 237.686 294.592C236.73 295.122 235.635 295.349 234.546 295.244C233.458 295.139 232.427 294.707 231.588 294.005C230.75 293.302 230.145 292.362 229.851 291.309C229.425 290.267 229.267 289.134 229.393 288.014C229.518 286.895 229.924 285.825 230.571 284.904Z" fill="#FA8433"/>
<path d="M237.808 287.461V287.672C237.788 287.886 237.734 288.096 237.647 288.292C237.292 289.05 236.693 289.667 235.946 290.043C234.764 290.665 233.467 291.037 232.135 291.135C231.31 291.214 230.478 291.214 229.653 291.135C228.694 291.074 227.751 290.86 226.86 290.502L227.033 290.403C226.915 291.743 226.451 293.029 225.688 294.137C224.925 295.245 223.889 296.136 222.679 296.725C221.469 297.313 220.128 297.579 218.786 297.495C217.443 297.412 216.145 296.983 215.017 296.249L215.278 296.187C214.855 296.93 214.154 297.475 213.329 297.702C212.499 297.95 211.615 297.95 210.784 297.702C209.918 297.454 209.159 296.926 208.625 296.2C208.093 295.467 207.751 294.614 207.632 293.717C207.431 291.837 207.902 289.946 208.96 288.379C210.054 286.789 211.338 285.339 212.783 284.06V284.42C212.104 284.056 211.508 283.555 211.033 282.948C210.559 282.341 210.216 281.641 210.027 280.894C209.611 279.369 209.65 277.755 210.139 276.252C210.698 274.737 211.541 273.342 212.622 272.143C213.709 270.938 214.869 269.802 216.097 268.742V269.064C215.493 268.498 215.014 267.81 214.691 267.047C214.368 266.284 214.209 265.461 214.223 264.633C214.211 262.933 214.708 261.269 215.65 259.854C217.475 257.148 220.293 255.509 222.887 253.97L222.776 254.255C222.25 252.656 222.121 250.952 222.398 249.291C222.675 247.63 223.351 246.061 224.368 244.719C225.384 243.376 226.711 242.3 228.235 241.583C229.759 240.866 231.433 240.529 233.116 240.601L232.892 240.886C232.542 239.561 232.5 238.172 232.769 236.827C233.038 235.483 233.611 234.217 234.444 233.128C235.175 232.085 236.122 231.213 237.221 230.57C238.32 229.927 239.545 229.53 240.812 229.404L240.638 229.615C240.574 228.282 240.814 226.952 241.341 225.726C241.868 224.5 242.668 223.41 243.679 222.54C244.538 221.746 245.547 221.133 246.648 220.738C247.749 220.344 248.917 220.175 250.085 220.243L249.923 220.417C249.903 218.989 250.236 217.577 250.892 216.308C251.437 215.181 252.167 214.153 253.051 213.267C254.429 211.815 256.25 210.863 258.228 210.561L258.824 210.474H259.37C259.705 210.454 260.04 210.454 260.375 210.474C260.887 210.538 261.394 210.642 261.89 210.784L262.796 211.095L263.094 211.206C262.987 211.199 262.882 211.173 262.783 211.132L261.877 210.871C261.38 210.745 260.873 210.653 260.363 210.598C260.032 210.579 259.701 210.579 259.37 210.598H258.836L258.253 210.685C256.347 211.023 254.604 211.973 253.287 213.391C252.43 214.27 251.725 215.285 251.202 216.395C250.581 217.622 250.266 218.98 250.283 220.355V220.529H250.11C248.986 220.466 247.862 220.633 246.806 221.02C245.749 221.406 244.783 222.003 243.965 222.776C243.003 223.614 242.242 224.659 241.741 225.833C241.241 227.006 241.012 228.278 241.073 229.553V229.752H240.887C239.678 229.879 238.512 230.266 237.466 230.885C236.421 231.504 235.521 232.341 234.829 233.339C234.026 234.383 233.475 235.598 233.218 236.89C232.962 238.182 233.008 239.516 233.352 240.787L233.439 241.085H233.128C231.514 241.002 229.903 241.314 228.437 241.995C226.97 242.676 225.692 243.704 224.714 244.991C223.735 246.278 223.086 247.785 222.821 249.38C222.557 250.975 222.686 252.61 223.198 254.144L223.26 254.318L223.098 254.417C220.504 255.956 217.761 257.57 216.023 260.164C215.134 261.498 214.662 263.067 214.67 264.67C214.653 265.431 214.797 266.187 215.092 266.889C215.387 267.59 215.827 268.222 216.383 268.742L216.594 268.915L216.383 269.089C213.987 271.237 211.567 273.484 210.586 276.401C210.125 277.816 210.091 279.335 210.487 280.77C210.65 281.456 210.955 282.099 211.383 282.659C211.811 283.22 212.351 283.684 212.969 284.022L213.255 284.159L213.031 284.382C211.622 285.632 210.372 287.049 209.307 288.603C208.309 290.092 207.869 291.886 208.066 293.667C208.12 294.501 208.42 295.3 208.928 295.963C209.437 296.626 210.13 297.123 210.921 297.391C211.639 297.668 212.429 297.697 213.165 297.472C213.901 297.247 214.54 296.781 214.98 296.15L215.067 295.976L215.241 296.076C216.418 296.834 217.782 297.252 219.182 297.282C220.582 297.313 221.964 296.955 223.173 296.249C224.177 295.635 225.027 294.798 225.657 293.804C226.287 292.81 226.682 291.685 226.81 290.514V290.341L226.971 290.403C227.838 290.757 228.756 290.971 229.69 291.036C230.515 291.116 231.347 291.116 232.172 291.036C233.468 290.951 234.734 290.609 235.896 290.03C236.632 289.673 237.229 289.085 237.597 288.355C237.808 287.759 237.808 287.461 237.808 287.461Z" fill="#FA8433"/>
<path d="M176.983 275.085C176.732 274.807 176.512 274.503 176.326 274.179C175.773 273.25 175.415 272.22 175.27 271.15C175.024 269.439 175.347 267.694 176.189 266.184C176.759 265.175 177.534 264.295 178.464 263.603C179.394 262.91 180.458 262.42 181.589 262.163L181.477 262.361C180.759 259.742 181.061 256.947 182.321 254.541C182.999 253.19 183.965 252.003 185.151 251.065C186.446 250.155 187.826 249.374 189.273 248.732C189.989 248.373 190.649 247.914 191.234 247.366C191.797 246.791 192.222 246.095 192.475 245.33C193.059 243.791 193.145 241.991 193.915 240.365C194.729 238.65 196.038 237.219 197.673 236.254C199.308 235.289 201.194 234.836 203.088 234.953L202.84 235.226C202.434 233.346 202.464 231.397 202.929 229.53C203.394 227.663 204.281 225.928 205.522 224.458C206.764 222.988 208.325 221.822 210.088 221.051C211.85 220.279 213.766 219.922 215.688 220.007L215.44 220.293C215.062 218.222 215.284 216.087 216.081 214.138C216.877 212.19 218.214 210.51 219.934 209.297C221.653 208.083 223.684 207.387 225.787 207.29C227.889 207.193 229.976 207.699 231.8 208.749H231.552C233.001 207.146 234.779 205.875 236.765 205.025C238.526 204.223 240.383 203.651 242.289 203.324C245.372 202.771 248.529 202.771 251.612 203.324C253.593 203.641 255.509 204.278 257.284 205.211C257.752 205.453 258.2 205.731 258.625 206.043C258.923 206.241 259.06 206.353 259.06 206.353C259.06 206.353 258.439 205.943 257.222 205.31C255.438 204.435 253.528 203.84 251.562 203.547C248.507 203.055 245.389 203.106 242.351 203.696C240.476 204.029 238.653 204.605 236.927 205.409C234.984 206.268 233.252 207.538 231.85 209.133L231.738 209.258L231.602 209.171C229.847 208.17 227.844 207.69 225.826 207.788C223.809 207.887 221.861 208.559 220.212 209.725C218.563 210.892 217.282 212.505 216.518 214.374C215.754 216.244 215.539 218.293 215.899 220.28V220.566H215.601C213.747 220.476 211.898 220.814 210.195 221.554C208.493 222.293 206.984 223.414 205.784 224.83C204.584 226.246 203.726 227.919 203.276 229.719C202.825 231.52 202.795 233.4 203.188 235.214L203.262 235.524H202.939C201.145 235.425 199.362 235.861 197.815 236.776C196.269 237.69 195.028 239.043 194.25 240.663C193.518 242.239 193.419 244.015 192.798 245.628C192.509 246.45 192.033 247.194 191.408 247.801C190.793 248.377 190.099 248.861 189.347 249.24C187.914 249.862 186.547 250.623 185.263 251.512C184.12 252.408 183.188 253.544 182.532 254.839C181.298 257.163 180.983 259.866 181.651 262.411V262.572H181.489C180.393 262.809 179.359 263.273 178.452 263.934C177.546 264.594 176.788 265.437 176.226 266.408C175.387 267.878 175.047 269.581 175.258 271.261C175.386 272.319 175.715 273.343 176.226 274.278C176.772 274.774 176.983 275.072 176.983 275.085Z" fill="#FA8433"/>
<path d="M326.898 268.419C326.785 268.235 326.713 268.029 326.685 267.815C326.657 267.602 326.675 267.384 326.736 267.178C326.889 266.66 327.171 266.19 327.556 265.812C328.096 265.322 328.729 264.947 329.418 264.707C330.264 264.41 331.062 263.992 331.789 263.466C332.584 262.782 333.137 261.859 333.365 260.834C333.637 259.65 333.683 258.424 333.502 257.222C333.353 255.981 333.042 254.578 332.943 253.113C332.695 250.159 333.737 247.056 334.259 243.729C334.546 242.014 334.491 240.259 334.097 238.565C333.902 237.681 333.519 236.849 332.972 236.127C332.426 235.405 331.73 234.81 330.932 234.382C329.13 233.661 327.245 233.169 325.321 232.917C324.297 232.718 323.314 232.344 322.417 231.812C321.512 231.234 320.769 230.435 320.257 229.491C319.352 227.559 318.653 225.537 318.171 223.458C317.88 222.436 317.441 221.461 316.868 220.566C316.271 219.689 315.396 219.038 314.385 218.716C312.946 218.439 311.478 218.343 310.016 218.431C309.254 218.432 308.498 218.302 307.781 218.046C307.063 217.772 306.43 217.314 305.944 216.718C305.124 215.519 304.477 214.211 304.02 212.833C303.528 211.558 302.771 210.403 301.798 209.444C300.876 208.524 299.774 207.804 298.561 207.33C297.347 206.856 296.049 206.637 294.748 206.688C292.309 206.807 290.005 207.84 288.293 209.58L288.094 209.779L287.957 209.531C286.923 207.669 285.501 206.051 283.788 204.785C282.075 203.52 280.11 202.636 278.027 202.195C276.294 201.829 274.506 201.803 272.764 202.12C271.281 202.368 269.856 202.881 268.556 203.634C266.238 205.005 264.48 207.151 263.59 209.692C263.529 209.821 263.475 209.954 263.429 210.089L263.367 210.226C263.367 210.226 263.367 210.226 263.367 210.077C263.367 209.928 263.454 209.841 263.503 209.667C263.666 209.131 263.869 208.608 264.112 208.103C265.041 206.16 266.522 204.532 268.369 203.423C269.69 202.641 271.141 202.102 272.652 201.835C274.427 201.487 276.252 201.487 278.027 201.835C280.154 202.282 282.161 203.177 283.914 204.462C285.667 205.746 287.126 207.389 288.193 209.282H287.871C289.652 207.452 292.06 206.366 294.611 206.241C295.973 206.187 297.332 206.413 298.602 206.906C299.873 207.4 301.028 208.149 301.997 209.109C303.015 210.111 303.81 211.316 304.331 212.646C304.771 213.97 305.398 215.224 306.192 216.37C306.654 216.896 307.229 217.309 307.874 217.578C308.52 217.847 309.218 217.965 309.916 217.922C311.421 217.826 312.931 217.926 314.41 218.22C315.514 218.577 316.467 219.294 317.116 220.256C317.721 221.186 318.182 222.203 318.482 223.272C318.958 225.319 319.644 227.312 320.53 229.218C321.001 230.1 321.689 230.847 322.528 231.39C323.383 231.888 324.314 232.241 325.284 232.433C327.247 232.697 329.17 233.206 331.006 233.948C331.883 234.397 332.638 235.053 333.204 235.859C333.741 236.639 334.132 237.509 334.358 238.429C334.772 240.175 334.822 241.987 334.507 243.754C333.961 247.13 332.918 250.184 333.142 253.064C333.228 254.491 333.526 255.844 333.663 257.148C333.847 258.389 333.788 259.653 333.489 260.872C333.235 261.943 332.643 262.905 331.801 263.615C331.039 264.148 330.202 264.567 329.318 264.856C328.638 265.068 328.012 265.424 327.481 265.899C327.108 266.237 326.826 266.664 326.662 267.14C326.581 267.581 326.665 268.036 326.898 268.419Z" fill="#FA8433"/>
<path d="M355.485 241.979L355.312 241.706L354.815 240.862L352.953 237.585C352.134 236.169 351.215 234.382 349.924 232.458C348.572 230.218 346.614 228.407 344.276 227.232C342.96 226.636 341.471 226.289 339.956 225.742C339.168 225.475 338.417 225.108 337.722 224.65C336.995 224.159 336.399 223.499 335.984 222.726C335.128 221.149 334.966 219.312 334.246 217.686C333.917 216.855 333.341 216.144 332.595 215.65C331.786 215.183 330.905 214.852 329.989 214.67C329.016 214.476 328.064 214.189 327.146 213.813C326.181 213.388 325.377 212.666 324.85 211.753C323.77 209.928 323.608 207.78 323.074 205.794C322.852 204.786 322.43 203.832 321.833 202.989C321.185 202.185 320.251 201.665 319.226 201.537C317.141 201.264 314.981 202.145 312.672 201.946C311.509 201.832 310.413 201.349 309.544 200.568C308.733 199.829 308.012 198.995 307.397 198.086C306.811 197.192 306.172 196.334 305.485 195.516C304.831 194.707 303.974 194.086 303.002 193.716C301.078 192.996 298.993 193.605 297.106 194.2C295.227 194.935 293.212 195.257 291.197 195.144C289.313 194.814 287.505 194.145 285.86 193.17C284.34 192.273 282.735 191.529 281.068 190.948C278 190.157 274.766 190.286 271.771 191.321C269.289 192.154 267.027 193.537 265.154 195.367C263.76 196.77 262.588 198.378 261.679 200.134C261.128 201.258 260.667 202.425 260.301 203.622L260.003 204.553C259.981 204.661 259.944 204.766 259.891 204.863C259.9 204.753 259.925 204.644 259.966 204.541C259.966 204.305 260.102 203.982 260.214 203.585C260.538 202.368 260.975 201.184 261.517 200.047C262.402 198.255 263.562 196.613 264.956 195.181C266.845 193.3 269.137 191.874 271.659 191.01C274.719 189.926 278.032 189.771 281.18 190.563C282.874 191.149 284.508 191.897 286.058 192.798C287.661 193.737 289.418 194.384 291.247 194.709C293.201 194.814 295.155 194.488 296.969 193.754C297.951 193.431 298.955 193.182 299.973 193.009C301.043 192.827 302.141 192.921 303.164 193.282C304.193 193.69 305.103 194.352 305.808 195.206C306.528 196.025 307.123 196.931 307.757 197.813C308.343 198.719 309.035 199.552 309.817 200.295C310.617 201.002 311.621 201.437 312.685 201.537C314.832 201.735 316.992 200.854 319.264 201.139C320.407 201.282 321.449 201.866 322.168 202.765C322.81 203.653 323.262 204.663 323.496 205.732C324.03 207.78 324.216 209.891 325.21 211.591C325.698 212.418 326.431 213.073 327.307 213.466C328.2 213.836 329.128 214.119 330.075 214.31C331.034 214.502 331.953 214.854 332.794 215.352C333.611 215.89 334.244 216.666 334.606 217.574C335.351 219.3 335.5 221.125 336.307 222.602C337.144 223.989 338.474 225.008 340.031 225.457C341.508 226.003 343.022 226.363 344.376 226.984C346.752 228.205 348.735 230.073 350.098 232.371C351.339 234.332 352.27 236.095 353.065 237.56L354.852 240.874L355.299 241.743C355.37 241.815 355.432 241.894 355.485 241.979Z" fill="#FA8433"/>
<path d="M337.647 226.859L337.933 226.797C338.22 226.764 338.512 226.806 338.777 226.922C339.267 227.185 339.684 227.565 339.992 228.029C340.299 228.492 340.487 229.024 340.54 229.578C340.595 230.368 340.537 231.163 340.366 231.936C340.166 232.836 340.099 233.761 340.167 234.68C340.35 235.712 340.799 236.68 341.471 237.485C342.153 238.379 342.997 239.248 343.693 240.328C344.101 240.882 344.375 241.524 344.493 242.203C344.612 242.881 344.571 243.578 344.375 244.238C343.978 245.603 343.134 246.795 342.712 248.185C342.407 249.652 342.673 251.179 343.457 252.455C344.164 253.833 345.145 255.162 345.853 256.701C346.234 257.478 346.465 258.32 346.535 259.183C346.59 260.079 346.455 260.976 346.138 261.815C345.394 263.451 344.505 265.017 343.482 266.495C342.443 267.97 342 269.784 342.24 271.572C342.79 273.369 343.553 275.095 344.512 276.711C344.95 277.597 345.219 278.557 345.306 279.541C345.344 280.525 345.161 281.504 344.773 282.409C343.941 284.078 342.916 285.645 341.719 287.076C340.608 288.438 339.788 290.014 339.311 291.706C339.009 293.387 338.594 295.046 338.069 296.671C337.753 297.466 337.261 298.179 336.63 298.757C335.997 299.294 335.274 299.714 334.494 299.998C333.775 300.271 333.071 300.582 332.384 300.929C331.75 301.304 331.169 301.763 330.659 302.294C329.737 303.367 328.96 304.556 328.35 305.832C327.717 307.074 327.109 308.24 326.451 309.32C325.258 311.31 323.45 312.857 321.299 313.727C319.693 314.393 317.958 314.69 316.222 314.596C315.134 314.532 314.063 314.302 313.044 313.913C312.689 313.774 312.344 313.608 312.014 313.417C313.351 313.997 314.78 314.333 316.235 314.41C317.938 314.474 319.635 314.155 321.2 313.479C323.279 312.608 325.021 311.088 326.165 309.147C326.823 308.079 327.407 306.887 328.015 305.659C328.638 304.348 329.431 303.125 330.373 302.021C330.907 301.459 331.517 300.974 332.186 300.582C332.879 300.211 333.596 299.887 334.333 299.613C335.065 299.347 335.745 298.957 336.344 298.459C336.927 297.919 337.377 297.252 337.66 296.51C338.186 294.885 338.601 293.226 338.901 291.545C339.384 289.791 340.23 288.159 341.384 286.753C342.555 285.348 343.559 283.81 344.375 282.173C344.741 281.337 344.906 280.427 344.859 279.516C344.781 278.592 344.528 277.69 344.115 276.86C343.132 275.211 342.357 273.448 341.806 271.609C341.633 270.653 341.692 269.67 341.98 268.742C342.272 267.87 342.668 267.037 343.159 266.259C344.167 264.805 345.044 263.264 345.778 261.654C346.089 260.865 346.22 260.017 346.163 259.171C346.102 258.352 345.887 257.552 345.53 256.813C344.847 255.323 343.879 253.995 343.159 252.567C342.327 251.199 342.055 249.563 342.402 247.999C342.824 246.522 343.717 245.343 344.102 244.064C344.286 243.454 344.327 242.809 344.222 242.181C344.116 241.552 343.867 240.956 343.494 240.44C342.824 239.397 341.992 238.515 341.309 237.597C340.614 236.74 340.153 235.718 339.969 234.63C339.919 233.688 340.003 232.744 340.217 231.825C340.397 231.073 340.468 230.3 340.428 229.528C340.387 228.998 340.219 228.486 339.938 228.034C339.657 227.583 339.272 227.205 338.814 226.934C338.441 226.797 338.035 226.771 337.647 226.859Z" fill="#FA8433"/>
<path d="M177.343 274.539C176.931 274.585 176.515 274.585 176.102 274.539C174.897 274.393 173.737 273.991 172.701 273.359C171.017 272.376 169.731 270.835 169.064 269.002C168.633 267.783 168.475 266.484 168.602 265.197C168.728 263.91 169.136 262.666 169.796 261.554C170.638 260.315 171.603 259.163 172.676 258.116C173.85 257.024 174.758 255.678 175.332 254.181C175.755 252.508 175.538 250.737 174.724 249.216C174.004 247.577 172.962 246.013 172.242 244.25C171.461 242.255 171.105 240.118 171.199 237.977C171.292 235.836 171.831 233.738 172.783 231.818C173.734 229.898 175.076 228.198 176.723 226.826C178.37 225.455 180.285 224.443 182.346 223.856L182.222 224.24C181.431 223.275 180.882 222.134 180.621 220.914C180.38 219.684 180.38 218.419 180.621 217.19C180.848 215.938 181.293 214.737 181.936 213.639C182.612 212.536 183.449 211.541 184.419 210.685C187.304 208.29 190.702 206.591 194.35 205.72C197.769 204.807 201.301 204.389 204.839 204.479L204.603 204.714C204.543 203.229 204.782 201.747 205.306 200.356C205.83 198.965 206.627 197.694 207.652 196.617C208.677 195.54 209.907 194.68 211.271 194.088C212.634 193.496 214.102 193.184 215.589 193.17C217.372 193.237 219.137 193.563 220.827 194.138C221.636 194.365 222.47 194.494 223.31 194.523C224.108 194.524 224.899 194.377 225.643 194.089C227.066 193.483 228.409 192.704 229.64 191.767C230.817 190.91 232.097 190.205 233.451 189.67C234.711 189.205 236.033 188.929 237.374 188.85C239.653 188.689 241.936 189.116 244.002 190.092C245.528 190.841 246.9 191.868 248.049 193.12C248.767 193.899 249.388 194.762 249.899 195.69C250.073 196.007 250.226 196.334 250.358 196.671C250.358 196.671 250.184 196.348 249.824 195.727C249.288 194.833 248.655 194.001 247.937 193.245C246.78 192.036 245.413 191.048 243.903 190.327C241.874 189.36 239.629 188.933 237.386 189.086C236.078 189.177 234.79 189.457 233.563 189.918C232.237 190.45 230.986 191.151 229.839 192.003C228.588 192.959 227.225 193.76 225.78 194.387C224.991 194.704 224.147 194.86 223.297 194.846C222.437 194.827 221.582 194.702 220.752 194.473C219.099 193.911 217.372 193.593 215.626 193.53C213.796 193.562 212.003 194.053 210.412 194.958C208.727 195.936 207.34 197.356 206.402 199.064C205.463 200.773 205.009 202.705 205.087 204.652V204.901H204.839C201.346 204.817 197.86 205.235 194.486 206.142C190.897 206.975 187.549 208.628 184.704 210.971C183.783 211.792 182.988 212.746 182.346 213.801C181.735 214.853 181.315 216.004 181.105 217.202C180.881 218.375 180.881 219.579 181.105 220.752C181.348 221.896 181.864 222.965 182.607 223.868L182.842 224.153L182.495 224.253C180.49 224.815 178.625 225.791 177.02 227.119C175.416 228.447 174.108 230.096 173.18 231.961C172.252 233.825 171.726 235.863 171.635 237.944C171.544 240.024 171.89 242.101 172.651 244.039C173.322 245.802 174.352 247.379 175.134 249.005C175.968 250.592 176.185 252.431 175.742 254.169C175.147 255.715 174.204 257.104 172.986 258.228C171.917 259.251 170.956 260.383 170.119 261.604C169.469 262.68 169.063 263.886 168.93 265.137C168.797 266.387 168.94 267.652 169.349 268.841C169.987 270.636 171.223 272.157 172.85 273.148C173.863 273.784 174.995 274.207 176.177 274.39C176.983 274.539 177.356 274.514 177.343 274.539Z" fill="#263238"/>
<path d="M342.365 215.688C342.326 215.593 342.305 215.492 342.302 215.39L342.154 214.508C342.017 213.714 341.831 212.597 341.583 211.157C341.334 209.717 340.987 207.929 340.44 205.919C339.841 203.626 338.979 201.41 337.871 199.315C336.524 196.789 334.654 194.579 332.384 192.835C331.112 191.887 329.695 191.149 328.189 190.65C326.553 190.215 324.896 189.867 323.223 189.608C321.423 189.334 319.691 188.718 318.122 187.795C316.546 186.735 315.108 185.484 313.839 184.071C312.523 182.693 311.257 181.241 309.805 179.938C308.355 178.602 306.672 177.546 304.839 176.822C301.161 175.512 297.252 174.975 293.357 175.245C289.719 175.387 286.096 175.802 282.52 176.487C276.424 177.58 270.552 179.678 265.142 182.693C261.523 184.749 258.255 187.368 255.46 190.452C254.976 191.01 254.529 191.482 254.218 191.929C253.908 192.376 253.598 192.76 253.349 193.071L252.816 193.778L252.617 194.002C252.66 193.911 252.71 193.824 252.766 193.741L253.275 193.021L254.107 191.842C254.454 191.383 254.889 190.899 255.348 190.328C258.12 187.177 261.386 184.498 265.018 182.395C270.415 179.315 276.289 177.159 282.396 176.015C285.996 175.323 289.644 174.908 293.308 174.774C297.265 174.482 301.24 175.023 304.976 176.363C306.86 177.111 308.59 178.201 310.078 179.578C311.555 180.893 312.821 182.371 314.137 183.736C315.37 185.107 316.771 186.316 318.308 187.336C319.831 188.249 321.517 188.856 323.273 189.123C324.948 189.38 326.606 189.737 328.238 190.191C329.785 190.71 331.24 191.472 332.546 192.45C334.848 194.243 336.74 196.507 338.094 199.091C339.181 201.217 340.014 203.462 340.577 205.782C341.098 207.818 341.409 209.605 341.645 211.07C341.88 212.535 342.029 213.664 342.116 214.434C342.116 214.806 342.191 215.092 342.216 215.315C342.287 215.43 342.337 215.556 342.365 215.688Z" fill="#263238"/>
<path d="M345.803 354.616C345.803 354.616 342.079 340.577 340.838 340.577L301.562 330.646C301.562 330.646 288.119 345.455 272.267 343.792C256.415 342.129 243.518 329.157 243.518 329.157L199.737 339.609C196.571 340.242 190.774 342.253 185.251 350.16C179.044 358.973 146.571 404.89 146.571 404.89L196.981 429.033L347.888 405.15L345.803 354.616Z" fill="#FA8433"/>
<path d="M340.838 340.577C340.838 340.577 354.219 341.942 370.629 359.308C379.145 368.37 402.78 393.196 402.78 393.196L358.092 434.992L340.838 408.378L341.198 362.623L340.838 340.577Z" fill="#FA8433"/>
<path d="M145.504 354.244C144.61 353.524 148.532 339.199 148.532 339.199C148.532 339.199 138.143 323.124 137.869 317.935C137.596 312.747 141.966 302.121 141.966 302.121L171.757 294.859C171.757 294.859 181.328 311.704 183.227 317.675C185.126 323.645 179.95 343.866 179.95 343.866L174.91 354.244C174.91 354.244 159.692 365.652 145.504 354.244Z" fill="#FFBE9D"/>
<path d="M137.932 321.038C136.765 319.007 135.717 316.909 134.791 314.757C132.917 310.512 130.595 306.354 134.791 303.983C135.455 303.57 136.195 303.297 136.968 303.179C137.74 303.062 138.528 303.103 139.285 303.3C139.285 303.3 138.639 299.737 140.886 298.397C141.547 298.006 142.288 297.77 143.053 297.705C143.818 297.641 144.588 297.75 145.305 298.024C145.305 298.024 144.585 292.985 147.788 290.85C149.02 290.088 150.431 289.667 151.879 289.627C153.326 289.588 154.759 289.933 156.03 290.626C156.03 290.626 153.473 268.568 153.249 267.401C152.43 263.118 154.106 259.32 158.6 260.375C160.25 260.76 161.169 262.411 163.093 269.598C165.017 276.785 168.133 289.037 168.133 289.037C168.133 289.037 173.359 297.726 175.829 302.344C178.299 306.962 183.178 317.674 183.587 320.492C184.642 327.791 180.136 337.449 180.136 337.449L148.495 339.199C148.495 339.199 139.136 323.124 137.932 321.038Z" fill="#FFBE9D"/>
<path d="M139.905 304.256C140.818 305.272 141.648 306.36 142.388 307.508L144.87 311.12C145.391 311.832 145.847 312.588 146.236 313.38C146.679 314.266 146.81 315.277 146.608 316.247C146.503 316.762 146.262 317.239 145.911 317.629C145.559 318.02 145.11 318.31 144.61 318.469C143.653 318.7 142.644 318.582 141.767 318.134C141.025 317.789 140.318 317.374 139.657 316.892C139.036 316.47 138.416 316.061 137.956 315.651C136.926 314.894 136.132 314.248 135.585 313.777C135.039 313.305 134.778 313.032 134.803 312.995C134.828 312.958 136.119 313.876 138.229 315.304C139.412 316.152 140.657 316.912 141.953 317.575C142.696 317.941 143.543 318.037 144.349 317.848C144.742 317.72 145.093 317.486 145.364 317.174C145.636 316.861 145.817 316.481 145.888 316.073C146.061 315.233 145.948 314.359 145.566 313.591C145.213 312.829 144.797 312.099 144.324 311.406L141.941 307.682C141.17 306.598 140.489 305.452 139.905 304.256Z" fill="#FDE0CC"/>
<path d="M165.812 306.875C165.532 305.299 165.647 303.679 166.147 302.158C166.437 300.57 167.115 299.077 168.12 297.813C168.294 297.888 167.413 299.812 166.792 302.307C166.172 304.802 166.06 306.875 165.812 306.875Z" fill="#FDE0CC"/>
<path d="M178.411 313.33C175.448 310.615 171.777 308.795 167.822 308.079C163.847 307.351 159.787 307.205 155.769 307.645C152.542 307.918 148.867 308.712 147.403 311.443C145.938 314.174 147.713 317.885 150.568 319.512C153.423 321.138 156.948 321.187 160.263 320.902C163.577 320.616 166.929 320.033 170.193 320.517" fill="#FFBE9D"/>
<path d="M170.206 320.517C170.206 320.517 169.312 320.443 167.723 320.455C166.134 320.468 163.813 320.728 160.946 321.063C159.368 321.253 157.779 321.32 156.191 321.262C154.346 321.218 152.529 320.796 150.854 320.021C149.021 319.127 147.603 317.562 146.894 315.651C146.527 314.65 146.449 313.566 146.67 312.523C146.944 311.434 147.557 310.46 148.421 309.743C150.2 308.443 152.306 307.665 154.503 307.496C156.498 307.271 158.504 307.159 160.511 307.161C163.922 307.101 167.321 307.587 170.578 308.601C172.75 309.291 174.793 310.335 176.623 311.691C177.107 312.078 177.567 312.492 178.001 312.933C178.299 313.231 178.436 313.392 178.423 313.417C178.411 313.442 177.765 312.833 176.462 311.94C174.606 310.687 172.572 309.72 170.429 309.072C167.203 308.149 163.853 307.73 160.499 307.831C158.515 307.842 156.534 307.966 154.565 308.203C152.5 308.359 150.519 309.085 148.843 310.301C148.075 310.943 147.532 311.813 147.291 312.784C147.095 313.715 147.164 314.683 147.49 315.577C148.135 317.347 149.437 318.801 151.127 319.636C152.718 320.388 154.445 320.811 156.204 320.877C157.76 320.948 159.32 320.911 160.871 320.765C163.136 320.481 165.416 320.34 167.698 320.343C168.322 320.361 168.943 320.415 169.56 320.505C169.775 320.475 169.993 320.48 170.206 320.517Z" fill="#FDE0CC"/>
<path d="M140.141 304.604C143.419 309.504 146.447 314.567 149.215 319.772C149.9 321.343 150.998 322.699 152.393 323.695C153.634 324.403 156.576 323.124 157.904 322.69L148.756 302.94" fill="#FFBE9D"/>
<path d="M148.756 302.94C149.082 303.401 149.357 303.897 149.575 304.417C150.096 305.485 150.816 306.9 151.598 308.551C153.287 312.064 155.62 316.992 158.202 322.565L158.351 322.876L158.016 322.987C157.023 323.323 155.968 323.745 154.826 324.018C154.366 324.128 153.896 324.195 153.423 324.216C153.172 324.229 152.921 324.204 152.678 324.142C152.429 324.077 152.193 323.968 151.983 323.819C151.254 323.321 150.63 322.684 150.146 321.945C149.203 320.542 148.545 319.139 147.8 317.836C146.36 315.204 145.044 312.871 143.902 310.897C142.76 308.923 141.804 307.384 141.134 306.304C140.753 305.768 140.421 305.199 140.141 304.604C140.599 305.088 141.015 305.611 141.382 306.168C142.115 307.21 143.145 308.75 144.337 310.686C145.528 312.622 146.894 314.956 148.358 317.563C149.116 318.804 149.811 320.294 150.705 321.61C151.152 322.272 151.721 322.845 152.38 323.298C152.737 323.473 153.126 323.573 153.523 323.592C153.92 323.611 154.317 323.549 154.689 323.41C155.769 323.149 156.799 322.739 157.817 322.392L157.631 322.814C155.062 317.24 152.802 312.287 151.226 308.712C150.469 307.012 149.86 305.597 149.376 304.504C149.121 304.004 148.913 303.48 148.756 302.94Z" fill="#FDE0CC"/>
<path d="M146.298 297.069C149.244 304.07 152.182 311.067 155.111 318.059C155.651 319.589 156.453 321.013 157.482 322.267C158.023 322.905 158.709 323.405 159.482 323.725C160.255 324.044 161.093 324.174 161.926 324.105C163.032 323.864 164.023 323.253 164.734 322.373C165.445 321.492 165.834 320.395 165.836 319.263C165.767 317.044 165.203 314.869 164.185 312.896C161.554 306.53 159.441 299.963 157.867 293.258" fill="#FFBE9D"/>
<path d="M157.867 293.258C157.973 293.456 158.048 293.67 158.09 293.891L158.612 295.753C159.071 297.354 159.729 299.688 160.66 302.53C161.591 305.373 162.795 308.737 164.309 312.461C165.248 314.35 165.873 316.379 166.159 318.469C166.249 319.619 166.017 320.771 165.489 321.796C164.952 322.927 164.008 323.814 162.845 324.278C162.237 324.485 161.593 324.566 160.953 324.517C160.313 324.468 159.69 324.289 159.121 323.993C158.069 323.452 157.175 322.648 156.526 321.659C155.469 319.843 154.576 317.936 153.858 315.962C152.356 312.238 150.99 308.998 149.836 306.192C148.681 303.387 147.837 301.227 147.179 299.601L146.484 297.789C146.388 297.584 146.321 297.367 146.285 297.143C146.42 297.326 146.528 297.527 146.608 297.739L147.415 299.502L150.27 306.031C151.511 308.824 152.864 312.113 154.429 315.738C155.172 317.631 156.073 319.458 157.122 321.2C157.713 322.095 158.525 322.822 159.481 323.31C159.961 323.567 160.489 323.721 161.031 323.764C161.574 323.807 162.119 323.737 162.634 323.558C163.642 323.153 164.465 322.388 164.943 321.411C165.42 320.476 165.63 319.428 165.551 318.382C165.268 316.36 164.669 314.396 163.776 312.56C162.286 308.836 161.132 305.485 160.25 302.63C159.369 299.775 158.773 297.416 158.401 295.778C158.215 294.958 158.078 294.325 157.991 293.891C157.924 293.686 157.882 293.473 157.867 293.258Z" fill="#FDE0CC"/>
<path d="M147.005 346.287C147.005 346.287 126.809 402.792 126.015 405.61L166.569 418.879L180.223 342.551L147.005 346.287Z" fill="#FFBE9D"/>
<path d="M166.668 337.511C166.025 337.577 165.376 337.497 164.769 337.275C163.284 336.844 161.912 336.094 160.747 335.078C159.604 334.089 158.7 332.854 158.103 331.466C157.807 330.922 157.665 330.308 157.693 329.69C158.535 331.552 159.723 333.237 161.194 334.656C162.836 335.922 164.69 336.889 166.668 337.511Z" fill="#FDE0CC"/>
<path d="M126.015 405.61C126.015 405.61 119.386 422.082 119.808 433.229C120.23 444.376 126.015 465.503 142.301 465.379C154.044 465.317 165.799 460.662 178.374 446.263C185.35 438.269 194.163 427.804 194.163 427.804L156.924 410.004L126.015 405.61Z" fill="#FFBE9D"/>
<path d="M158.115 449.205C158.188 448.911 158.297 448.628 158.438 448.361L159.468 445.99C159.94 444.984 160.312 443.656 160.859 442.167C161.405 440.677 161.889 438.927 162.46 437.003C164.694 429.306 167.115 418.482 169.411 406.466C171.708 394.45 173.483 383.502 174.761 375.582C175.382 371.672 175.891 368.482 176.263 366.198C176.437 365.143 176.574 364.299 176.685 363.653C176.718 363.35 176.78 363.05 176.872 362.759C176.894 363.061 176.894 363.364 176.872 363.665L176.574 366.235C176.288 368.457 175.854 371.684 175.332 375.657C174.165 383.589 172.44 394.549 170.156 406.59C167.872 418.631 165.352 429.443 163.018 437.127C162.41 439.051 161.914 440.851 161.318 442.278C160.722 443.706 160.325 445.084 159.816 446.089L158.661 448.41C158.5 448.689 158.318 448.955 158.115 449.205Z" fill="#FDE0CC"/>
<path d="M190.911 376.364C191.043 376.66 191.147 376.968 191.221 377.283C191.407 377.953 191.668 378.847 191.978 379.952C192.599 382.298 193.431 385.687 194.362 389.882C196.236 398.311 198.495 410.016 200.717 423.013C202.939 436.01 204.615 447.839 205.621 456.392C206.117 460.675 206.452 464.15 206.638 466.559C206.713 467.725 206.763 468.644 206.8 469.339C206.822 469.662 206.822 469.985 206.8 470.307C206.719 469.994 206.669 469.674 206.651 469.352C206.576 468.656 206.49 467.738 206.365 466.583C206.105 464.188 205.695 460.724 205.124 456.442C204.007 447.889 202.219 436.109 200.035 423.112C197.85 410.116 195.64 398.423 193.828 389.969C192.947 385.749 192.19 382.347 191.643 380.039C191.383 378.921 191.172 378.015 191.01 377.345C190.959 377.02 190.925 376.693 190.911 376.364Z" fill="#263238"/>
<path d="M345.704 441.695C345.676 441.456 345.676 441.214 345.704 440.975C345.704 440.429 345.803 439.734 345.865 438.914C346.026 437.04 346.25 434.47 346.511 431.33C347.269 423.011 347.571 414.657 347.417 406.305C347.273 401.711 346.884 397.128 346.25 392.576C345.902 390.49 345.617 388.492 345.195 386.655C344.984 385.736 344.822 384.842 344.611 383.998C344.4 383.154 344.177 382.347 343.978 381.516C343.606 379.952 343.122 378.586 342.737 377.37C342.352 376.153 341.992 375.123 341.669 374.279C341.347 373.435 341.148 372.851 340.974 372.342C340.873 372.121 340.803 371.887 340.763 371.647C340.903 371.845 341.012 372.062 341.086 372.293L341.905 374.192C342.265 375.024 342.675 376.041 343.072 377.258C343.469 378.474 344.003 379.827 344.4 381.392C344.624 382.174 344.847 382.98 345.083 383.874C345.319 384.768 345.493 385.624 345.704 386.543C346.163 388.393 346.461 390.391 346.833 392.489C347.506 397.059 347.92 401.663 348.075 406.28C348.243 414.661 347.878 423.045 346.982 431.38C346.659 434.57 346.362 437.152 346.126 438.939C346.014 439.771 345.915 440.454 345.84 440.987C345.831 441.229 345.785 441.467 345.704 441.695Z" fill="#263238"/>
<path d="M327.68 505.573C327.68 505.573 325.607 500.111 330.162 499.677C332.641 499.501 335.127 499.451 337.61 499.528C339.581 499.563 341.492 500.214 343.075 501.389C344.658 502.564 345.833 504.205 346.436 506.082L348.286 511.991L354.554 518.259H361.469L372.28 541.261C372.28 541.261 362.983 549.106 357.571 546.549C352.159 543.992 351.364 544.414 351.364 544.414C351.364 544.414 329.964 556.951 328.449 556.306C326.935 555.66 324.353 553.352 328.449 549.814C332.546 546.276 346.821 536.42 346.821 536.42L319.586 546.549C319.586 546.549 315.056 545.494 317.65 542.031C320.244 538.567 343.147 527.905 343.147 527.905L341.421 526.043C341.421 526.043 319.375 534.26 317.836 533.18C316.297 532.1 312.784 529.928 316.818 527.123C320.853 524.317 340.751 516.323 340.751 516.323L337.722 509.185L334.631 507.671C334.631 507.671 328.313 507.547 327.68 505.573Z" fill="#FFBE9D"/>
<path d="M368.382 526.614C368.085 526.688 367.464 524.032 365.267 521.648C363.07 519.265 360.512 518.421 360.612 518.123C360.711 517.825 363.641 518.272 366.049 520.928C368.457 523.585 368.668 526.638 368.382 526.614Z" fill="#FDE0CC"/>
<path d="M350.582 520.084C350.334 520.27 348.782 518.086 345.865 517.068C342.948 516.05 340.366 516.77 340.304 516.459C340.242 516.149 340.85 515.963 341.93 515.739C343.363 515.468 344.841 515.581 346.217 516.064C347.592 516.548 348.815 517.387 349.763 518.495C350.47 519.352 350.694 520.01 350.582 520.084Z" fill="#FDE0CC"/>
<path d="M350.88 528.351C350.706 528.6 348.981 527.582 346.647 527.693C344.313 527.805 342.65 528.935 342.464 528.649C342.278 528.364 343.854 526.713 346.61 526.626C349.366 526.539 351.103 528.165 350.88 528.351Z" fill="#FDE0CC"/>
<path d="M354.716 536.035C354.629 536.333 352.568 535.874 350.073 536.246C347.578 536.618 345.729 537.587 345.555 537.326C345.381 537.065 347.156 535.576 349.924 535.191C352.692 534.806 354.827 535.787 354.716 536.035Z" fill="#FDE0CC"/>
<path d="M298.298 412.114C298.208 412.352 298.095 412.581 297.962 412.797L296.92 414.696C296.001 416.347 294.586 418.693 292.774 421.548C290.961 424.403 288.702 427.755 286.071 431.342C283.439 434.93 280.385 438.79 277.021 442.713C273.657 446.635 270.269 450.161 267.091 453.351C263.913 456.541 260.959 459.235 258.402 461.432C255.844 463.629 253.734 465.392 252.195 466.546L250.469 467.862C250.277 468.029 250.064 468.171 249.836 468.284C249.999 468.091 250.182 467.916 250.383 467.763L252.034 466.348C253.473 465.106 255.546 463.344 258.042 461.097C271.157 449.355 282.712 435.981 292.426 421.3C294.276 418.482 295.74 416.186 296.721 414.572L297.876 412.735C297.988 412.51 298.13 412.302 298.298 412.114Z" fill="#263238"/>
<path d="M289.819 423.894C289.646 423.913 289.471 423.913 289.298 423.894C288.791 423.902 288.284 423.865 287.784 423.783C285.848 423.41 284.045 422.532 282.558 421.238C280.188 419.204 278.491 416.499 277.692 413.48C276.76 409.484 276.596 405.347 277.208 401.29C277.344 400.16 277.481 399.018 277.63 397.839C277.755 396.624 277.975 395.42 278.287 394.239C278.623 392.972 279.286 391.816 280.211 390.888C280.689 390.389 281.27 390.001 281.913 389.75C282.556 389.499 283.246 389.392 283.935 389.435C284.65 389.537 285.33 389.806 285.921 390.221C286.512 390.635 286.997 391.182 287.337 391.819C288.036 393.073 288.483 394.452 288.652 395.878C288.887 398.815 288.733 401.77 288.193 404.666C287.046 410.897 284.338 416.735 280.323 421.635C278.205 424.217 275.741 426.493 272.999 428.4C271.607 429.413 270.093 430.247 268.493 430.883C266.853 431.56 265.071 431.825 263.305 431.653C261.511 431.423 259.855 430.57 258.625 429.244C257.46 427.951 256.569 426.435 256.006 424.788C255.443 423.195 255.027 421.554 254.764 419.885C254.487 418.241 254.296 416.584 254.193 414.92C253.99 411.712 254.119 408.493 254.578 405.312C254.814 403.748 255.112 402.221 255.484 400.719C255.871 399.209 256.554 397.791 257.495 396.548C257.974 395.922 258.584 395.409 259.283 395.046C259.996 394.687 260.8 394.549 261.592 394.649C262.345 394.797 263.053 395.122 263.658 395.597C264.262 396.071 264.745 396.682 265.067 397.38C265.656 398.704 265.903 400.155 265.787 401.6C265.69 402.957 265.52 404.308 265.278 405.647C264.355 410.533 262.559 415.213 259.978 419.463C256.248 425.63 250.995 430.734 244.722 434.284C243.752 434.848 242.748 435.354 241.718 435.799C240.977 436.159 240.214 436.475 239.434 436.742L238.007 437.239C237.847 437.305 237.68 437.355 237.51 437.387C237.66 437.303 237.818 437.232 237.982 437.176L239.384 436.618C240.153 436.332 240.903 436.001 241.631 435.625C242.647 435.16 243.637 434.642 244.598 434.073C250.769 430.452 255.924 425.327 259.581 419.177C262.106 414.972 263.855 410.347 264.745 405.523C264.98 404.204 265.146 402.874 265.241 401.538C265.341 400.186 265.106 398.831 264.558 397.591C264.277 396.979 263.855 396.444 263.326 396.027C262.797 395.611 262.177 395.326 261.517 395.195C260.828 395.131 260.135 395.254 259.51 395.552C258.886 395.849 258.352 396.309 257.967 396.883C256.142 399.18 255.683 402.32 255.199 405.361C254.743 408.501 254.619 411.68 254.827 414.845C254.932 416.472 255.122 418.092 255.398 419.699C255.663 421.327 256.078 422.926 256.639 424.478C257.17 426.043 258.014 427.483 259.121 428.711C260.243 429.93 261.76 430.713 263.404 430.92C265.064 431.08 266.739 430.833 268.282 430.2C269.834 429.588 271.302 428.783 272.652 427.804C275.354 425.943 277.778 423.707 279.852 421.163C283.81 416.352 286.488 410.617 287.635 404.492C288.171 401.658 288.33 398.766 288.106 395.89C287.951 394.538 287.529 393.23 286.865 392.042C286.572 391.476 286.15 390.988 285.632 390.617C285.114 390.246 284.516 390.002 283.886 389.907C283.275 389.861 282.661 389.949 282.086 390.163C281.512 390.377 280.991 390.713 280.559 391.148C279.67 392.058 279.052 393.197 278.772 394.438C278.459 395.594 278.235 396.773 278.101 397.963C277.952 399.13 277.803 400.284 277.667 401.402C277.04 405.403 277.166 409.487 278.039 413.442C278.8 416.409 280.43 419.08 282.719 421.114C284.165 422.403 285.917 423.301 287.808 423.721C289.112 423.919 289.819 423.845 289.819 423.894Z" fill="white"/>
<path d="M315.266 427.829C315.244 428.149 315.173 428.463 315.055 428.76C314.739 429.623 314.209 430.392 313.516 430.995C312.413 431.964 311.031 432.559 309.569 432.695C307.617 432.824 305.689 432.212 304.169 430.982C302.317 429.53 300.959 427.54 300.284 425.285C299.549 422.73 299.263 420.067 299.44 417.415C299.626 411.335 301.116 405.366 303.809 399.912C304.226 399.162 304.834 398.537 305.572 398.1C305.961 397.885 306.395 397.765 306.839 397.748C307.283 397.73 307.724 397.817 308.129 398C308.877 398.405 309.473 399.041 309.83 399.813C310.187 400.525 310.422 401.293 310.525 402.084C310.75 405.059 310.238 408.044 309.035 410.774C307.018 415.325 303.821 419.255 299.775 422.156C297.08 424.112 294.203 425.803 291.185 427.209C290.13 427.73 289.31 428.102 288.702 428.351C288.42 428.49 288.125 428.602 287.821 428.686C288.082 428.513 288.356 428.359 288.64 428.227L291.036 426.985C294.004 425.487 296.837 423.735 299.502 421.747C303.429 418.843 306.528 414.961 308.489 410.488C309.62 407.869 310.106 405.017 309.904 402.171C309.801 401.45 309.583 400.75 309.259 400.098C308.967 399.455 308.475 398.924 307.856 398.584C307.543 398.444 307.201 398.379 306.859 398.394C306.516 398.41 306.182 398.504 305.882 398.671C305.25 399.057 304.729 399.6 304.368 400.247C302.971 403.005 301.916 405.923 301.227 408.936C300.539 411.732 300.123 414.588 299.986 417.464C299.791 420.054 300.048 422.658 300.743 425.161C301.373 427.322 302.646 429.24 304.393 430.66C305.82 431.846 307.64 432.457 309.494 432.373C310.889 432.265 312.217 431.728 313.293 430.833C313.982 430.276 314.527 429.561 314.882 428.748C315.18 428.152 315.217 427.817 315.266 427.829Z" fill="white"/>
<g opacity="0.3">
<path d="M296.001 416C290.694 431.31 280.433 444.414 266.843 453.239C266.843 453.239 284.147 436.519 296.001 416Z" fill="black"/>
</g>
<g opacity="0.3">
<path d="M341.682 373.882V374.391C347.268 386.99 347.503 405.982 347.566 420.208C350.454 412.584 352.129 404.554 352.531 396.412C352.593 389.001 347.988 377.767 341.682 373.882Z" fill="black"/>
</g>
</svg>
